<?xml version="1.0" encoding="UTF-8"?>
<svg id="Layer_2" data-name="Layer 2" xmlns="http://www.w3.org/2000/svg" viewBox="0 0 205.34 170.08">
  <defs>
    <style>
      .cls-1 {
        stroke-width: 0px;
      }
    </style>
  </defs>
  <g id="Layer_1-2" data-name="Layer 1">
    <path class="cls-1" d="m66.95,67.73h71.54c-3.75,12.18-7.39,24.11-11.1,36.02-6.19,19.86-12.42,39.71-18.62,59.56-.15.47-.27.95-.41,1.43-.84,2.87-2.22,5.36-5.63,5.33-3.39-.03-4.73-2.53-5.61-5.39-5.77-18.61-11.54-37.21-17.33-55.81-4.21-13.54-8.45-27.08-12.84-41.14Z"/>
    <path class="cls-1" d="m0,53.35c12.84-15.63,24.67-30.3,36.82-44.69C41.25,3.4,47.54.7,54.33.42c10.01-.41,20.06-.1,30.14-.1.17,1.88-1.16,2.86-1.94,4.02-10.1,15.12-20.32,30.16-30.35,45.32-1.72,2.59-3.43,3.82-6.72,3.78-14.68-.21-29.37-.09-45.47-.09Z"/>
    <path class="cls-1" d="m204.68,53.35c-5.61,0-10.83,0-16.05,0-9.77,0-19.54,0-29.31,0-1.83,0-3.48.07-4.74-1.82-11.25-16.89-22.58-33.73-34.44-51.41,12.29.42,23.77-1.05,35.16.98,5.86,1.04,10.83,4.16,14.61,8.76,11.36,13.8,22.6,27.69,33.87,41.56.28.35.4.84.89,1.92Z"/>
    <path class="cls-1" d="m.21,67.59c17.2,0,33.08.02,48.96-.02,1.63,0,2.75.22,3.37,2.03,9.43,27.44,18.92,54.85,27.59,82.81C53.77,124.44,27.42,96.47.21,67.59Z"/>
    <path class="cls-1" d="m205.34,67.59c-26.85,28.48-52.79,55.99-78.95,83.75-1.43-2.5-.27-3.77.18-5.09,8.6-24.99,17.24-49.96,25.87-74.94.62-1.78.66-3.8,3.59-3.78,16.01.12,32.03.06,49.31.06Z"/>
    <path class="cls-1" d="m137.3,53.1h-68.91c-.76-1.35.48-2.11,1.04-2.95,10.36-15.57,20.77-31.11,31.18-46.65,1.03-1.53,1.7-4.07,3.91-.73,10.86,16.43,21.84,32.78,32.76,49.17.14.21.02.6.02,1.16Z"/>
  </g>
</svg>