<?xml version="1.0" encoding="UTF-8"?>
<svg id="Layer_2" data-name="Layer 2" xmlns="http://www.w3.org/2000/svg" viewBox="0 0 50 50">
  <defs>
    <style>
      .cls-1 {
        fill-rule: evenodd;
        stroke-width: 0px;
      }
    </style>
  </defs>
  <g id="Layer_1-2" data-name="Layer 1">
    <path class="cls-1" d="m25.02,0C11.18,0,0,11.46,0,25.63c0,11.33,7.17,20.92,17.11,24.32,1.24.26,1.7-.55,1.7-1.23,0-.59-.04-2.63-.04-4.75-6.96,1.53-8.41-3.06-8.41-3.06-1.12-2.97-2.78-3.73-2.78-3.73-2.28-1.57.17-1.57.17-1.57,2.53.17,3.85,2.63,3.85,2.63,2.24,3.9,5.84,2.8,7.29,2.12.21-1.66.87-2.8,1.57-3.44-5.55-.59-11.39-2.8-11.39-12.65,0-2.8.99-5.09,2.57-6.87-.25-.64-1.12-3.27.25-6.79,0,0,2.11-.68,6.88,2.63,2.04-.56,4.14-.85,6.26-.85,2.11,0,4.27.3,6.25.85,4.76-3.31,6.88-2.63,6.88-2.63,1.37,3.52.5,6.15.25,6.79,1.62,1.78,2.57,4.07,2.57,6.87,0,9.85-5.84,12.01-11.43,12.65.91.81,1.7,2.33,1.7,4.75,0,3.44-.04,6.2-.04,7.04,0,.68.46,1.49,1.7,1.23,9.94-3.4,17.11-12.99,17.11-24.32.04-14.18-11.18-25.63-24.98-25.63Z"/>
  </g>
</svg>