<?xml version="1.0" encoding="UTF-8"?>
<svg id="Layer_2" data-name="Layer 2" xmlns="http://www.w3.org/2000/svg" viewBox="0 0 1479.01 377.6">
  <defs>
    <style>
      .cls-1 {
        fill: #fc3563;
      }

      .cls-1, .cls-2, .cls-3, .cls-4, .cls-5, .cls-6, .cls-7, .cls-8, .cls-9, .cls-10, .cls-11, .cls-12, .cls-13, .cls-14, .cls-15, .cls-16, .cls-17, .cls-18, .cls-19, .cls-20, .cls-21, .cls-22, .cls-23, .cls-24, .cls-25, .cls-26, .cls-27, .cls-28, .cls-29, .cls-30, .cls-31, .cls-32, .cls-33, .cls-34, .cls-35, .cls-36, .cls-37, .cls-38, .cls-39, .cls-40, .cls-41, .cls-42, .cls-43, .cls-44, .cls-45, .cls-46, .cls-47, .cls-48, .cls-49, .cls-50, .cls-51, .cls-52, .cls-53, .cls-54, .cls-55, .cls-56, .cls-57, .cls-58, .cls-59, .cls-60, .cls-61, .cls-62, .cls-63, .cls-64, .cls-65, .cls-66, .cls-67, .cls-68, .cls-69, .cls-70, .cls-71, .cls-72, .cls-73, .cls-74, .cls-75, .cls-76, .cls-77, .cls-78, .cls-79, .cls-80, .cls-81, .cls-82, .cls-83, .cls-84, .cls-85, .cls-86, .cls-87, .cls-88, .cls-89, .cls-90, .cls-91, .cls-92, .cls-93, .cls-94, .cls-95, .cls-96, .cls-97, .cls-98, .cls-99 {
        stroke-width: 0px;
      }

      .cls-2 {
        fill: #0c0103;
      }

      .cls-3 {
        fill: #a586eb;
      }

      .cls-4 {
        fill: #891c35;
      }

      .cls-5 {
        fill: #e4e4e4;
      }

      .cls-6 {
        fill: #4508d0;
      }

      .cls-7 {
        fill: #4d14d4;
      }

      .cls-8 {
        fill: #fefefe;
      }

      .cls-9 {
        fill: #0b0002;
      }

      .cls-10 {
        fill: #0f0305;
      }

      .cls-11 {
        fill: #160407;
      }

      .cls-12 {
        fill: #b0adad;
      }

      .cls-13 {
        fill: #7b0009;
      }

      .cls-14 {
        fill: #3f242b;
      }

      .cls-15 {
        fill: #110307;
      }

      .cls-16 {
        fill: #b71a58;
      }

      .cls-17 {
        fill: #fa3562;
      }

      .cls-18 {
        fill: #e9e8e8;
      }

      .cls-19 {
        fill: #efeeee;
      }

      .cls-20 {
        fill: #7b0008;
      }

      .cls-21 {
        fill: #de284d;
      }

      .cls-22 {
        fill: #746e6f;
      }

      .cls-23 {
        fill: #ececec;
      }

      .cls-24 {
        fill: #757070;
      }

      .cls-26 {
        fill: #040013;
      }

      .cls-27 {
        fill: #0e0103;
      }

      .cls-28 {
        fill: #7d182f;
      }

      .cls-29 {
        fill: #afacad;
      }

      .cls-30 {
        fill: #24070c;
      }

      .cls-31 {
        fill: #010007;
      }

      .cls-32 {
        fill: #938f90;
      }

      .cls-33 {
        fill: #aba8a9;
      }

      .cls-34 {
        fill: #4001d4;
      }

      .cls-35 {
        fill: #f93462;
      }

      .cls-36 {
        fill: #fd3664;
      }

      .cls-37 {
        fill: #4002d3;
      }

      .cls-38 {
        fill: #0d0103;
      }

      .cls-39 {
        fill: #fefdfd;
      }

      .cls-40 {
        fill: #7c0009;
      }

      .cls-41 {
        fill: #332025;
      }

      .cls-42 {
        fill: #8e69e6;
      }

      .cls-43 {
        fill: #0f0204;
      }

      .cls-44 {
        fill: #d7d6d6;
      }

      .cls-45 {
        fill: #c0bebf;
      }

      .cls-46 {
        fill: #4d3393;
      }

      .cls-47 {
        fill: #c8c6c6;
      }

      .cls-48 {
        fill: #6e6969;
      }

      .cls-49 {
        fill: #f6f6f6;
      }

      .cls-50 {
        fill: #db2782;
      }

      .cls-51 {
        fill: #1d080c;
      }

      .cls-52 {
        fill: #22040d;
      }

      .cls-53 {
        fill: #403839;
      }

      .cls-54 {
        fill: #450eca;
      }

      .cls-55 {
        fill: #b7b4b4;
      }

      .cls-56 {
        fill: #d5d3d3;
      }

      .cls-57 {
        fill: #0c0002;
      }

      .cls-58 {
        fill: #010005;
      }

      .cls-59 {
        fill: #0e0104;
      }

      .cls-60 {
        fill: #f6f4cc;
      }

      .cls-61 {
        fill: #71651f;
      }

      .cls-62 {
        fill: #100205;
      }

      .cls-63 {
        fill: #8c0714;
      }

      .cls-64 {
        fill: #7e010a;
      }

      .cls-65 {
        fill: #e1e0e0;
      }

      .cls-66 {
        fill: #fe3764;
      }

      .cls-67 {
        fill: #d12377;
      }

      .cls-68 {
        fill: #0a0204;
      }

      .cls-69 {
        fill: #3f00d5;
      }

      .cls-70 {
        fill: #fbfbfb;
      }

      .cls-71 {
        fill: #cbc8c9;
      }

      .cls-72 {
        fill: #4007c9;
      }

      .cls-73 {
        fill: #7c0109;
      }

      .cls-74 {
        fill: #9b7fe6;
      }

      .cls-75 {
        fill: #c51e66;
      }

      .cls-76 {
        fill: #d4247b;
      }

      .cls-77 {
        fill: #b2afb0;
      }

      .cls-78 {
        fill: #fdfdfd;
      }

      .cls-79 {
        fill: #9c203c;
      }

      .cls-80 {
        fill: #715d19;
      }

      .cls-81 {
        fill: #fb3563;
      }

      .cls-82 {
        fill: #120407;
      }

      .cls-83 {
        fill: #f33461;
      }

      .cls-84 {
        fill: #130306;
      }

      .cls-85 {
        fill: #1a0509;
      }

      .cls-86 {
        fill: #eae9e9;
      }

      .cls-87 {
        fill: #f2325f;
      }

      .cls-88 {
        fill: #2a0910;
      }

      .cls-89 {
        fill: #ebe9be;
      }

      .cls-90 {
        fill: #240b0f;
      }

      .cls-91 {
        fill: #82030d;
      }

      .cls-92 {
        fill: #200b0f;
      }

      .cls-93 {
        fill: #fcfcfc;
      }

      .cls-94 {
        fill: #8d68e6;
      }

      .cls-95 {
        fill: #e22f59;
      }

      .cls-96 {
        fill: #918c8d;
      }

      .cls-97 {
        fill: #a51125;
      }

      .cls-98 {
        fill: #dbdada;
      }

      .cls-99 {
        fill: #321219;
      }
    </style>
  </defs>
  <g id="Layer_1-2" data-name="Layer 1">
    <g>
      <path class="cls-9" d="m770.07,102.46c2.24-1.75,2.97-4.55,4.63-6.71.98-1.26.15-1.73-1.01-1.98-1.88-.41-3.68,0-5.52.38-6.47,1.34-12.61,3.99-19.25,4.69-5.5.58-10.5.07-13.91-5.01-.43-.64-.85-1.25-1.78-.89-6.4,2.5-13.29,1.74-19.91,2.87-8.14,1.39-16.04,3.71-24.11,5.28-2.97.58-6.76,2-8.38-1.64-1.47-3.3,2.12-5.13,4.03-7.27.81-.91,2.07-1.39,2.67-2.82-1.71-1.09-3.58-.28-5.31-.4-2.86-.18-5.76,0-8.6-.33-2.22-.25-4.59-.85-5.21-3.52-.62-2.67.73-4.58,2.89-5.95,1.68-1.07,3.43-2.03,5.15-3.05.61-.36,1.56-.58,1.01-1.58-.46-.84-1.21-.47-1.97-.33-5.47,1.03-10.91,2.06-16.04,4.44-1.48.69-3.42.52-5.15.51-2.05-.01-4.1-.39-4.9-2.66-.82-2.32.63-4.04,2.3-5.04,2.55-1.53,4.38-2.69,3.68-6.41-.54-2.85,4.26-4.89,8.29-4.06,2.26.47,3.91,2.09,5.92,3.08,1.28-4.84,4.1-6.4,8.79-4.97,2.05.62,3.9,1.63,5.55,3,5.81,4.83,12.63,6.2,19.96,5.84.77-.04,1.62.06,1.85-.85.86-3.42,3.78-3.39,6.29-3.49,9.23-.35,18.46-.59,27.7-.63,5.12-.03,6.6,1.31,8.45,6.37.12.34.26.89.47.93,2.3.48,4.62,1.18,6.94,1.22,1.83.03,1.79-2.1,2.41-3.37.49-1.01.82-2.09,1.26-3.12,1.87-4.35,4.53-5.39,8.96-3.55,3.83,1.59,7.21,3.94,10.7,6.13,1.31.82,2.01,1.02,2.81-.67,2.27-4.81,6.81-7.17,11.21-9.42,2.71-1.38,5.68-.85,7.88,1.55,2.07,2.26,1.7,4.5-.41,6.59-.67.67-.49,1.29.11,1.94,2.9,3.13,1.26,5.37-1.49,7.36-.93.67-1.71,1.01-.7,2.52,2.65,4.01.56,7.68-4.41,8.85-1.75.41-4.41-1.73-5.14,1.08-.51,1.95,2.17,2.78,3.12,4.36,3.81,6.33,3.65,13.41,3.55,20.32-.09,6.2-1.08,12.4-1.86,18.58-.55,4.31.14,7.51,4,10.59,10.82,8.64,16.58,32.67-1.78,44.51-3.03,1.95-5.73,4.39-9.08,6.22,5.48-.79,10.81,2.04,16.28.15,4.29-1.48,7.91.02,10.02,4.04,1.7,3.26,4.67,3.34,6.62.08,4.43-7.41,10.49-12.58,19.17-14.24,1.06-.2,1.79-.79,2.45-1.58,4.26-5.08,9.25-9.41,14.45-13.48,4.86-3.8,7.56-9.7,12.72-13.05,4.72-3.06,7.92-7.39,11.69-11.32,5.58-5.82,12.75-10.15,19.36-14.96,5.11-3.72,10.89-5.97,17.14-7.01.98-.16,1.98-.3,2.97-.33,8.82-.25,12.1,3.34,10.97,12.09-.33,2.54-.91,5.05-1.58,8.66,6.84-4.38,14.55-4.72,19.86-10.52,4.46-4.87,10.5-7.06,17.07-7.57,2.31-.18,4.29-.93,6.27-2.15,7.96-4.91,15.96-9.74,24.03-14.45,2.13-1.25,4.49-2.52,6.87-2.85,8.7-1.2,15.09-6.87,22.22-11.03,11.19-6.52,22.36-13.07,33.06-20.43,5.06-3.48,10.83-5.18,17.22-5.48,4.35-.21,8.62-2.27,12.93-3.5,3.27-.93,6.57-1.53,9.98-.9.94.17,1.73.24,1.94-1.02,1.36-8.11,7.84-10.54,14.41-11.25,7.89-.85,15.4-2.7,22.86-5.12,1.31-.42,2.54-.67,3.15-2.25,1.9-4.97,6.03-6.79,10.95-6.95,8.67-.28,17.18.89,25.41,3.7,2.04.7,3.98,1.05,6.19.81,6.25-.66,11.92,1.11,16.58,5.33,1.8,1.63,3.16,1.72,5.28.85,8.2-3.36,16.44-6.66,25.59-6.31,2.65.1,5.24.18,7.36,2.09.35.32.91.67,1.32.62,5.78-.77,12.18-.63,16.96-3.73,10.89-7.07,22.67-10.75,35.37-11.98,5.28-.51,10.44-.92,15.75,1.5,3.21,1.46,7.51,1.2,11.29-.45,7.24-3.15,14.87-5.02,22.63-6.37,4.46-.78,8.87-.81,13.36.31,4.39,1.1,8.72.24,12.44-2.4,5.78-4.1,11.78-6.45,18.82-3.48.68,3.05-1.83,3.35-3.66,4-3.38,1.21-7.1,1.12-10.4,2.69-8.87,2.62-17.98,4.23-27.02,6.11-16.25,3.38-32.54,6.59-48.81,9.85-13.83,2.77-27.65,5.58-41.52,8.19-17.54,3.31-35.04,6.77-52.3,11.36-5.24,1.39-5.74,1.11-7.13-4.15-.88-3.32-3.65-4.37-6.44-4.98-4.26-.93-8.58-1.85-12.94-1.97-15.57-.43-30.93,1.03-45.81,5.91-5.99,1.97-11.43,5.02-16.07,9.34-1.73,1.61-3.55,3.41-2.77,6.11.76,2.63,3.12,3.33,5.48,3.94,8.32,2.16,16.63.61,24.94-.1,1.74-.15,3.47-.47,5.21-.1.72.15,1.56.34,1.61,1.25.04.64-.48,1.12-1.01,1.48-1.16.78-2.5,1.12-3.8,1.55-17.3,5.73-34.81,10.81-52.09,16.59-.83.28-1.66.58-2.54.62-2.01.09-2.85-.78-2.04-2.76.63-1.52,1.73-2.74,2.86-3.9,2.91-2.98,5.08-6.47,6.98-10.14,2.03-3.92.81-6.19-3.7-6.57-5.41-.46-10.76.04-15.8,2.19-13.1,5.59-25.44,12.72-38.16,19.08-16.4,8.21-32.76,16.51-49.31,24.42-17.79,8.5-35.44,17.28-53.28,25.67-3.61,1.7-7.33,3.17-10.83,5.11-1.29.71-2.86,1.41-4.22.28-1.24-1.05-.6-2.58-.34-3.88.62-3.18,1.49-6.32,1.82-9.55.42-4.04-1.27-6.04-5.31-5.74-7.78.58-15.04,3.04-20.93,8.18-12.77,11.15-24.92,23-37.46,34.41-12.48,11.35-25.57,21.9-39.07,31.99-1.79,1.33-3.84,2.51-3.72,5.21-.03.88-.16,1.74-.71,2.47-1.96,2.59-11.74,5.92-14.95,5.1-.54-.22-1.04-.51-1.52-.83-.93-.82-2.69-.77-2.72-2.55.5-1.38,1.82-1.59,2.96-2.03,1.16-.45,2.42-.71,3.47-1.39,1.82-1.18,4.85-1.63,4.74-4.23-.12-2.74-2.89-3.87-5.17-4.87-6.23-2.71-12.86-3.16-19.49-2.59-6.34.54-12.64,1.55-18.81,3.21-3.65.98-7.1,2.42-9.98,4.95-4.05,3.56-4.11,7.27.11,10.68,3.5,2.83,7.49,4.91,11.69,6.59,2.01.8,5.19.87,5.39,3.32.21,2.58-3.02,2.92-4.91,3.9-4.89,2.53-9.63,5.31-13.94,8.72-3.74,2.96-3.24,5.7,1.19,7.34,3.15,1.16,6.41,1.06,9.62.47,2.72-.5,4.96.09,6.75,2.17,4.47,5.2,9.03,10.32,13.65,15.39.59.64,1.09,1.37,1.51,2.13.41.75,1,1.6.24,2.39-.75.77-1.69.28-2.41-.14-4.01-2.29-8.06-4.52-12.03-6.87-8.59-5.09-17.14-10.25-26-14.85-2.42-1.26-4.34-2.87-5.47-5.38-.87-1.94-1.98-3.77-3.4-5.36-2.9-3.25-3.12-6.92-1.91-10.85,1.29-4.23,3.43-7.97,6.23-11.41,3.05-3.75,2.56-5.26-1.89-7.19-3.79-1.64-7.48-2.03-11.62-.77-13.27,4.05-26.27,8.82-39.26,13.63-3,1.11-3.7,3.4-3.88,6.17-.41,6.47,1.07,12.62,2.98,18.72.45,1.44,1.96,3.3.13,4.38-1.66.98-3-.82-3.99-2.02-5.31-6.45-10.83-12.8-12.48-21.38-.74-3.83-1.19-7.67.08-11.45.71-2.1-.58-2.97-1.94-3.92-6.15-4.28-12.21-8.68-18.11-13.28-11.41-8.9-22.48-18.2-33.16-27.98-11.68-10.69-22.94-21.83-35.03-32.08-5.65-4.79-12.35-7.01-19.46-8.05-5.35-.79-6.71.74-6.43,6.23.14,2.74.76,5.43,1.25,8.12.28,1.55,1.33,3.33-.05,4.62-1.48,1.38-3.05-.06-4.48-.64-9.16-3.67-17.96-8.14-26.83-12.41-26.09-12.56-52.26-24.95-78.05-38.12-12.56-6.41-25.13-12.8-37.57-19.44-6.9-3.68-14.16-6.23-22.13-6.11-1,.01-2,.02-2.99.19-4.01.7-4.99,2.32-3.21,5.94,2.14,4.38,4.84,8.42,8.12,12.07,1.17,1.3,3.54,2.57,2.19,4.57-1.21,1.8-3.57.69-5.23.12-7.56-2.6-15.22-4.87-22.78-7.45-9.69-3.31-19.57-6.02-29.3-9.2-1.7-.56-4.46-1.07-3.87-3.22.53-1.96,3.22-1.15,5.04-1.04,8.19.51,16.35,2.29,24.58.57,2.79-.58,6.13-.88,6.9-4.22.78-3.36-1.86-5.47-4.12-7.45-6.99-6.09-15.44-9.2-24.34-10.88-11.28-2.12-22.69-3.65-34.22-3.18-5.74.23-11.44.98-16.95,2.72-2.73.86-4.41,2.51-4.87,5.51-.51,3.37-1.76,4.15-5.21,3.33-4.25-1.01-8.43-2.27-12.69-3.28-24.79-5.89-49.95-9.97-74.88-15.13-11.85-2.45-23.76-4.64-35.59-7.27-6.45-1.43-12.93-2.77-19.45-3.9-1.55-.27-3.34-.16-3.96-2.16,3.68-2.91,7.92-3.67,12.46-3.13,4.51.54,8.89,1.75,13.31,2.76,5.51,1.2,10.61,3.56,15.85,5.53,4.54,1.7,8.59,2.28,13.25-1,5.17-3.64,11.37-1.67,16.97.15,5.05,1.65,9.41,4.62,12.91,8.67,1.58,1.83,3.64,2.56,5.69,1.89,10.86-3.54,20.07.76,29.08,5.91,1.97,1.12,3.57,1.6,5.9,1.08,4.64-1.05,9.2.07,13.49,1.95,2.19.96,3.69,1,5.54-.94,4.33-4.55,10.26-5.29,16.14-5.87,1.86-.19,3.74-.2,5.6-.35,2.7-.2,4.92-.39,6.62-3.51,2.02-3.71,6.4-3.91,10.38-3.52,5.61.54,10.54,2.95,15.12,6.06,1.93,1.31,3.9,1.96,6.23,2.13,4.71.36,9.46.64,14.02,2.09,1.94.62,4.07,1.3,5.17,2.85,2.68,3.78,6.79,4.8,10.66,6.41,4.68,1.93,8.98,4.44,11.55,9.03.74,1.31,1.59,1.32,2.77,1.04,5.94-1.44,11.87-1.39,17.79.1,1.13.28,2.21.21,3.29-.24,6.35-2.61,11.7-.54,16.51,3.66,2.36,2.06,4.35,4.48,5.87,7.22,2.1,3.79,5.32,4.86,9.5,5.26,10.8,1.03,20.86,3.86,26.9,14.13,1.05,1.79,2.94,2.61,4.79,2.35,9.75-1.38,17.13,3.67,24.14,9.09,3.49,2.7,7.02,5,10.97,6.91,11.78,5.69,23.55,11.41,35.13,17.49,4.28,2.25,8.62-.21,12.79,1.2.7.24,1.03-.84,1.3-1.57,2.26-6.15,5.42-8.39,12.08-8.1,9.78.44,18.47,3.9,26.05,10.05,2.99,2.43,5.86,5.02,8.71,7.62.9.82,1.79,1.22,2.99,1.2,8.72-.17,14.54,3.97,17.16,12.19,1.33,4.17,3.55,6.4,8.01,7.55,5.31,1.36,8.57,5.94,11.03,10.6,1.85,3.51,4.27,6.41,7.12,9.01,3.13,2.85,6.45,5.48,9.62,8.28,1.55,1.36,3.32,2.02,5.31,2.53,6.46,1.66,12.17,4.59,15.5,10.73.73,1.34,1.84,1.53,2.95,1.99,3.07,1.28,5.67,2.99,7.09,6.24,1.05,2.39,6.22,2.51,7.28.06,2.14-4.93,6.33-6.02,10.92-6.38,2.59-.21,5.26-.15,7.82.22,4,.58,7.23-1.05,11.44-3.1-4.19-.9-7.54-1.56-10.86-2.33-11.15-2.59-20.28-8.07-26.26-18.16-5.32-8.99-6.64-18.42-3.13-28.32.75-2.12.48-3.64-.69-5.51-7.67-12.24-15.12-24.61-22-37.32-1.29-2.38-2.02-5.08-2.85-7.69-1.36-4.27.27-6.75,4.85-6.97,5.75-.27,11,1.55,15.95,4.44,8.38,4.89,16.82,9.67,25.23,14.5,4.48,1.35,8.16,4.18,11.97,6.69,3.8,2.51,7.26,3.16,11.85,1.73,9.54-2.97,19.39-4.59,29.47-3.08,2.39.36,3.76-.79,4.84-2.64,2.51-4.3,5.39-8.37,8.17-12.49.75-1.12,1.37-2.41,2.82-2.85Z"/>
      <path class="cls-9" d="m1303.85,75.96c5.6.08,10.58,2.64,15.86,3.99,7.93,2.01,16.04,2.18,24.1,2.78,1.44.11,3.14-.09,4.37-.77,4.78-2.64,9.7-2.1,14.57-.82,5.89,1.55,11.45,1.37,17.15-1.05,5.15-2.18,10.96-2.99,16.13-1.02,7.52,2.87,14.99,1.34,22.49,1.34,3,0,6.01-.32,8.96.28,2.62.53,5.18,1.47,5.82,4.52.61,2.91-1.19,5.04-3.42,6.1-9.74,4.63-18.71,11.11-29.71,12.79-2.33.36-4.78.71-7.07.38-10.09-1.44-18.67,3.35-27.68,6.36-.67.22-1.27.79-1.8,1.3-8.35,8.1-18.16,9.04-28.79,5.82-2.99-.9-13.86,2.15-16.09,4.63-.97,1.08-.69,1.72.57,2.17,8.45,3.03,14.6,9.24,20.94,15.17,1.71,1.6,4.1.96,5.89,2.12.92,1.41-.06,2.35-.87,3.26-1.16,1.31-2.23,2.67-3.12,4.17-1.89,3.18-1.78,3.89,1.52,5.78,1.84,1.05,2.02,2.22.53,3.45-5.27,4.35-10.7,8.49-16.33,12.37-1,.69-2.13.53-3.25.33-6.38,2.11-12.92,3.78-18.84,7.1-.76.42-1.72.59-2.34,1.15-6.62,6.04-14.63,6.97-23.08,6.51-4.58-.25-8.81,1.56-13.17,2.57-10.72,2.48-17.85-2.42-19.4-13.38-.5-3.56.62-6.51,3.89-8.19,5.44-2.8,7.05-7.8,7.89-13.22.62-3.98-1.86-5.62-5.83-5.3-11.24.92-20.48,6.53-29.9,11.86-4.18,2.37-8.47,4.58-13.13.74-1.12-.92-2.38.16-3.55.46-6.73,1.72-13.36,4.36-20.52,2.18-1.45-.44-3.23-.6-3.9-1.97-1.96-3.95-3.89-2-5.79-.14-3.66,3.57-7.29,7.17-11.96,9.46-2.27,1.11-4.63,2.3-7.14,1.85-3.31-.6-5.74.74-8.26,2.48-8.86,6.13-18.35,11.19-28.44,14.87-6.26,2.29-8.2,8.41-12.66,12.41,5.11-2.38,10.5-3.44,15.89-4.61,2.21-.48,3.82-2.15,5-4.57,2.34-4.78,7.06-7.31,11.69-9.42,10.6-4.83,21.75-8,33.24-9.95,2.97-.5,5.95-.7,8.87.43,3.36,1.3,3.54,3.22,1.93,6.38-4.18,8.21-11.17,14.23-16.26,21.71-1.17,1.72-1.7,3.3-1.64,5.47.32,12.18-2,23.58-11,32.64-1.5,1.51-.82,2.98-.46,4.49,1.04,4.36,2.2,8.69,3.25,13.05.42,1.73.62,3.64-.45,5.08-1.85,2.49-.91,4.64.28,6.89.7,1.32,1.49,2.61,2.04,3.99,3.25,8.12,8.3,13.94,17.65,15.13,3.18.4,6.06,2.21,8.4,4.61,2.41,2.47,3.3,5.34,1.9,8.52-.74,1.68-.45,2.66.76,3.91,3.5,3.58,7.22,5.72,12.63,6.09,9.08.62,17.73,3.89,26.44,6.55,5.43,2.16,10.21,5.04,12.01,11.12.22.76.88,1.17,1.48,1.61,6.15,2.86,12.87,3.87,19.27,5.93,5.94,1.91,11.96,3.55,17.67,6.1.68.31,1.42.53,2.04.92,2.02,1.27,4.34,2.55,3.82,5.39-.5,2.75-2.88,3.59-5.34,3.9-4.35.56-8.73.36-13.09.15-3.49-.17-6.97-.49-10.44-.88-6.15-.69-12.05-1.31-18.26,1.15-6.19,2.45-13.1,1.52-18.88-1.75-7.77-4.4-16.37-5.76-24.67-8.22-14.7-4.36-29.71-7.64-44.34-12.27-2.91-.92-5.95-.28-8.93-.29-5.86-.02-11.74.45-17.47-1.33-4.6-1.43-8.44-3.88-10.57-8.29-.91-1.88-2.29-2.42-4.04-2.83-11.05-2.62-22.2-4.87-33.09-8.04-8.19-2.38-16.2-5.14-24.73-6.44-6.46-.98-11.56-4.97-16.72-9.23-4.45-3.67-10.64-6.05-16.98-5.4-6.15.63-12.18.84-18.1-1.25-2.41-.63-4.68-1.57-6.72-3.02-1.16-.94-2.92-1.64-3.37-2.85-1.59-4.17-5.11-3.95-8.49-4.39-4.46-.59-8.71-1.83-12.39-4.58-1.36-1.02-2.85-1.09-4.52-.82-3.19.52-6.42.99-9.65,1.12-3.61.15-6.8-.87-9.23-3.95-2.26-2.86-6.83-2.05-8.52,1.29-2.66,5.26-5.29,6.71-11.08,6.13-4.01-.4-7.16,2.02-10.33,3.7-1.7.9-.61,4.13.15,5.88.79,1.82,2.31,0,3.32-.59,5.06-2.98,10.28-3.71,15.72-1.22,1.2.55,2.33.63,3.61.57,2.92-.15,6.08.07,8.14,2.1,2.52,2.48,5.18,2.31,8.19,2.13,3.61-.21,7.24-.27,10.84-.07,2.9.16,5.53,1.48,6.24,4.5.73,3.08-1.63,4.7-3.98,6.05-1.95,1.12-3.9,2.21-5.84,3.35-.96.56-1.9,1.11-2.35,2.28-2.33,6.1-7.57,9.78-13.91,9.17-2.61-.25-4.27.42-5.81,2.25-2.47,2.93-6.51,3.58-9.15,6.36-1.91,2.01-3.63,3.92-4.4,6.74-1.11,4.05-4.21,6.66-7.64,8.81-2.15,1.35-4.05,2.9-5.36,5.08-2.32,3.88-2.01,7.05.97,10.3,3.33,3.63,3.07,7.62-.9,10.62-2.93,2.22-6.23,3.86-9.14,6.22-3.68,2.99-8.16,1.01-9.71-3.48-1.12-3.24-1.25-6.89-4-9.51-1.53-1.45-2.31-1.52-3.08.63-1.04,2.93-2.11,5.88-3.53,8.63-2.73,5.26-8.61,6-12.62,1.59-1.15-1.26-2.37-1.62-3.89-1.8-3.15-.36-6.08-1.49-8.69-3.23-2.34-1.55-3.76-3.71-2.49-6.69.41-.95.77-1.85.19-2.83-.68-1.14-.49-3.04-1.98-3.4-1.47-.36-1.67,1.54-2.57,2.3-2.64,2.21-4.82,4.9-7.23,7.33-4.76,4.8-14.78,5.56-20.69,2.09-2.26-1.33-4.3-3.05-3.03-5.99,1.09-2.51-.57-3.04-2.14-3.76-1.73-.8-3.48-2.32-5.23.09-3.7,5.1-8.62,8.94-13.47,12.85-2.87,2.31-5.88,4.35-9.53,4.9-4.84.73-9.35,2.49-13.99,3.87-4.08,1.22-8.21,1-11.82-1.59-1.5-1.08-3.02-.95-4.64-.83-5.91.44-11.72.07-17.32-2.09-4.93-2.24-5.59-5.44-1.76-9.35,1.07-1.09,1.01-2.04.1-2.85-1.14-1.01-1.8.13-2.3.96-1.74,2.9-4.06,5.27-6.31,7.77-4.38,4.87-10.07,6.99-16.07,8.69-5.98,1.04-11.92,1.73-17.3-2.11-8.92,1.23-15.54-4.4-22.93-7.71-2.14-.96-4.16-2.31-5.99-3.79-2.86-2.3-4.97-5.1-3.05-9.03.67-1.38.01-2.03-.81-2.85-2.38-2.38-4.8-4.73-7.05-7.23-1.24-1.38-2.46-1.5-3.97-.72-4.33,2.24-8.94,2.7-13.77,2.68-4.09-.02-6.51,3.51-8.99,6.04-3.03,3.1-5.77,5.07-10.04,2.83-1.1-.57-1.56.18-1.97,1.02-.79,1.59-1.09,3.25-1.22,5.03-.78,10.52-9.05,14.64-17.86,9-1.25-.8-2.67-1.34-3.97-2.06-3.71-2.05-4.77-4.38-3.26-8.34.92-2.41-.07-3.96-1.34-5.86-2.37,2.14-3.26,4.61-3.74,7.54-1.83,11.13-11.65,11.71-16.65,6.42-3.64-3.86-5.87-9.19-8.12-14.15-1.1-2.42-.01-5.41.48-8.11.35-1.95,0-3.25-2.1-4.07-5.58-2.19-9.71-5.63-9.49-12.33.03-.88-.56-1.36-1.12-1.83-5.15-4.27-9.89-9.16-16.82-10.69-1.14-.25-2.48-.44-3.28-1.57-1.99-1.62-4.48-2.71-5.49-5.35-.51-1.34-.85-2.72.3-3.8,1.1-1.04,2.33-.39,3.44.21,1.31.71,2.96,1.21,3.64,2.51,2.91,5.53,8.74,6.56,13.6,9.1,9.55,5.98,17.65,13.51,23.33,23.27,2.95,5.07,2.37,11.14,3.39,16.75.15.85.05,1.75.31,2.59.68,2.15,2.13,3.41,4.42,3.29,2.33-.13,3.68-1.47,3.75-3.84.17-6.2,2.15-12,3.89-17.85.51-1.72.83-4.02,3.2-4.08,2.12-.05,2.56,2.05,3.3,3.61,2.68,5.64,4.82,11.5,6.79,17.42.51,1.54,1.02,3.08,2.08,4.37,2.37,2.89,5.9,2.98,8.41.21,1.11-1.22,1.74-2.71,2.36-4.22,4.48-10.98,8.55-22.09,11.67-33.54.36-1.32.75-2.65,1.55-3.79.72-1.02,1.45-2.26,2.91-1.96,1.57.32,1.48,1.83,1.57,3.04.3,4.27-.71,8.43-1.12,12.64-.35,3.57-1.73,6.97-1.69,10.85,2.98-2.37,5.94-4.71,8.7-7.28,2.94-2.74,6.23-4.97,9.6-7.13,2.84-1.82,5.23-1.6,7.85.47,8.96,7.08,17.2,14.95,24.03,24.02,7.3,9.69,16.86,13.54,28.54,13.46,2.87-.02,5.75-.14,8.62.02,12.37.67,24.01-12.92,20.13-26.57-2.23-7.86-6.78-14.39-11-21.14-1.46-2.33-2.87-4.68-4.04-7.16-.59-1.27-1.01-2.69,0-3.89,1.06-1.26,2.55-.97,3.82-.41,9.46,4.23,18.98,8.32,28.25,12.95,2.6,1.3,2.09,3.06.7,4.87-2.76,3.59-4.75,7.57-6.58,11.7-6.31,14.26,5.31,30.97,20.44,29.67,4.1-.35,8.24.19,12.35-.25,8.77-.94,16.46-3.84,21.77-11.45,2.87-4.1,6.84-7.27,10.06-11.06,1.88-2.21,3.63-2.54,6.16-1.11,5.87,3.31,11.93,6.28,17.78,9.63.87.5,1.74.99,2.73,1.2,2.81.59,4.28-.47,4.53-3.36.14-1.61.06-3.24.05-4.86-.1-8.6-.02-17.19.78-25.77.31-3.31,4.19-7.47,7.45-7.88,2.01-.25,2.92,1.17,3.8,2.53,3.28,5.11,4.93,10.86,6.44,16.67,1.98,7.59,3.4,15.34,6.28,22.69.68,1.74,1.33,3.49,2.31,5.1,1.34,2.2,3.11,3.52,5.82,3.29,2.66-.22,3.9-2.01,4.67-4.24,1.06-3.07,2.36-6.05,3.32-9.14,1.26-4.07,3.27-7.82,4.87-11.74.55-1.35,1.18-3.09,2.94-2.99,1.73.09,2.22,1.82,2.66,3.26,1.74,5.73,3.18,11.53,3.83,17.51.07.62.07,1.25.21,1.86.54,2.36,1.99,3.79,4.45,3.73,2.33-.05,3.52-1.45,3.9-3.76.71-4.3,1.16-8.62,1.98-12.91,1-5.28,3.42-9.58,6.98-13.38,11.25-11.98,24.32-21.78,37.75-31.15,2.02-1.41,4.24-2,6.67-2.14,1.24-.07,2.8-.29,2.85-1.84.06-1.89-1.67-1.86-3.02-2-5.09-.54-10.19-1.02-15.32-.79-2.89.13-5.27-.79-7.44-2.83-3.83-3.61-7.21-3.79-11.99-1.63-3.43,1.55-6.4,3.33-8.92,6.33-2.94,3.51-5.08,2.8-6.53-1.55-1.3-3.92-2.08-7.95-2.75-12.02-.44-2.69.46-4.67,2.82-5.95,7.25-3.91,14.54-7.76,22.26-10.7,2.59-.99,5.3-1.32,8.08-1.34,15.93-.12,31.1,3.88,46.31,8.01,17.86,4.84,35.2,11.22,52.62,17.34,25.1,8.82,50.5,16.68,75.97,24.29,17.69,5.29,35.55,10.08,53.45,14.69,14.15,3.64,28.31,7.18,42.54,10.49,17.39,4.05,34.85,7.77,52.8,8.28,3.26.09,6.58,1.59,10.46-.58-4.95-2.3-9.74-3.52-14.38-5.07-21.47-7.16-42.65-14.98-62.13-26.72-13.04-7.86-24.8-17.23-34.31-29.2-7.6-9.57-12.28-20.32-13.94-32.56-1.56-11.49.58-22.3,4.21-33.01,4.59-13.55,11.8-25.82,19.05-38.05,1.33-2.25.96-3.3-1.71-3.31-9.08-.05-17.54,2.16-25,7.55-.71.51-1.4,1.15-1.72,1.95-2.06,5.13-6.53,7.6-10.91,10.33-14.93,9.32-30.22,18.03-45.65,26.48-7.99,4.38-16.11,8.53-24.34,12.44-.79.38-1.6.69-2.44.95-2.51.75-3.49-.43-3.57-2.78-.06-1.81.58-3.41,1.34-5.01,4.16-8.78,11.46-14.64,19-20.25,7.62-5.68,16.38-9.69,23.93-15.36,11.16-8.38,23.59-14.45,35.74-20.98,20.02-10.76,39.46-22.54,59.18-33.8,11.2-6.4,22.43-12.55,34.78-16.43,2.42-.76,4.84-1.29,7.36-.94,3.63.51,4.52,2.38,2.53,5.41-1.6,2.43-3.8,4.37-6.14,5.98-10.6,7.32-21.54,14.05-33.97,17.93-2.75.86-5.42,1.91-7.91,3.37-.73.43-1.81.82-1.56,1.85.3,1.24,1.57,1.14,2.5,1.04,3.85-.43,7.69-.98,11.45-1.91,13.22-3.26,26.36-6.79,39.19-11.38,5.41-1.93,10.66-4.26,16.05-6.24,3.29-1.21,4.37-.69,4.88,2.77.76,5.17-.9,10.13-1.98,15.09-1.25,5.72-3.43,11.2-4.96,16.86-1.73,6.41.54,9.48,7.34,9.6,4.65.08,9.17-1.18,13.62-2.37,17-4.55,33.16-11.02,47.34-21.72,2.81-2.12,5.27-4.55,7.07-7.63,3.18-5.43,2.31-10.73-2.73-14.97-4.43-3.73-9.5-6.43-14.82-8.67-3.11-1.31-6.12-2.82-9.26-4.06-1.12-.44-2.67-.79-2.67-2.28,0-1.74,1.73-1.96,2.97-2.36,7.6-2.49,15.4-4.27,23.13-6.28,20.66-5.37,41.5-10.01,62.2-15.23,9.81-2.47,19.56-5.21,28.66-9.78,1.5-.75,3.93-1.44,3.52-3.34-.48-2.24-3.07-1.7-4.84-1.67-15.96.29-31.89,1.57-47.84,1.99-13.97.37-27.94.49-41.93-.25-11.61-.61-23.16-1.48-34.63-3.32-9.23-1.48-18.47-2.93-27.5-5.41-1.17-.93-2.53-1.62-3.66-2.57-1.33-1.12-1.31-2.81.4-3.17,2.85-.6,5.23-2.34,8.06-2.81,1.81-.3,3.71-.22,2.07,2.38-.99,1.58-.25,2.13.91,2.91,2.46,1.65,5.35,1.86,7.89,1.22,7.1-1.78,14.02-1.09,20.98.43Z"/>
      <path class="cls-69" d="m146.08,161.23c-1.58.68-3.15,1.36-5.34,2.31,4.23,3.27,8.08,6.31,12,9.26,8.77,6.6,17.08,13.7,24.13,22.17,2.82,3.38,3.39,7.43,3.21,11.54-.13,3.1-2.83,4.19-5.42,4.91-5.33,1.47-10.65.56-15.94-.37-6.77-1.19-13.24-3.47-19.76-5.58-4.19-1.35-4.51-1.15-4.37,3.13.11,3.55-1.74,5.22-4.9,5.97-5.39,1.28-10.69.4-15.89-.89-21.73-5.38-41.83-14.47-60.49-26.8-3.04-1.57-5.24-4.14-7.48-6.58-2.41-2.62-1.77-4.86,1.42-6.4,4.41-2.13,8.75-.28,13.09.17,5.77.59,11.1,3.29,17.3,3.84-2.47-2.99-5.73-4.21-8.58-6-16.2-9.96-31.15-21.48-44.09-35.46-2.36-2.55-4.43-5.42-5.38-8.86-1.23-4.46.4-7.48,4.8-9.05,5.76-2.05,11.6-1.05,17.4-.31,16.46,2.12,31.33,8.9,46.12,15.88,1.01.48,2.03.95,3.07,1.38.19.08.46-.01,1.03-.05-2.58-2.9-5.08-5.59-7.44-8.39-1.01-1.2-2.32-2.62-1.38-4.32.96-1.75,2.92-1.31,4.43-1.06,7.85,1.25,15.04,4.46,22.12,7.86,8.44,4.06,16.56,8.68,23.72,14.81.87.75,1.76,1.35,2.91,1.51,3.84,2.56,6.72,6.03,9.12,9.88,1.03,1.64,1.61,3.57.6,5.55Z"/>
      <path class="cls-69" d="m1324.63,171.41c2.53-.4,4.39-2.05,6.31-3.5,4.63-3.5,9.17-7.11,13.63-10.58-.23-1.34-1.1-1.16-1.78-1.36-2.98-.87-3.69-2.87-2.3-5.44,1.05-1.94,2.48-3.68,3.82-5.45.72-.95,1.92-1.59,1.83-3.03,2.57-.34,3.9-2.52,5.67-3.96,12.48-10.05,26.5-17.17,41.7-22.07,1.9-.61,3.82-1.12,5.86-1.07,1.26.03,2.59-.1,3.29,1.23.67,1.29,0,2.5-.76,3.42-2.58,3.1-5.29,6.09-7.67,9.54,6.2-2.8,12.39-5.64,18.61-8.38,12.29-5.41,25.03-9.12,38.53-9.93,2.89-.17,5.74-.09,8.53.63,6.71,1.72,8.62,6.41,5.13,12.44-3.99,6.91-9.78,12.2-15.74,17.33-12,10.33-24.49,19.98-38.43,27.63-1.17.67-2.26,1.43-3.12,2.51,1.71.39,3.22-.25,4.76-.7,7.83-2.27,15.65-4.58,23.99-3.76,1.96.19,3.89.5,4.69,2.41.91,2.17-.67,3.71-2.01,5.22-2.16,2.44-4.74,4.38-7.32,6.31-20.19,12.7-41.49,22.74-65.11,27.24-3.69.7-7.42.85-11.11-.3-3.12-.97-4.99-2.73-4.32-6.27.67-3.55-1.09-3.8-3.84-2.88-7.92,2.63-15.81,5.39-24.16,6.47-3.48.45-6.98.73-10.44.13-2.52-.43-5.27-.8-6.33-3.8-1.48-2.06-.61-4.13,0-6.19.06-.36.11-.72.17-1.08.99-3.17,2.92-5.76,5.02-8.25,2.59-4.42,6.72-7.35,10.33-10.8,1.05-1,3.31-1.41,2.55-3.72Z"/>
      <path class="cls-2" d="m156.75,127.49c1.47-2.55,4.51-2.36,7.16-4.09-4.24-1.61-7.62-3.79-12.41-2.79-7.99,1.67-15.68.45-22.12-5.2-1.18-1.04-2.59-1.46-4.04-1.85-7.05-1.91-13.88-4.32-21.49-4.13-10.45.25-19.9-4.17-29.27-8.29-2-.88-3.89-1.45-6.1-1.2-3.7.43-6.97-.55-9.31-3.63-.83-1.09-2.04-1.4-3.13-1.94-1.82-.91-3.49-2.01-4.62-3.7-1.55-2.31-2.89-4.8-1.57-7.68,1.36-2.97,4.03-3.98,7.07-4.03,3.75-.07,7.55-.06,11.14,1.04,3.82,1.17,7.4.8,10.95-.65,8.13-3.32,16.27-2.53,24.12.53,10.36,4.03,20.87,4.17,31.61,2.52,3.1-.48,6.12-1.22,9.07-2.26,5.93-2.09,11.91-1.86,18.09-1.19,9.06.98,18.16.52,27.16-1.17.9-.17,1.87-.39,2.09-1.32.59-2.49,2.76-3.37,4.56-4.67-.45-1.63-1.96-1.68-3-1.79-5.65-.64-10.8-2.94-16.14-4.59-1.98-.61-3.91-.64-5.91-.64-7.18.01-13.64-1.59-19.34-6.51-3.39-2.93-8.38-2.91-12.64-4.21-3.08-.94-6.28-1.62-9.6-1.32-1.78.16-3.95,0-4.8-1.51-1.7-3-4.41-2.75-7.08-3.09-11.41-1.43-22.69-3.45-33.36-7.98-1.83-.78-3.64-.54-5.51-.39-11.13.87-21.88-.52-32.13-5.24-3.46-1.6-5.08-5.37-8.02-6.92-2.95-1.55-7.09-.4-10.46-2.13-1.71-.87-3.56-1.78-4.35-3.4-1.6-3.32-4.19-3.54-7.39-3.61-5.58-.13-10.5-2.24-14.09-6.66C-1.81,7.22.09,2.59,5.98,1.95c6.28-.68,12.45.43,18.55,1.79,3.5.78,6.4,1.67,9.83-1.51C37.88-1.03,43.11,0,47.67.9c7.83,1.56,14.75,5.32,21.45,9.47,4.13,2.56,8,4.36,13.26,2.38,3.96-1.49,8.36-.08,12.29,1.77,8.83,3.32,17.84,6.04,26.99,8.3h-.02c1.27,1.01,3.04.71,4.54,1.75-.6,1.56-1.98,1.44-3.21,1.6-8.92-1.11-17.63-3.37-26.44-5.06-23.4-4.49-46.59-10.09-70.25-13.2-4.69-.62-9.39-1.45-14.16-1.11-.86.06-2.01-.07-2.33.83-.46,1.26.85,1.62,1.64,2.12,6.64,4.2,14.22,6.06,21.57,8.41,35.44,11.32,71.43,20.77,107.25,30.76,25.24,7.04,50.54,13.87,75.71,21.16,1.8.52,3.59,1.07,5.33,1.76,1.25.5,3.03.9,2.88,2.48-.12,1.25-1.81,1.55-3.03,1.82-3.29.73-6.58,1.48-9.89,2.12-16.54,3.2-33.08,6.58-49.92,7.59-18.67,1.11-37.39,1.77-56.1.35-6.71-.51-13.45-.27-20.19-.65-7.46-.42-14.92-1.33-22.42-.98-.75.03-1.5-.05-2.25.03-1.68.17-4.1-.34-4.51,1.68-.4,1.98,1.98,2.59,3.48,3.34,7.97,3.97,16.39,6.66,25.02,8.81,28.7,7.17,57.58,13.6,86.11,21.46,2.11.58,5.38.63,5.65,2.89.3,2.51-3.06,2.87-4.99,3.7-4.8,2.07-9.48,4.44-14.41,6.21-1.17.05-2.34-.18-2.79-1.32-.51-1.3.85-1.84,1.51-2.63.39-.46,1-.71,1.33-1.25Z"/>
      <path class="cls-57" d="m382.5,317.88c-6.22,4.34-12.7,7.48-20.51,4.48-1.48-.57-2.66.21-3.92.71-9.31,3.7-17.42,9.67-26.41,13.98-4.06,1.95-8.25,3.6-12.82,3.84-3.34.18-6.55-.27-8.7-3.24-1.05-1.45-2.24-1.19-3.63-.75-3.47,1.1-6.69,2.69-9.75,4.66-5.83,3.77-12.13,6.34-19.06,7.29-3.09.42-6.01.11-8.42-2.06-1.27-1.14-2.65-1.1-4.19-.87-7.46,1.11-14.51,3.57-21.46,6.36-12.73,5.1-25.82,6.21-39.24,3.59-1.09-.21-2.15-.66-3.15-1.14-4.73-2.28-5.18-6.5-.94-9.63,5.15-3.79,10.72-7.1,16.92-8.54,6.73-1.56,12.97-4.11,19.28-6.76,7.81-3.27,15.87-5.98,23.89-8.73,3.52-1.21,6.32-3.19,7.81-6.49,2.72-6.02,7.81-8.27,13.75-9.71,4.8-1.16,10-.51,14.44-3.38,2.23-1.45,3.8-3.21,4.13-5.88.97-7.79,5.8-12.5,12.66-15.29,2.95-1.2,4.05-2.98,3.84-5.96-.08-1.11-.19-2.3.13-3.33.86-2.74.37-4.95-.92-7.63-2.23-4.64.21-8.91,3.5-12.11,3.03-2.94,4.72-4.84.56-8.43-3.39-2.93-3.73-7.5-2.75-11.85.57-2.54,1.55-4.98,2.35-7.47.87-2.72.72-4.91-1.98-6.82-5.91-4.19-8.3-10.29-7.57-17.28.4-3.84-1.1-5.81-4.13-7.34-3.88-1.98-6.64-4.8-7.07-9.39-.37-4.01,1.07-6.04,5.25-7.21,3.84-.72,7.58-.56,11.12,1.26.7.36,1.93.44,1.56,1.62-.3.93-1.37.96-2.22.94-2.38-.05-4.87-1.44-7.02.69-1,1.15-.68,2.17.05,3.38,6.89,11.43,13.54,23.01,18.22,35.56,5.65,15.17,7.97,30.61,3.01,46.49-2.91,9.3-7.84,17.45-14.1,24.87-14.78,17.52-34.07,28.62-54.54,37.95-15.8,7.2-32.21,12.84-48.81,17.95-1.19.37-2.39.73-3.51,1.3-.44.23-.89.46-1.31,1.31,2.05,1.15,4.28.91,6.4.76,15.57-1.13,31.04-3.04,46.27-6.51,19.6-4.46,39.07-9.43,58.54-14.41,21.89-5.61,43.55-12.05,65.2-18.5,1.31-.39,2.64-.78,4.04-.73,1.46.33,3.01.8,1.08,2.43-2.17,1.83-3.56,4.37-5.87,6.03Z"/>
      <path class="cls-8" d="m770.07,102.46c-3.79,5.98-7.62,11.94-11.36,17.96-.95,1.52-2.26,1.36-3.6,1.16-11.4-1.72-22.37.45-33.17,3.75-2.38.73-4.19.59-6.27-.79-4.85-3.22-10.13-5.79-14.72-9.44-.59-1.58-.81-3.54-3.28-3.2-.12.02-.32,0-.36-.06-1.97-3.73-6.47-3.27-9.28-5.61-2.41-2.02.8-3.47.98-3.39,4.42,1.81,6.98-2.63,10.68-3.08,1.11-.14,2.09-.31,3.24-.04,2.19.5,3.92-.11,6.08-1.38,3.62-2.13,8.16-2.89,12.4-1.35,1.73.63,2.98,1.01,4.34-.37.26-.26.74-.73.84-.66,3.02,1.85,7.04-1.15,9.4,1.13,4.17,4.02,8.99,2.65,13.67,2.89,1.79.09,3.5-.69,5.43.2,1.23.57,2.89-.34,4.05-1.37.46-.41.79-1.29,1.23-1.33,4.29-.38,8.25-2.37,12.53-2.95.42,2.1-.63,3.1-1.81,3.7-2.14,1.1-2.1,2.5-1.03,4.26Z"/>
      <path class="cls-38" d="m1303.85,75.96c-8.8-.49-17.58-.69-26.36.38-2.1.26-3.04-1.84-4.38-2.91-1.69-1.35,1.3-2.02.91-3.68-3.73-.42-6.46,3.03-10.2,2.96-.89-.02-.52,1.28.45,1.82,1.18.65,2.28,1.46,3.41,2.2-3.98,1.8-7.6-.02-11.02-1.53-2.32-1.02-.34-2.28.79-2.77,3.09-1.34,6.35-2.27,9.58-3.22,17.84-5.27,35.79-10.15,53.74-15.04,22.53-6.14,45.01-12.44,67.47-18.83,11.53-3.28,23.19-6.14,34.6-9.8,14.13-4.54,28.72-7.71,42.25-14.05,1.75-.82,4.87-1.32,4.52-3.22-.46-2.44-3.57-1.55-5.51-1.46-9.12.4-18.1,2.02-27.07,3.56-17.1,2.95-34.03,6.78-51.06,10.06-3.3.64-6.6,1.37-9.89,2.1-1.43.31-2.94.89-4.22-.44,3-2.34,6.83-1.68,10.18-2.83,1.82-.62,3.49-1.14,4.1-3.19,4.09,1.82,7.47-.12,10.96-1.92,8.99-4.61,18.03-7.63,28.66-5.67,6.35,1.17,12.94-2,19.41-3.27,7.34-1.44,14.66-2.93,22.12-3.6,3.11-.28,6.25-.38,9.05,1.42,2.69,1.73,3.69,4.73,1.4,6.55-8.54,6.8-16.39,15.82-28.73,14.36-7.92-.93-14.62,2.04-21.72,4.08-1.58.45-2.74,1.41-3.92,2.64-6.31,6.56-13.99,9.35-23.05,7.5-1.73-.35-3.11-.16-4.62.65-4.28,2.28-8.57,4.56-12.96,6.64-6.58,3.11-13.37,3.84-20.73,2.91-5.76-.73-11.63.99-16.36,4.85-5.38,4.39-11.56,5.95-18.19,4.82-3.35-.57-6.07-.24-8.77,1.58-1.92,1.17-3.98,2.06-6.04,2.95-5.64,2.53-11.34,4.59-17.55,1.91-1-.43-1.91-.19-2.88.14-5.67,1.87-11.17,4.16-16.57,6.68-.71.33-1.92.53-1.65,1.62.14.54,1.05,1.1,1.7,1.25,2.87.66,5.68,1.67,8.74.45,6.65-2.66,13.12-1.62,19.42,1.35Z"/>
      <path class="cls-38" d="m302.81,160.66c-2.75-.2-3.5-4.43-6.91-3.53,2.04,5.09.07,7.8-5.5,7.64-1.48-.04-2.99-.24-4.42-.62-5.66-1.51-11.34-2.4-17.26-1.93-3.6.29-7.19-.25-10.02-2.96-.84-1.38-3.59-1.99-2.7-3.82.82-1.68,2.89-.07,4.42-.03.37,0,.74,0,1.11-.04,4.18,0,8.04,1.59,12.03,2.51,4.26.98,8.53,1.85,12.88,2.17,1.05.08,2.56.14,2.78-1.21.18-1.08-1.17-1.49-2.04-1.9-2.93-1.39-6.02-2.36-9.07-3.48-12.83-4.72-24.75-11.06-35.2-19.97-1.63-1.39-2.92-3.06-4.12-4.8-1.03-1.49-.84-2.81.86-3.72,3-1.61,10.63-.25,13.03,2.33.25.27.28.68.25,1.06-1.21,1.42-3.04.7-4.87,1.34,1.21,1.08,2.57,1.15,3.76,1.5,4.07,1.21,7.61,2.99,9.27,7.29.68,1.76,2.35,2.47,4,3.09,2.2.83,4.51,1.4,6.62,2.48,5.05,1.24,10.19,2.23,14.63,5.18-3.31-2.3-7.52-2.86-10.7-5.41-2.49-2.33-5.41-3.6-8.74-4.51-4.55-1.23-8.68-3.49-10.16-8.58,1.46-2.64,3.51-1.23,5.17-.52,5.26,2.28,10.4,4.83,15.38,7.69,15.79,9.04,31.34,18.48,47.21,27.4,16.08,9.04,32.85,16.94,48.24,27.08,9.56,6.29,19.59,11.85,28.84,18.6,1.41,1.03,2.88,1.99,3.92,3.44,2.05,2.31,4.67,4.05,6.68,6.41.85,1,2.17,1.76,1.87,3.4-.29.23-.62.36-.98.4-2.97-1.15-6.12-1.69-9.13-2.68-.33-.12-.64-.28-.94-.45-2.56-1.68-5-3.47-6.03-6.56-.44-1.31-1.53-1.8-2.78-2.05-1.61-.51-2.94-1.45-4.15-2.59-2.03-2.34-4.51-3.53-7.64-4.16-8.99-1.8-17.08-5.39-22.49-13.34-.99-1.46-2.53-1.92-4.12-2.32-4.88-1.24-9.38-2.79-12.29-7.59-1.44-2.38-4.68-3.14-7.44-3.95-1.18-.35-2.48-.32-3.55-1.05-1.97-1.05-4.01-1.96-6.08-2.82-1.27-.53-2.5-1.17-3.34-2.31-5.05-6.89-12.5-9.76-20.28-12.09Z"/>
      <path class="cls-59" d="m546.61,318.46c-3.24-1.49-6.49-2.93-9.7-4.48-1.36-.66-2.58-1.65-2.99-3.16-.82-3.02-3.8-3.37-5.87-4.76-1.17-.79-1.68.45-1.68,1.58,0,2.03,1.16,3.46,2.54,4.78.87.83,2.35,1.02,2.63,2.47-3.71-1.22-6.25-3.62-6.7-7.57-.26-2.25-1.5-2.9-3.36-3.21-2.94-.5-5.89-1.07-8.55-2.47-2.12-1.11-4.15-2.48-4.12-5.25.03-2.78,1.99-4.3,4.27-5.05,2.91-.96,5.09-2.52,7.15-4.85,3.24-3.67,10.1-3.84,16.01-1.02-1.23,1.36-2.75.89-4.2.63-4.71-.86-8.98-.53-11.9,3.96-1.13,1.74-3.2,1.77-4.88,2.51-1.92.84-3.58,2.03-3.43,4.39.14,2.3,2.08,2.74,4,3.51-.4-1.4-1.5-1.97-1.85-3.05-.84-2.6,1.09-5.41,4.04-5.25,5.69.32,10.45-3.14,15.92-3.59,1.81-.15,1.48-2.08,2.22-3.13,2.18.64,4.3.56,6.57.15,7.32-1.33,14.08.65,20.6,3.89,1.06.53,2.49,2.3,3.47.62,1.07-1.82-1.17-2.05-2.26-2.61-2.87-1.48-4.73-3.69-4.96-6.96-.2-2.84-1.59-4.13-4.4-4.49-3.63-.45-6.91-1.94-10.05-3.85-4.62-2.81-15.62-1.64-20.18,1.38-6.71,4.44-14.19,7.66-22.17,4.81-3.51-1.25-6.29-1.1-9.58-.5-3.54.64-6.19,2.21-8.86,4.73-7.58,7.15-16.18,12.16-27.33,9.58-5.71-1.32-10.01,1.92-14.43,4.67-4.15,1.54-8.22,3.54-12.86,2.5-1.15-.26-2.56-.07-3.22-1.45.33-1.3,1.49-1.55,2.52-1.97,13.2-5.36,26.81-9.59,40.3-14.11,13.25-4.44,26.47-9.05,40.18-11.99,8.9-1.91,17.81-3.74,26.98-4.05,6.01-.2,11.62.89,17.09,3.33,5.71,2.55,11.28,5.34,16.78,8.3,2.83,1.52,3.9,3.75,3.33,6.79-.71,3.8-1.45,7.6-2.72,11.26-1.01,2.9-2.19,3.35-4.73,1.66-3.01-2.01-5.87-4.24-8.91-6.21-3.09-2-6.29-2.54-9.99-1.93-8.77,1.44-17.18,4.35-25.9,5.98-1.03.19-2.56.24-2.66,1.58-.1,1.31,1.39,1.62,2.36,2.09,8.78,4.18,16.02,10.56,23.58,16.48,1.05.82,2.26,1.68,1.9,3.35Z"/>
      <path class="cls-34" d="m214.39,230.55c10.48.56,19.8,4.63,28.83,9.56,1.92,1.05,3.47,2.69,4.83-.91.96-2.55,3.95-2.62,6.26-2.02,9.33,2.42,16.83,7.47,21.35,16.19,2.16,4.18-.56,7.91-5.49,7.93-3.95.02-3.96.03-2.16,3.7.11.22.25.43.36.65,4.4,9.02.15,15.59-10.04,15.33-6.35-.16-12.19-2.46-17.92-4.94-13.23-5.73-25.88-12.39-35.5-23.53-2.79-3.23-5.02-6.83-5.64-11.19-.67-4.75,1.01-7.56,5.55-9.26,3.07-1.15,6.28-1.54,9.57-1.52Z"/>
      <path class="cls-37" d="m1217.46,259.37c.6-1.35,1.19-2.7,1.86-4.22-1.5-.88-3-.25-4.4-.38-4.41-.4-6.78-4.05-4.73-7.95,4.56-8.65,11.92-13.88,21.35-16.11,2.91-.69,5.75-.29,7,3.23.73,2.06,1.94.79,2.93.22,6.39-3.71,13.15-6.53,20.24-8.59,5.99-1.74,12.01-2.21,18.06-.39,6.37,1.91,8.31,5.71,6.2,11.96-2.87,8.48-9.26,14.05-16.18,19.01-10.61,7.58-22.19,13.36-34.7,17.1-6.62,1.98-13.08,2.08-18.41-3.39-2.12-3.67-.88-7.09.78-10.48Z"/>
      <path class="cls-11" d="m156.75,127.49c-.47.68-.83,1.49-1.44,2.01-1.8,1.53-.61,2.08.75,2.65.26,1.5-1.08,1.8-1.9,2.44-1.67,1.31-3.45,2.48-4.99,3.94-5.55,5.28-5.77,11.4-.7,17.19,5.02,5.73,11.23,9.85,17.86,13.42,7.82,4.21,16.02,7.55,24.44,10.36,1.65.55,3.37.97,4.81,2.03,2.33,1.74,5.18,1.61,7.84,2.17.4.05.78.14,1.16.26,3.76,1.37,7.88,1.45,11.59,3.06-3.89,1.5-7.65.69-11.33-.17-2.14-.5-4.12-.46-6.23-.08-5.64,1-10.88.31-15.3-3.8-1.17-1.08-2.44-2.13-4.05-2.6-5.25-1.53-10.49-3.11-15.07-6.25-6.78-3.25-13.14-7.09-18.09-12.9.07-4.3-2.56-7.24-5.18-10.17-1.55-1.73-3.56-3.05-4.54-5.26,1.08-3.6,3.36-6.56,6.52-8.19,5.19-2.69,9.39-6.55,13.87-10.11Z"/>
      <path class="cls-51" d="m302.81,160.66c7.34.76,13.6,4.24,18.55,9.25,2.85,2.89,5.64,4.99,9.42,6.06.78.22,1.8.21,2.13,1.26-.03.55.22.96.73,1.15,4.56,1.71,7.01,5.33,8.74,9.6,2.44,6.01,6.82,9.71,13.27,10.54,7.07.91,13.11,3.65,17.8,9.08,1.54,1.78,3.05,3.64,2.72,6.27-.31.79-.94,1.16-1.74,1.29-3.48-.06-5.91-2.49-8.74-3.96-6.64-3.44-12.87-7.59-19.19-11.57-1.04-.65-2.16-1.3-2.5-2.64-.09-.49.38-.03.05-.34-3.48-3.26-4.14-8.22-7.16-11.75-2.71-3.4-5.9-5.84-10.57-5.36-1.61-.02-2.44,1.52-3.83,1.94-5.26-.53-10.56-.66-15.7-2.06,2.88-3.47,6.49-.49,10-1.03-3.78-3.36-8.17-2.74-12.39-2.89,3.84-1.85,7.69-.96,11.1.77,4.09,2.08,7.97,2.27,11.71.67-6.51-7.52-14.65-13.13-24.39-16.29Z"/>
      <path class="cls-92" d="m426.66,297.57c3.97,2.31,8.02,1.76,12.05.23,1.26-.48,2.41-1.28,3.86-.96-4.04,2.96-8.63,3.77-13.43,2.96-2.44-.41-3.81.32-5.4,2.11-7.63,8.63-17.13,12.05-28.52,9.36-3.09-.73-5.56-.04-7.74,2.28-1.5,1.6-2.75,3.56-5,4.33,1.69-2.31,3.1-4.83,5.62-6.46,1.12-.72.32-1.07-.5-1.22.4-2.2,2.42-2.38,3.95-2.78,10.33-2.7,20.26-6.64,30.51-9.57,1.48-.42,2.97-1.48,4.58-.29Z"/>
      <path class="cls-6" d="m219.54,300.64c-5.86.2-11.03-1.68-15.64-5.21-1.92-1.47-4-3.1-3.35-5.77.7-2.86,3.43-3.55,5.94-3.67,7.11-.34,13.51,1.97,19.25,6.01,1.69,1.19,3.43,2.91,2.68,5.32-.73,2.35-3.03,2.76-5.15,3.09-1.23.19-2.49.16-3.73.23Z"/>
      <path class="cls-7" d="m1266.32,294.33c-1.11-.13-2.22-.25-3.34-.38-2.4-.29-4.97-.64-5.62-3.43-.59-2.55,1.29-4.31,3.16-5.49,5.88-3.72,12.22-6.17,19.37-5.59,2.32.19,4.63.99,5.4,3.36.81,2.49-1.03,4.17-2.78,5.65-4.67,3.94-10.11,5.74-16.19,5.88Z"/>
      <path class="cls-54" d="m1222.53,215.82c-3.27-.02-4.1-1.46-3.55-3.9.51-2.28,2.14-3.91,3.58-5.6,5.28-6.21,11.22-11.64,18.89-14.8,1.24-.51,2.63-.88,3.96-.9,2.65-.03,3.61,1.49,2.7,3.93-.74,1.99-1.96,3.74-3.41,5.31-5.24,5.65-10.57,11.21-17.75,14.48-1.57.71-3.29,1.11-4.42,1.48Z"/>
      <path class="cls-72" d="m264.03,213.69c1.49,2.34,4.54,4.77,2.49,7.53-2.12,2.86-5.48.76-7.82-.5-8.31-4.47-15.4-10.42-20.42-18.55-.7-1.14-1.56-2.4-.6-3.8,1.02-1.49,2.62-1.31,4.08-1.08,2.62.41,4.91,1.73,7.19,3.03,1.78,1.21,3.59,2.37,5.28,3.7h0c3.61,2.88,6.76,6.22,9.8,9.67Z"/>
      <path class="cls-15" d="m261.04,155.96c-1.66,1.35-3.1-1.21-4.84-.24.85,1.2,1.68,2.37,2.5,3.54-2.63-2.55-6.08-2.66-9.41-3.26-1.5-.27-3.17-.6-4.17-2.06,1.68-1.66,3.16.4,4.76.2-1.58.08-3.05-1.99-4.72-.18-6.45-2.55-12.85-5.22-19.36-7.61-2.68-.98-5.61-.47-7.24,1.98-1.41,2.13.57,5.5,3.5,6.93.17.19.24.39.21.59-.03.21-.07.32-.12.32-1.67.48-2.89,1.15-1.94,3.27.34.76.22,1.7-.74,2.2-.39.07-.76.02-1.12-.15-3.34-6.14-3.52-12.82-3.09-19.52.17-2.72,2.38-2.5,4.26-1.66,4.1,1.83,8.31,3.35,12.5,4.96,7.92,3.04,16.12,5.19,24.16,7.83,1.79.59,4.06.51,4.86,2.84Z"/>
      <path class="cls-99" d="m218.92,161.38c.28-.01.56-.02.85-.04,3.54,5.66,4.85,11.99,5.66,18.44,2.11-2.73,1.66-5.77.22-8.6-1.26-2.5-1.73-4.87-.62-7.46,1.53-3.56-1.09-5.46-3.04-7.63.02-.27.04-.55.06-.82,6.02,1.39,7.55,4.46,4.97,9.98-.51,1.1-1.12,2-.29,3.41,4.58,7.74,1.66,15.69-6.74,18.74-.46.17-.96.29-1.45.35-9.74,1.28-19.39-1.02-29.1-.8-7.72-5.66-17.64-7.02-25.28-12.83,3.08-.41,4.62,2.52,7.28,3.29,5.06,1.45,10.16,2.78,14.31,6.75,2.78,2.66,7.15,3.37,10.97,2.43,4.22-1.05,8.16-.24,12.15.5,2.12.39,4.16.47,6.28.1-3.79-.56-7.63-.88-11.12-2.64,1.26-1.28,2.77-.77,4.23-.59,2.35.29,4.69.81,7.05.9,5.15.18,7.95-3.21,6.76-8.19-.78-3.27-1.8-6.47-3.02-9.62-.7-1.81-1.61-3.74-.14-5.66Z"/>
      <path class="cls-42" d="m69.06,171.87c4.2,1.42,7.69,3.96,11.46,6.52-1.81,1.47-3.04.48-4.26.12-7.16-2.1-14.34-4.08-21.78-4.88-2.35-.25-4.7-.44-6.95.67-2.8,1.38-3.39,3.24-1.31,5.56,2.21,2.47,4.73,4.67,7.11,6.98-4.29-1.36-6.95-4.62-9.13-8.22-1.32-2.16-.52-4.03,1.98-5.04,3.13-1.26,6.35-1.13,9.58-.75,5.32.62,10.54,1.79,15.68,3.29,1.26.37,2.51,1.11,4.14.56-1.85-2.18-5-2.44-6.5-4.82Z"/>
      <path class="cls-94" d="m1431.87,180.85c1.69-2.67,4.79-3.85,6.71-6.32,1.24-1.6,2.86-3.14,1.89-5.27-.89-1.95-3.05-1.93-4.92-2.03-8.39-.45-16.29,1.9-24.19,4.25-2,.59-3.94,1.41-6.41,1.4,1.26-2.76,3.56-3.44,5.93-4.03-.31.52-.62,1.03-1.15,1.91,4.37-1.1,8.45-2.28,12.59-3.12,4.99-1.02,10.02-2.17,15.18-1.17,5.15,1,6.26,3.93,2.75,7.81-2.39,2.64-4.73,5.47-8.38,6.57Z"/>
      <path class="cls-14" d="m122.99,25.28c.72-.09,1.44-.18,2.28-.28-1.04-1.13-3.05-.51-3.63-2.18,1.21.23,2.42.42,3.62.69,4.04.92,7.72,1.79,12.22.33,6.78-2.19,13.67.26,20.22,2.72-3.66.15-7.05-1.24-10.59-1.81-5.32-.85-10.4-.64-15.02,2.52-3.36,1.41-6.79.65-9.09-1.99Z"/>
      <path class="cls-45" d="m715.92,376.79c.93-1.2,2.44-1.17,3.67-1.58,8.23-2.71,14.03-8.2,18.42-15.45.52-.85.79-2.99,2.44-1.52.91.81,2.15,2.16.9,3.88-3.76,5.19-3.71,5.44.91,9.44-2.43.24-3.81-1.36-4.41-3.22-.68-2.12-.67-4.45,1.48-6.07.67-.51,1.81-1.23.95-1.99-1.21-1.06-1.5.56-1.95,1.23-4.3,6.38-9.56,11.59-17.07,14.11-1.74.58-3.38,1.62-5.34,1.17Z"/>
      <path class="cls-14" d="m121.66,22.82c-5.94-.11-11.37-2.41-16.79-4.35-3.41-1.22-7.45-1.01-10.2-3.95,9.08,2.49,18.1,5.19,26.99,8.3Z"/>
      <path class="cls-96" d="m1242.17,331.96c-.89.21-1.67-.31-1.83-.95-1.61-6.2-6.57-9.04-11.65-11.79,5.5.98,9.29,4.21,11.83,9.05.62,1.19,1.11,2.45,1.66,3.68Z"/>
      <path class="cls-46" d="m1311.76,185.93c-.86,3.24-3.07,5.67-5.02,8.25-.52-4.08,1.97-6.34,5.02-8.25Z"/>
      <path class="cls-3" d="m264.03,213.69c-3.57-2.91-6.68-6.3-9.8-9.67,4.26,2.22,7.4,5.58,9.8,9.67Z"/>
      <path class="cls-74" d="m1217.46,259.37c-.72,3.46-2.21,6.86-.78,10.48-2.46-2.98-2.16-7.01.78-10.48Z"/>
      <path class="cls-22" d="m992.6,286.27c2.41.64,4.58,1.78,6.72,3.02-2.7,0-4.95-.97-6.72-3.02Z"/>
      <path class="cls-46" d="m1306.57,195.25c.02,2.06-.62,4.13,0,6.19-2.04-2.06-1.33-4.13,0-6.19Z"/>
      <path class="cls-3" d="m254.23,204.01c-2.14-.7-3.96-1.85-5.28-3.7,2.21.59,4.1,1.64,5.28,3.7Z"/>
      <path class="cls-48" d="m1312.65,62.57c1.73-1.55,3.75-2.53,6.04-2.95-1.63,1.77-3.63,2.79-6.04,2.95Z"/>
      <path class="cls-66" d="m122.99,25.28c2.87,1.42,5.96,1.81,9.09,1.99,9.62,2.02,19.22,4.09,28.85,6.04,17.22,3.48,34.44,6.98,51.69,10.28,18.72,3.59,37.5,6.94,56.03,11.43,3.51.85,6.96,1.93,10.46,2.84,2.1.54,4.01.9,3.63-2.5-.35-3.22,1.74-4.97,4.45-6.14,4.55-1.97,9.44-2.57,14.25-2.77,17.93-.73,35.66.42,52.54,7.27,4.99,2.03,9.47,4.97,13.17,8.93,4.28,4.57,3.37,8.44-2.51,10.43-5.68,1.93-11.57,1.59-17.43,1.16-5.09-.38-10.17-.8-15.25-1.21-.1.37-.2.74-.31,1.11,20.27,6.48,40.53,12.96,60.8,19.44.18-.29.36-.59.53-.88-3.27-3.85-6.76-7.54-9.24-11.97-.72-1.29-1.56-2.53-2.16-3.88-2.22-4.95-1.16-6.91,4.23-7.41,7.36-.68,14.44.62,21.04,3.95,22.77,11.51,45.38,23.34,68.28,34.59,26.02,12.78,52.28,25.09,78.46,37.55,1.18.56,2.33,1.46,4.16,1.21-.6-3.18-1.19-6.3-1.78-9.42-.14-.73-.34-1.46-.42-2.2-.74-7.14,1.3-9.07,8.49-8.01,8.91,1.31,16.51,5.25,23.03,11.4,8.61,8.13,17.15,16.35,25.91,24.33,16.62,15.14,33.63,29.82,52.1,42.71,1.42.99,2.82,2.03,4.2,3.09,1.87,1.43,4.33,1.95,2,5.71-1.7,2.76-.47,7.06.37,10.59,2.26,9.49,8.3,16.49,15.62,22.73-.86-2.67-1.75-5.32-2.59-8-1.71-5.44-1.86-11.04-1.42-16.65.23-2.98,1.75-4.53,4.96-5.47,9.08-2.64,17.67-6.76,26.78-9.38,3.95-1.14,7.94-2.22,11.76-3.72,5.29-2.07,10.06-.71,14.73,1.67,2.54,1.29,3.84,2.92,1.41,5.78-3.37,3.96-6.52,8.15-7.65,13.41-.69,3.17-1.41,6.39,1.58,8.96.44.38.76,1,.96,1.57,2.74,7.67,9.66,10.45,16.05,14.02,9.31,5.2,18.43,10.76,27.64,16.14,1.15.67,2.39,1.2,4.1,2.05-2.9-5.32-7.48-8.53-10.58-12.94-.28-.4-.74-.7-1-1.11-3.52-5.7-8.05-8.61-15.14-6.53-2.6.76-5.38-.69-7.77-2.15-2.84-1.74-3.19-3.59-.87-6.04,3.73-3.92,8.43-6.52,13.12-9.1,2.58-1.42,5.2-2.75,8.5-4.49-6.16-2.55-11.69-4.63-16.57-8.07-6.91-4.87-6.86-10.29.31-14.78,6.2-3.89,13.24-5.09,20.24-6.12,8.03-1.18,16.14-1.69,24.11.66,2.88.85,5.63,1.96,7.76,4.26,2.39,2.58,2.32,3.88-.68,5.89-3.12,2.1-6.84,2.93-10.17,4.59-.73,1.37-2.72,1.26-3.4,3.06,1.24.59,2.02-.21,2.89-.78,1.08-.71,2.15-1.85,3.48-.38l.83.57c3.52,1.8,5.03,4.69,5.7,8.6,1.62,9.57,2.99,19.24,5.73,28.54,1.79,6.08,5.66,11.34,9.02,16.73.81,1.29,2.03,1.24,3.31.65,6.24-2.88,12.28-6.14,18.28-9.47,1.91-1.06,2.14-2.86,1.96-5.49-3.83,2.64-7.19,5.11-10.6,7.49-2.26,1.58-4.52,3.12-6.93,4.44-.97.53-2.05,1.35-3.12.62-1.22-.83-.76-2.23-.61-3.45.28-2.33,1.2-4.28,3.2-5.67,1.64-1.14,2.93-2.72,4.69-3.75-2.09.35-4.3,2.27-5.96-.9-3.71-7.06-3.72-7.3.06-10.55,4.81-4.13,10.56-6.62,16.18-9.31,4.16-1.99,8.28-4.1,12.68-5.56,2.51-.83,3.59-2.39,2.79-5.16-.89-3.06.25-5.29,3.21-6.7,2.48-1.19,4.97-2.33,7.61-3.13,3.27-.98,6.38-1.13,9.87-.15,6.72,1.88,13.78,2.14,20.67,3.33,9.52,1.65,18.8,3.98,27.53,8.21,1.81.88,3.47,1.98,4.83,3.48,2.57,2.83,2.36,5.27-.75,7.56-2.55,1.87-5.6,2.74-8.45,3.98-12.84,5.54-25.86,10.62-38.96,15.53-2.32.87-3.58,2.31-4.4,4.63-2.59,7.37-3.59,15-4.34,22.7-.25,2.61.71,2.97,2.7,1.78,4.94-2.96,10.17-5.34,15.28-7.95,1.77-.91,2.75-2.4,3.7-4.07,2.04-3.59,4.09-4.46,8.07-3.37,1.81.5,3.39.27,5.08-.4,12.09-4.8,24.43-8.84,37.28-11.07,14.63-2.53,29.26-2.85,43.9.18,21.71,4.5,42.62,11.5,63.25,19.53,21.52,8.38,43.06,16.74,64.86,24.36,11.53,4.03,23.01,8.3,34.87,11.6-15.72-11.92-28.78-25.94-33.7-45.55-4.96-19.78.31-38.18,10.13-56.49-6.25,3.54-11.45,6.94-16.79,10.08-15.27,8.99-30.42,18.2-46.9,24.9-7.03,2.85-14.37,4.16-21.98,3.8-6.52-.31-8.49-2.78-7.34-9.08,1.26-6.94,5.79-11.9,10.64-16.33,11.96-10.93,25.41-20.2,40.23-26.37,12.69-5.29,24.06-12.56,35.94-19.08,18.6-10.21,36.93-20.92,55.23-31.65,10.12-5.93,20-12.28,30.66-17.24,6.45-3,12.96-5.92,19.76-8.06,6.77-2.13,13.55-2.09,20.07,1.01,4.45,2.11,5.12,5.22,2.21,9.3-.8,1.12-1.83,2.04-2.69,3.19,4.9-2.61,10.66-3.62,14.53-8.16,1.18-1.38,2.75-2.26,4.67-1.55,1.72.64,2.09,2.21,2.6,3.82,2.21,6.94-.7,13.5-1.47,20.19-.44,3.81-1.47,7.58-2.22,11.37-1.47,7.42,2.61,11.22,10.01,9.84,7.68-1.44,14.59-4.07,19.92-10.17,4.98-5.71,5.62-12.27,1.34-18.47-3.07-4.45-6.94-8.19-11.06-11.62-1.57-1.3-2.88-2.73-4.01-4.38-2.79-4.09-1.75-8.45,2.7-10.48,6.14-2.81,12.42-5.29,18.95-7,11.31-2.97,22.29-7.07,34.69-9.5-20.58.41-39.72-2.56-58.43-8.46-13.71-4.32-27.55-8.1-41.8-10.2-2.3-.34-4.68-.83-5.29-3.4-.67-2.8,1.48-4.41,3.51-5.62,5.17-3.08,10.82-5.14,16.49-7.09,21.24-7.29,42.84-13.4,61.26-18.57-8.96,1.78-21.19,4.19-33.47,6.31-10.45,1.81-20.89,3.75-31.35,5.53-21.08,3.59-41.84,8.46-62.22,14.95-3.1.99-9.78-1.83-11.33-4.64-.77-1.39-.62-2.62.51-3.73,1.29-1.25,2.03-2.82,2.64-4.47,1.39-3.8.31-5.86-3.78-6.08-11.4-.6-22.73-.06-33.74,3.31-3.61,1.11-6.86,3.01-9.46,5.85-.81.89-2.12,1.71-1.53,3.13.58,1.4,2.05,1.29,3.28,1.16,7.69-.85,15.44-.94,23.12-1.88,6.26-.77,11.12,1.71,12.94,6.56.98,2.61.5,4.51-2,6.01-5.47,3.28-11.76,4.12-17.68,5.99-17.25,5.46-34.58,10.71-51.87,16.04-13.6,4.2-27.21,8.36-40.72,12.86-3.69,1.23-7.6,1.43-11.42,2.03-.87.14-1.75.07-2.61-.15-1.58-.41-3.35-.77-3.72-2.66-.33-1.7.98-2.76,2.23-3.6,2.48-1.68,5.02-3.27,7.53-4.9,4.85-3.17,8.88-7.23,12.7-11.6-6.89,3.12-13.69,6.39-20.48,9.67-23.04,11.14-46.23,21.95-69.49,32.62-12.48,5.72-24.8,11.79-37.54,16.91-8.34,3.35-17.21,5.11-25.79,7.76-1.07.33-2.23.26-3.36.21-4.25-.21-5.72-1.74-5.95-6.02-.05-.96.34-1.98-.42-3.03-3.84,2.64-7.02,6.01-10.38,9.09-19.06,17.51-39.41,33.37-60.88,47.82-1.97,1.33-3.97,2.61-6.07,3.71-3.96,2.08-5,1.69-6.67-2.32-1.48-2.08.06-3.23,1.47-4.21,10.48-7.34,20.48-15.32,30.17-23.61,10.58-9.05,20.48-18.88,30.91-28.12,7.96-7.05,14.75-15.53,24.32-20.66,4.88-2.62,10.19-4.03,15.74-4.17,4.57-.11,6.11,1.56,5.78,6.14-.26,3.6-1.02,7.13-1.91,10.64-.22.88-1.06,2.02-.25,2.79,1.02.97,2.16-.1,3.08-.53,10.26-4.76,20.53-9.51,30.7-14.44,22.6-10.96,45.2-21.93,67.7-33.1,16.37-8.13,32.6-16.55,48.86-24.9,6.61-3.4,13.62-4.68,20.97-4.25,5.74.33,7.08,2.98,4.48,8.17-2.79,5.58-7.16,10.04-10.31,15.89,20.2-6.44,40.4-12.87,60.59-19.31-.07-.37-.14-.73-.2-1.1-4.84.38-9.69.74-14.53,1.14-5.74.47-11.46.66-17.12-.72-2.9-.71-5.62-1.73-6.25-5.02-.62-3.25,1.7-5.37,3.79-7.2,8.41-7.39,18.64-10.72,29.45-12.59,14.19-2.45,28.42-3.58,42.76-1.21,2.86.47,5.57,1.25,8.07,2.76,1.74,1.06,3.01,2.48,2.67,4.54-.63,3.86,1.33,3.79,4.06,3,9.1-2.64,18.32-4.78,27.6-6.63,36.39-7.27,72.81-14.42,109.21-21.7,11.47-2.3,22.89-4.87,34.33-7.32,9.27-1.82,18.55-3.59,27.82-5.47,20.25-4.1,40.44-8.58,61.03-10.71,2.97-.31,5.97-.52,8.94.17.98.23,2.15.29,2.48,1.38.42,1.4-.91,2.09-1.78,2.5-4.48,2.12-8.93,4.42-13.61,6.01-37.03,12.58-74.95,22.16-112.55,32.8-27.89,7.89-55.97,15.12-83.71,23.54-1.53.46-3.13.8-4.64,2.12,4.04,1.03,7.85,2.08,11.83,2.3,10.37,2.65,20.91,4.43,31.49,5.93,23.17,3.29,46.5,3.61,69.84,2.94,15.45-.44,30.89-1.5,46.33-2.22,2.24-.1,4.49.02,6.73.2,1.69.13,3.53.86,3.88,2.47.34,1.57-1.47,2.46-2.72,3.2-6.05,3.58-12.65,5.92-19.36,7.83-19.89,5.66-40.13,9.98-60.19,14.97-12.46,3.1-24.84,6.47-37.25,9.75-.83.22-1.6.68-3.09,1.33,4.06,1.79,7.56,3.45,11.15,4.88,5.82,2.32,11.19,5.41,16.12,9.23,6.5,5.03,6.96,12.65,1.28,19.25-5.63,6.55-12.99,10.81-20.52,14.64-13.49,6.87-27.58,12.12-42.65,14.44-.37.06-.73.19-1.1.24-10.09,1.26-13.68-2.88-10.61-12.52,2.64-8.29,5.57-16.49,6.39-25.24.05-.49.22-.97.26-1.47.49-5.86-.4-6.49-5.68-4.3-18.79,7.79-38.17,13.72-58.09,17.83-2.55.53-5.17.78-7.77.92-1.4.08-3.37.21-3.74-1.54-.32-1.49,1.34-2.24,2.53-2.87,3.2-1.69,6.62-2.84,10.01-4.09,13.14-4.86,25.41-11.29,35.92-20.7,1.64-1.46,4.48-3.42,3.41-5.2-1.33-2.21-4.89-1.79-7.29-1.03-5.58,1.76-11.15,3.7-16.44,6.17-19.16,8.96-36.72,20.79-55.16,31.05-17.92,9.97-36.51,18.92-53.62,30.12-14.83,9.71-31.25,17.45-43.49,30.93-3.09,3.41-5.08,7.31-6.93,11.38-.57,1.26-.98,2.94-.08,3.93,1.11,1.22,2.52-.12,3.65-.65,16.78-7.87,33.01-16.79,48.98-26.17,8.67-5.09,17.25-10.36,25.91-15.48,1.87-1.11,3.83-2.37,4.61-4.24,2.63-6.37,8.1-8.78,14-10.72,5.11-1.69,10.3-2.99,15.76-2.59,1.36.1,2.95.05,3.64,1.39.78,1.5-.62,2.45-1.45,3.53-3.9,5.04-6.31,10.95-9.36,16.47-5.48,9.92-10.01,20.25-12.48,31.42-4.72,21.41.27,40.2,14.38,56.88,16.7,19.75,38.6,31.62,61.9,41.5,14.59,6.19,29.74,10.78,44.66,16.03.7.25,1.4.52,2.08.83.71.33,1.36.85,1.29,1.66-.09.97-1.07.91-1.75,1.01-5.87.89-11.73.11-17.55-.39-16.8-1.45-33.22-5.06-49.61-8.9-30.94-7.26-61.68-15.29-92.16-24.25-27.23-8.01-54.26-16.67-81.05-26.08-22.56-7.92-45.1-16-68.59-20.9-5.86-1.22-11.79-1.9-17.72-2.67-9.49-1.24-17.96,1.7-26.17,5.93-3.75,1.94-7.48,3.93-11.25,5.83-1.77.89-2.69,2.11-2.35,4.15.78,4.66,1.72,9.27,3.03,13.82.83,2.9,2.07,3.03,3.97.9.96-1.07,2.55-1.66,2.43-3.52-.03-.4.39-1.17.68-1.21,4.69-.62,8.31-4.8,13.34-4.11,2.59.35,5.13.98,6.61,3.59.97,1.7,2.73,2.01,4.53,2.11,5.84.3,11.68.64,17.52.89,2.07.09,4.43.15,4.59,2.69.19,2.83-2.28,3.34-4.47,3.29-5.72-.13-9.26,3.9-13.23,6.89-7.91,5.98-15.67,12.16-23.31,18.5-10.23,8.49-15.53,19.01-15.79,32.27-.09,4.42-1.91,6-5.5,5.88-2.99-.11-4.65-2.24-5.04-6.15-.66-6.58-2.24-12.96-4.34-19.22-.24-.72-.55-1.4-1.67-1.87-2.2,3.38-3.53,7.24-5.04,10.97-1.72,4.26-3.16,8.65-4.76,12.96-1,2.69-2.42,4.86-5.73,5.12-3.22.25-5.16-1.38-6.54-3.97-3.67-6.88-5.3-14.42-7.11-21.92-1.89-7.83-3.73-15.7-7.86-22.78-1.32-2.27-2.56-2.77-5.01-1.16-3.15,2.08-4.77,4.24-4.81,8.36-.09,9.59-.51,19.18-.3,28.78.09,4.06-3.3,5.61-7.52,3.41-6.4-3.34-12.75-6.78-19.04-10.32-2-1.13-3.14-1.25-4.98.68-4.88,5.15-9.55,10.45-14.16,15.84-1.75,2.04-4.14,3.5-6.79,4.43-9.52,3.36-19.38,3.94-29.2,2.53-13.38-1.92-21.58-16.88-16.65-29.6,1.75-4.51,3.61-8.97,7.07-12.56,1.7-1.76,1.67-3.13-1.02-4.3-9.13-3.97-18.15-8.2-27.23-12.29-.96-.43-2.1-1.45-3.09-.49-1.09,1.06-.3,2.44.3,3.45,2.89,4.9,5.96,9.7,8.83,14.6,3.84,6.56,7.5,13.17,7,21.23-.61,9.89-8.89,19.05-18.77,20.11-8.49.91-16.91.37-25.27-1.58-6.73-1.57-10.86-6.43-14.92-11.26-7.88-9.37-16.41-18.04-25.97-25.7-1.37-1.1-2.5-1.12-4.04-.22-6.5,3.77-11.99,8.78-17.51,13.77-.55.5-1.04,1.07-1.57,1.59-.62.61-1.29,1.42-2.24.94-1.16-.59-.68-1.66-.42-2.61,1.89-6.73,2.89-13.62,3.42-20.57.12-1.53,1.26-4.2-.81-4.54-1.58-.26-2.5,2.26-3,4.13-3.29,12.4-7.77,24.38-12.59,36.25-1.28,3.16-3.01,5.79-6.96,5.72-3.95-.08-5.43-2.73-6.64-5.99-2.51-6.76-5.23-13.45-7.9-20.14-.39-.97-.54-2.45-2.06-2.23-1.21.17-1.15,1.51-1.45,2.4-2.11,6.39-4.09,12.82-4.23,19.62-.06,3.27-2.16,4.33-4.86,4.49-2.99.17-5.04-1.26-5.51-4.37-.39-2.58-.83-5.18-.87-7.78-.15-8.82-4.44-15.55-10.45-21.5-4.67-4.63-9.32-9.26-15.1-12.54-7.47-6.92-15.41-13.19-24.37-18.14-2.01-1.11-5.76-1.25-5.28-4.24.41-2.57,3.9-2,6.08-2.46,7.79-1.63,15.39-3.98,23.2-5.58,5.01-1.02,8.99-.15,12.86,2.84,2.55,1.97,5.26,3.73,7.81,5.7,1.56,1.2,2.53,1.44,3.12-.86,1.11-4.33,2.21-8.65,2.85-13.08.28-1.94-.44-2.99-2.04-3.86-7.43-4.05-14.97-7.93-22.92-10.83-5.4-1.97-11.12-1.44-16.68-.85-20.07,2.13-39.24,8.01-58.23,14.51-14.21,4.86-28.62,9.12-42.52,14.88-1.14.47-2.59.57-3.83,1.09-13.12,3.87-26.17,7.97-39.04,12.64-10.11,2.23-19.84,5.77-29.77,8.61-33.88,9.71-68.01,18.45-102.41,26.1-14.83,3.3-29.92,5.31-45.18,5.48-2.05.02-4.27.35-6.04-1.64,3.11-2.61,6.91-3.43,10.52-4.58,20.65-6.63,41.05-13.86,60.23-24.14,12.56-6.72,24.25-14.65,34.25-24.83,10.95-11.14,19.04-23.92,21.08-39.79,1.6-12.51-.81-24.51-5.09-36.21-4.37-11.95-11.17-22.69-16.98-33.92-.98-1.88-4.76-2.96-1.44-5.87,5.57-.65,10.96.63,16.39,1.5,3.76.22,6.97,1.99,10.25,3.59.31.16.59.36.87.57,2.3,2.1,4.57,4.22,5.69,7.26.74,2,2.97,2.59,4.15,4.19,3.85,3.72,8.73,5.9,13.21,8.65,5.43,3.32,10.7,6.98,16.68,9.34,1.43.64,3,.94,4.37,1.74,10.32,5.92,20.92,11.32,31.32,17.09,3.47,1.92,7.25,3.21,10.81,4.92,2.73-.41,1.37-2.3.93-3.32-3.5-8.24-9.24-14.68-16.45-19.89-5.66-5.54-12.91-8.74-19.33-13.16-21.58-14.88-45.2-26.24-67.87-39.25-15.3-8.78-30.47-17.79-45.77-26.57-3.55-2.04-7.37-3.62-11.11-5.31-1.2-.54-2.46-1.34-3.92-.65-1.85.67-3.06-.13-3.92-1.71-3.65-2.93-7.82-3.51-12.32-2.85-2.4.35-2.22,1.4-1.03,2.97,3.97,5.21,9.23,8.85,14.73,12.21,9.88,6.05,20.26,11.04,31.33,14.55,1.39.44,2.64,1.34,3.93,2.07.86.48,1.93.96,1.54,2.21-.35,1.13-1.46,1.24-2.46,1.32-5.3.44-10.36-.9-15.44-2.05-4.12-.93-8.22-1.92-12.33-2.88-9.42-3.1-18.84-6.17-28.25-9.3-4.59-1.53-9.12-3.2-13.43-5.44-2.16-1.12-3.46-1.03-3.4,1.95.13,6.22.73,12.34,2.96,18.21.18,4.58,2.49,8.56,3.68,12.87,2.37,8.61-.78,12.43-9.68,11.37-2.96-.35-5.92-.72-8.88-1.07,0,0-.27-.13-.27-.13h-.3c-2.77-.83-5.71-1.05-8.36-2.29-11.56-4.11-23.06-8.35-33.63-14.76-5.11-3.1-9.86-6.61-13.85-11.09-5.53-6.21-5.05-13.52,1.33-18.87,2.25-1.89,4.73-3.52,7.1-5.26,6.55-2.96,13.09-5.92,20.67-9.34-8.29-2.27-15.59-4.42-22.97-6.25-23.93-5.93-47.92-11.66-71.84-17.65-8.7-2.18-17.23-4.98-25.12-9.41-1.49-.84-3.58-1.68-2.93-3.75.55-1.75,2.63-2.24,4.39-2.26,4.74-.04,9.49-.11,14.22.2,24.66,1.65,49.34,2.59,74.05,1.91,25.51-.71,50.48-5.4,75.37-10.61.6-.13,1.17-.38,2.41-.8-5.27-2.32-10.29-3.55-15.23-4.93-49.53-13.91-99.08-27.77-148.62-41.64-15.11-4.23-30.17-8.59-44.73-14.5-2.4-.97-4.69-2.27-6.93-3.59-.64-.38-1.79-.77-1.61-1.83.2-1.13,1.32-1.48,2.27-1.65,1.34-.24,2.72-.36,4.08-.33,10.25.24,20.34,1.9,30.36,3.87,24.43,4.8,48.83,9.78,73.25,14.67,1.94.39,3.77,1.4,5.84,1.03Z"/>
      <path class="cls-20" d="m815.71,207.79c2.15,3.8,4.76,2.49,7.5.74,11.76-7.46,23.06-15.56,34.02-24.12,13.52-10.56,26.56-21.7,39.06-33.46,1.33-1.25,2.83-2.32,4.83-3.95,0,2.61.09,4.55-.02,6.47-.15,2.74,1.34,3.82,3.79,4.07,3.7.37,7.11-.89,10.62-1.77,17.98-4.53,34.56-12.6,51.29-20.26,19.02-8.71,37.9-17.71,56.81-26.67,12.73-6.03,25.38-12.22,38.09-18.3.94-.45,1.87-1.32,3.49-.64-3.76,5.16-8.24,9.36-13.28,12.98-2.62,1.88-5.45,3.46-8.16,5.22-1.33.86-3.3,1.76-2.85,3.48.45,1.7,2.67,1.78,4.22,1.7,4.22-.22,8.44-.7,12.5-1.98,24.01-7.53,48-15.14,72.04-22.61,10.92-3.39,21.93-6.5,32.88-9.77,1.19-.35,2.5-.66,3.43-1.39,1.45-1.15,4.41-1.17,4.05-3.77-.41-3.01-1.77-5.77-4.95-6.96-2.36-.88-4.81-1.24-7.34-1.02-7.81.68-15.62,1.35-23.43,1.99-1.89.15-3.96.31-4.88-1.81-.84-1.93,1-2.86,2.03-4,4.6-5.08,10.75-7.04,17.19-8.21,8.37-1.52,16.83-2,25.34-1.7,1.9.07,3.7.32,5.45,1.11,1.63.73,2.42,1.95,1.91,3.57-.85,2.69-1.24,5.77-3.62,7.62-2.42,1.88-.8,3.14.53,3.99,3.71,2.37,7.13,3.82,12.22,2.07,15.3-5.26,31.04-9.15,46.97-12.06,17.99-3.29,36.03-6.25,54.04-9.45,8.08-1.44,16.11-3.13,24.17-4.67,1.45-.28,2.93-.38,4.5-.26-1.24,1.4-3,1.61-4.63,2.08-22.98,6.62-46.05,12.93-68.48,21.3-3.94,1.47-8.01,2.83-11.28,5.68-1.05.91-2.19,1.87-1.71,3.45.44,1.46,1.76,2.16,3.12,2.32,18.44,2.13,35.85,8.44,53.63,13.22,14.52,3.9,29.32,5.63,44.33,5.75,1.99.02,3.98,0,6.61,0-2.3,2.28-4.88,2.29-7.11,2.9-15.62,4.22-31.33,8.18-46.34,14.33-2.49,1.02-5.76,1-6.03,5.6-.23,3.86,1.85,5.96,3.87,7.64,4.81,4.02,9.31,8.26,12.83,13.38,4.3,6.26,3.16,13.8-1.96,19.47-6.08,6.73-13.92,9.43-22.51,10.48-5.99.73-10.37-3.4-9.47-9.03,1.32-8.32,3.08-16.58,4.58-24.87.67-3.69-.56-6.65-.67-9.94-.09-2.64-3.55-2.99-5.41-.57-4.5,5.87-11.69,6.39-18.22,10.26.91-2.64,2.2-3.49,3.22-4.52,2.09-2.09,4.45-4.54,3.11-7.41-1.18-2.5-4.44-3.25-7.22-3.9-8.91-2.09-16.89.92-24.96,4.18-13.69,5.53-26.2,13.17-38.88,20.57-18.38,10.72-36.89,21.21-55.32,31.84-8.84,5.1-17.67,10.2-26.38,15.5-2.66,1.62-5.67,1.74-8.42,2.88-9.72,4.04-18.37,9.99-27.1,15.67-7.68,5-15.27,10.32-20.92,17.8-2.4,3.18-4.62,6.37-5.37,10.49-.94,5.17.36,7.18,5.75,7.57,9.19.67,17.84-1.56,26.15-5.25,15.26-6.78,29.6-15.27,43.9-23.83,5.73-3.43,11.44-6.92,17.21-10.42.84,1.68-.13,2.57-.69,3.66-6.4,12.48-10.93,25.43-11.01,39.73-.08,14.16,4.88,26.39,12.97,37.69,6.38,8.91,14.54,15.94,23.05,22.64.48.38,1.07.62,1.1,1.56-4.51-.56-8.65-2.32-12.86-3.71-23.16-7.69-46.11-16-68.89-24.77-18.15-6.98-36.13-14.4-54.75-20.07-17.16-5.22-34.47-9.96-52.63-9.63-18.14.32-35.49,4.61-52.36,11.09-2.09.8-4.18,1.62-6.2,2.57-1.53.72-2.84.34-4.29-.23-3.54-1.38-6.01-.46-7.09,3-.68,2.16-1.96,3.28-3.82,4.22-5.67,2.87-11.32,5.79-16.92,8.79-2.13,1.14-3.16,1.14-2.96-1.69.66-9.08,2.05-18,5.12-26.62.57-1.6,1.67-2.3,3.16-2.86,14.91-5.66,29.8-11.39,44.41-17.81,2.57-1.13,6.2-1.77,6.29-5.05.09-3.22-3.13-4.85-5.78-6.2-10.02-5.09-20.86-7.3-31.87-8.91-4.92-.72-10.11-.66-14.72-2.28-7.32-2.57-13.26.26-19.43,3.09-2.41,1.11-2.95,3.1-1.92,5.28,1.55,3.25.1,5.05-2.7,6.11-8.04,3.05-15.78,6.72-23.34,10.82-2.78,1.5-5.02,3.62-7.53,5.42-1.36.98-1.89,2.45-.61,3.87,1.26,1.39,2.48,2.61,2.53,4.76.04,1.5,1.39.81,2.34.64,1.79-.31,3.24-1.82,5.57-1.64-3.62,4.82-11.21,6.51-10.06,14.57,5.96-3,10.92-7.14,16.23-10.72.41-.28.71-.74,1.15-.95,1.45-.69,2.34-3.03,4.4-1.83,1.02.59-.51,6.22-1.9,6.95-6.62,3.47-13.26,6.9-19.91,10.3-1.72.88-2.98.45-3.98-1.33-2.9-5.2-6.51-10.09-8.72-15.56-1.9-4.69-2.32-10-3.26-15.06-1.11-5.95-1.93-11.97-3.2-17.89-.52-2.43-2.77-4.05-4.27-6,5.74,1.2,9.85-2.69,14.53-4.74.39-.17.34-1.34.5-2.05Z"/>
      <path class="cls-36" d="m757.5,169.93c-2.48,2.67-3.21,6.28-4.82,9.43-.84,1.66-1.41,3.45-2.18,5.14-2.24,4.91-4.1,5.19-8.43,1.64-3.84-3.15-8.49-4.78-12.83-7-.24.24-.47.49-.71.73,2.42,3.77,4.65,7.67,7.31,11.27,2.72,3.68,2.5,4.8-1.91,6.1-4.33,1.27-8.67.71-12.99.02-10.87-1.75-21.07-4.91-29-13.21-7.16-7.49-9.38-22-3.48-30.05,1.19-1.62,1.16-3,.02-5.02-7.29-12.97-14.69-25.87-23-38.22-2.32-3.45-1.03-6.19,3.09-6.94,3.52-.64,6.16,1.19,8.91,2.98,13.06,8.54,26.23,16.92,39.79,24.67,1.46.83,2.74.73,4.24.08,11.7-5.03,23.99-6.57,36.6-5.75,2.55.17,3.82-.69,5.09-2.72,5.17-8.3,10.49-16.52,15.8-24.74,1.5-2.32,3.51-4.07,6.5-3.39,2.91.66,3.05,3.16,3.33,5.6,1.11,9.83-.27,19.67.06,29.5.05,1.37.03,2.75-.15,4.11-.68,5.19.56,8.86,5.58,11.98,6.18,3.85,8.15,10.72,7.06,17.76-1.33,8.6-5.66,15.77-12.77,21.02-3.44,2.54-7.56,2.41-10.82-.2-1.08-.86-1.76-.72-2.48.21-.76.97-1.49,1.98-2.15,3.02-1.09,1.73-2.58,2.68-4.65,2.5-2.09-.18-2.96-1.7-3.45-3.45-1.49-5.3-3.97-10.2-6.08-15.24-.29-.7-.52-1.41-1.46-1.84Z"/>
      <path class="cls-17" d="m741.04,79.72c-4.84.65-8.72,2.3-12.62,3.76-1.79.67-.42,1.81.09,2.68,2.21,3.76,1.75,5.01-2.56,5.63-11.72,1.68-23.42,3.43-34.88,6.52-.83.22-1.73.23-2.6.22-1.13-.02-2.38-.07-2.85-1.33-.45-1.18.11-2.19,1.05-2.96.96-.79,1.94-1.54,2.91-2.32,1.13-.9,2.91-1.62,2.19-3.44-.7-1.74-1.92-3.07-4.25-2.91-2.73.19-5.5.14-8.24-.03-1.96-.12-4.41-.2-4.87-2.59-.42-2.19,1.72-3.06,3.36-3.97q5.37-2.95,1.63-7.65c-1.38-1.74-2.67-3.55-4-5.33-.75-1-1.71-1.98-.48-3.26,1.15-1.2,2.5-1,3.78-.34.76.39,1.41,1.01,2.09,1.55,6.25,4.97,13.23,7.85,21.35,7.54,1-.04,2,.01,3-.01,1.73-.04,3.6.19,3.73,2.2.13,2.11-1.89,2.23-3.5,2.52-3.67.67-7.34,1.37-10.99,2.12-.89.18-2.06.15-2.24,1.98,5.46.49,10.86.28,16.26-.1.99-.07,1.98-.27,2.97-.36q5.73-.53,2.83-5.29c-.84-1.37-1.76-2.7-2.66-4.03-1.67-2.46-.95-4.83,1.86-4.67,9,.5,17.98-.88,26.95-.13,4.54.38,5.1,3.27,1.54,7.86,1.99-.17,3.77-.44,5.55-.46,2-.02,4.29-.04,5.07,2.25.76,2.24-1.23,3.39-2.73,4.39-2.51,1.68-4.07,3.87-4.95,6.73-.88,2.86.07,3.5,2.9,3.26,4.84-.4,7.93-2.16,9.02-7.39,1.06-5.08,2.75-10.07,5.06-14.79,1.9-3.88,3.58-4.39,7.25-2.19,5.54,3.32,11.13,6.56,16.68,9.86,2.05,1.22,4.09,2.28,6.6,2.3,1.65.02,3,.93,2.94,2.74-.08,2-1.63,2.67-3.4,2.71-2.18.05-4.1-.88-6.03-1.78-5.41-2.54-10.46-5.71-15.51-8.86-2.26-1.41-3.59-1.13-4.35,1.6-.83,2.99-1.87,5.94-2.91,8.87-.61,1.71-.08,2.36,1.65,2.12,3.84-.54,7.67-.63,11.49.2,1.28.28,2.03-.52,2.91-1.25,1.34-1.12,2.9-1.47,4.5-.45,1.37.88,1.57,2.25,1.17,3.64-.48,1.67-1.06,3.41-3.16,3.74-.73.11-1.54.21-2.23.01-8.37-2.36-16.23.54-24.21,2.27-2.91.63-5.84,1.41-8.8,1.58-7.17.41-10.23-4.29-7.32-10.93.49-1.12,1.07-2.19,1.97-4.05Z"/>
      <path class="cls-70" d="m739.92,226.71c-.27-4.17,1.92-6.12,3.99-8.11.61-.59,1.5-.67,1.95.07,2.11,3.48,5.81,4.51,9.15,6.09,1.4.66,2.19,1.46.71,2.69-1.92,1.59-1.26,5-3.54,5.84-2.35.87-3.43-2.51-5.69-2.89-1.1-.19-2.19-.71-3.27-.69-2.83.06-3.18-1.83-3.31-3.01Z"/>
      <path class="cls-95" d="m672.36,70.7c-.08,1.24-.95,1.63-2.03,1.2-2.22-.88-3.56.35-5.32,1.43-2.92,1.79-6.05,3.47-9.68,3.55-1.64.03-3.19-.47-3.48-2.13-.28-1.64,1.34-2.18,2.62-2.66.81-.3,1.71-.39,2.5-.72,2.08-.88,4.88-1.37,2-4.6-1.39-1.56-.56-3.04,1.32-3.76,2.18-.83,11.8,5.23,12.07,7.69Z"/>
      <path class="cls-49" d="m746.87,202.45c3.95-1.79,3.93-1.77.83-4.42-1.09-.94-2.4-1.72-3.5-4.24,6.57,4.77,7.76-.69,10.15-3.85.56-.74.79-2.07,2.02-1.81.95.2.9,1.39,1.24,2.17q3.05,7.11-4,10.65-4.42,2.22-6.74,1.51Z"/>
      <path class="cls-19" d="m368.79,81.3c-2.69-1.06-5.7-2.21-8.69-3.43-.41-.17-.84-.59-.49-1.2.35-.61.96-.72,1.58-.83,3.68-.64,7.37-1.24,11.03-1.96,1.5-.29,2.02.66,1.73,1.61-.5,1.62,2.53,3.59-.42,4.78-1.36.55-2.91.64-4.75,1.02Z"/>
      <path class="cls-83" d="m787.33,70.68c-1.04-.25-1.94-.42-2.34-1.31-.39-.86-.22-1.76.39-2.44,2.58-2.9,5.71-5.1,9.16-6.83,1.37-.68,2.8-.28,3.61,1.03.98,1.58-.21,2.68-1.39,3.33-2.74,1.49-5.31,3.16-7.63,5.26-.52.47-1.28.69-1.81.97Z"/>
      <path class="cls-18" d="m1116.04,77.86c-4.23,1.23-8.46,2.46-13.58,3.96,1.2-2.5,2.15-4.38,3-6.3.49-1.12,1.26-1.09,2.09-.64,2.63,1.41,5.6,1.67,8.49,2.99Z"/>
      <path class="cls-5" d="m772.31,82.09c-.75-.05-1.49-.06-2.24-.13-1.04-.1-2.67.32-2.66-1.19,0-1.41.59-2.98,1.37-4.18.86-1.32,2-.15,2.92.34,1.42.76,2.82,1.58,4.16,2.49.73.5,2.17.67,1.66,2.04-.44,1.17-1.63.92-2.61.87-.87-.04-1.73-.14-2.6-.22Z"/>
      <path class="cls-87" d="m796.24,68.59c1.87-.07,3.06.58,3.44,2.07.32,1.25-3.22,3.9-4.99,3.68-1.32-.17-3.05-.57-2.75-2.32.41-2.38,2.33-3.3,4.3-3.42Z"/>
      <path class="cls-52" d="m799.85,214.01c-1.19-.3-2.13,0-2.87,1.05-1.16,1.67-2.91,1.59-4.65,1.36-.49-.07-.87-.53-.73-1.08.44-1.8,2.05-2.31,3.48-2.95.53-.24,1.19-.2,1.8-.28.54,1.33,2.66.21,2.97,1.9Z"/>
      <path class="cls-86" d="m1078.06,222.07c6.4-6,13.55-10.68,23.35-13.07-5.99,7.5-14.22,10.01-21,14.54-.45.18-.85.48-1.3.62-1.07.32-2.39,1.94-3.13.68-.82-1.39,1.04-2.06,2.08-2.77Z"/>
      <path class="cls-33" d="m1227.18,134.72c-.74,1.73-2.13,1.6-3.24,1.99-4.94,1.71-9.7,3.71-13.73,7.24-2.67,2.34-6.17,1.9-9.73,2.39,5.61-5.79,21.18-12.56,26.7-11.62Z"/>
      <path class="cls-65" d="m736.07,328.32c2.55.3,3.93,1.62,5.47,2.52.64.37,1.67,1.02.94,2.06-.48.69-1.14,1.42-1.89,1.7-1.18.44-1.29-.85-1.71-1.52-.88-1.41-1.7-2.87-2.82-4.76Z"/>
      <path class="cls-29" d="m1078.06,222.07c-.59.81-1.17,1.63-1.84,2.56,1.67.13,2.63-1.61,4.19-1.08-2.29,2.09-5.15,3.05-8.04,4.07,1.36-2.46,2.94-4.61,5.69-5.54Z"/>
      <path class="cls-25" d="m64.74,182.33c7.14,1.05,12.85,3.18,18.67,4.85,5.03,1.45,10.08,2.8,15.11,4.27,3.43,1,6.66.2,9.89-.86,2.51-.82,2.28-2.1.77-3.85-2.4-2.8-5.92-3.65-8.97-5.21-16.44-8.42-31.61-18.63-45.45-30.88-4.02-3.56-8.03-7.08-11.19-11.41-1.87-2.57-4.31-5.46-2.59-8.82,1.79-3.5,5.56-2.81,8.73-2.6,8.44.56,16.28,3.35,24.02,6.58,10.46,4.36,20.34,9.89,30.58,14.7,3.52,1.65,7.09,3.09,11.04,3.18,1.11.02,2.36.08,2.9-1.2.44-1.06-.22-1.89-.84-2.71-2.81-3.72-6.55-6.46-10.03-9.46-2.54-2.2-4.87-4.54-7.45-7.41,3.28.42,5.66,1.79,8.1,2.92,8.86,4.12,16.97,9.34,23.77,16.44,3.4,3.55,3.33,4.08-.86,6.02-2.41,1.11-2.64,3.02-.47,5.31,3.77,3.99,8.42,6.94,12.74,10.25,6.02,4.61,11.91,9.35,17.62,14.33,4.21,3.67,5.59,9.18,8.32,13.8,1.51,2.56-.28,4.55-3.61,4.9-4.57.48-8.94-.65-13.24-1.91-3.95-1.15-7.82-2.57-11.65-4.06-5.01-1.95-10.12-2.36-15.41-1.65-3.25.44-4.84,1.9-4.6,5.43.3,4.42-.67,5.32-4.85,4.23-17.65-4.59-33.81-12.44-48.84-22.68-.58-.39-.97-1.06-2.25-2.49Z"/>
      <path class="cls-25" d="m1420.19,176.52c-2.46,3.79-6.54,5.37-10.06,7.42-12.3,7.16-25.17,13.11-39,16.74-5.57,1.46-5.95,1.21-5.92-4.48.02-3.2-1.74-4.65-4.51-4.85-4.96-.36-9.9-.65-14.74,1.35-6.45,2.66-13.04,5.01-20,5.99-1.72.24-3.49.28-5.23.21-3.97-.16-5.01-1.92-3.66-5.64,3.38-9.31,10.32-15.61,17.9-21.41,6.21-4.74,12.38-9.51,18.53-14.33.96-.75,1.83-1.74,2.45-2.78,1.27-2.15,1.41-4.11-1.7-4.73-3.12-.62-3.36-2.31-1.48-4.37,8.55-9.38,19.1-15.76,30.91-20.17.31-.12.72.03,1.56.09-4.25,5.3-9.83,8.73-14.06,13.52-1.47,1.66-4.77,3-3.29,5.46,1.39,2.32,4.54,1.16,6.9.47,8.04-2.36,15.2-6.69,22.65-10.36,12.07-5.93,24.15-11.86,37.78-13.4,3.39-.38,7.2-.8,9.42,2.12,2.37,3.14-.09,6.19-1.99,8.77-4.38,5.95-9.77,10.99-15.54,15.52-10.72,8.42-21.59,16.67-33.68,23.11-4.39,2.34-8.8,4.62-13.2,6.92-.55.29-1.21.41-1.66.8-1.3,1.12-3.17,2.19-2.79,4.09.31,1.58,2.3,1.67,3.7,2.12,4.42,1.42,8.66.1,12.86-1,8.06-2.12,15.83-5.26,24.01-6.98,1.19-.25,2.36-.84,3.85-.22Z"/>
      <path class="cls-93" d="m375.77,213.53c-3.42-8.49-10.22-12.55-18.86-13.76-5.47-.77-9.98-2.88-13.4-7.22-.53-.67-1.23-1.37-1.39-2.15-1.08-5.26-4.27-8.85-8.78-11.47-.67-.39-1.22-.9-.44-1.71,2.78.59,5.51,1.27,8.07,2.63,1.99,1.06,3.69,1.99,4.74,4.32,1.38,3.08,4.72,3.9,7.74,4.66,3.67.92,6.46,2.38,9.06,5.64,5.02,6.29,12.27,9.65,20.3,10.78,3.46.49,6.11,1.78,7.81,4.84,5.25,2.89,7.23,9.25,12.75,11.93,1.66.81.83,1.72-.64,2.04-.38.02-.75,0-1.12-.08-1.09-.33-2.22-.35-3.33-.33-2.96.04-5.27-1.09-6.99-3.55-1.54-2.19-3.39-4.01-6.39-3.9-2.11-.08-4.12-.83-6.25-.82-1.28,0-2.46-.4-2.88-1.85Z"/>
      <path class="cls-85" d="m420.69,239.17c-9.68-3.62-18.54-8.89-27.65-13.65-5.17-2.7-10.4-5.3-15.21-8.62-.39-1.41.48-1.87,1.6-1.77,4.33.41,8.78.58,11.43,4.94.79,1.29,1.87,2.32,3.4,2.74,2.38,1.43,5.1.47,7.67,1.1,3.33.82,6.01,2.25,8.32,4.64.52.54,1.07,1.05,1.61,1.57,1.16,1.13,2.76,1.99,3.99.93,1.41-1.21-.28-2.36-.97-3.43-.24-.24-.47-.5-.69-.77-.49-.83-1.63-1.44-.96-2.68.24,0,.47,0,.71.01.89-.31,1.36.35,1.89.83,3.42,3.11,4.69,7.47,6.5,11.48.37.82,1.38,3.31-1.63,2.69Z"/>
      <path class="cls-23" d="m253.09,128.41c1.31.57,2.62,1.15,3.92,1.72,2.24,5.06,6.52,7.67,11.61,8.73,3.14.66,5.43,2.12,7.43,4.39.77.81,1.29,1.75-.34,1.91-1.4.14-2.89.39-4.27-.26-2.33-.86-4.66-1.73-6.99-2.59-2.36-.87-4.11-1.88-4.95-4.8-1.07-3.72-5.16-4.21-8.35-5.57-1.76-.75-5.28-.04-4.83-2.69.31-1.82,3.67-.67,5.66-.95.36-.05.74.06,1.11.1Z"/>
      <path class="cls-98" d="m402.5,223.55c.73-.26,1.62-.61.19-1.11-3.27-1.14-5.47-3.42-6.74-6.48-1.1-2.66-4.83-2.76-5.32-5.85,1.19.75,2.39,1.5,3.58,2.25,1.1.24,2.23.47,2.6,1.76,1.01,3.46,3.75,5.36,6.5,7.26l-.02-.02c3.98,1.28,8.5,1.37,11.3,5.21l-.05-.05c.54.51,1.06,1.08,1.41,1.71.58,1.02,1.93,2.19.99,3.26-1.09,1.24-2.75.55-4.11-.06-.8-.36-1.46-1-1.94-1.69-2.1-3.03-5.65-4.03-8.38-6.17Z"/>
      <path class="cls-41" d="m420.69,239.17c1.55-.26,1.77-1.43,1.23-2.48-2.3-4.39-3.43-9.55-7.99-12.52-2.45-3.54-6.15-5.88-8.92-9.12,6.16,3.43,10.93,8.38,14.57,14.28,1.57,2.54,3.39,5.21,3.41,8.49,0,1.85-.46,2.74-2.3,1.33Z"/>
      <path class="cls-55" d="m271.44,144.91c1.21,0,2.43-.07,3.63,0,1.54.1,1.05-.88.98-1.66,3.33,1.79,6.44,4.07,10.34,4.63,1.08.15,1.83.82,1.65,2.05-.06.43-.27,1.12-.53,1.18-.99.22-1.52-.59-2.09-1.24-2.8-3.15-6.79-3.21-10.49-4.04-1.17-.26-2.53.14-3.49-.92Z"/>
      <path class="cls-41" d="m403.3,221.36c-3.13-.78-5.04-3-6.32-5.72-.67-1.41-1.61-2.41-2.78-3.3,1.18-.27,2.61-.2,2.9.99.87,3.67,4.12,5.38,6.21,8.03Z"/>
      <path class="cls-41" d="m414.59,226.55c-2.91-3.58-7.78-2.93-11.3-5.21,3.47.39,6.91.87,9.94,2.82.46.79.91,1.59,1.37,2.38Z"/>
      <path class="cls-9" d="m536.16,285.43c.97,2.15,1.14,3.91-1.98,4.09-5.09.3-9.47,3.34-14.59,3.74-1.24.1-2.45-1.45-3.73.1-1.92,2.33-1.75,4.2.71,5.93.66.47,1.82.85,1.28,1.94-.67,1.34-1.7.47-2.55.09-2.19-.98-5.15-1.3-4.67-4.79.42-3.1,2.28-4.75,5.44-5.06,1.38-.14,2.69-.71,3.42-2.01,2.94-5.25,7.7-5.26,12.7-4.3,1.37.26,2.69.38,4.06.29,0,0-.08-.03-.08-.03Z"/>
      <path class="cls-25" d="m219.75,235.96c6.92.59,14.74,4.36,22.35,8.67,2.69,1.53,5.34,3.14,8.01,4.7,1.32.78,2.73,1.31,4.28.99,1.66-.35,2.45-1.23,1.36-2.92-.54-.83-1.11-1.65-1.56-2.53-1.06-2.05-.54-3.07,1.91-2.86,4.55.39,13.79,7.91,14.85,12.18.54,2.16-1.05,2.59-2.57,2.67-1.22.06-2.45-.44-3.68-.52-1.72-.12-3.58-.46-4.66,1.47-.94,1.69-.02,3.09.75,4.53.87,1.64,1.74,3.3,2.43,5.02.8,1.99,2.52,4.1.51,6.19-2.06,2.14-4.51,3.08-7.74,2.53-9.75-1.67-18.47-5.72-26.75-10.88-6.97-4.34-13.72-8.99-18.45-15.94-.07-.1-.18-.18-.24-.29-1.5-3.08-3.91-6.03-2.22-9.75,1.09-2.4,4.22-3.35,11.43-3.26Z"/>
      <path class="cls-25" d="m1221.52,249.64c-.38.06-1.26.13-2.1.31-1.46.31-3.02.97-4.04-.7-.86-1.4.07-2.67.75-3.81,2.97-4.92,7.6-7.74,12.77-9.8,1.02-.41,2.37-.76,3.09.33.66.99.02,2.03-.58,3.07-.72,1.25-2.64,2.66-.99,4.17,1.43,1.31,3.28.49,4.88-.36,6.46-3.45,12.53-7.64,19.45-10.24,5.49-2.06,10.97-4.07,17-3.13,6.01.94,7.75,3.87,5.35,9.41-3.13,7.23-9.02,11.99-15.31,16.28-9.8,6.68-19.96,12.55-32,14.32-2.25.33-4.16-.02-6.08-1.06-2.19-1.19-3.08-2.77-2-5.21,1.22-2.72,2.3-5.5,3.56-8.2,1.8-3.86.88-5.44-3.75-5.41Z"/>
      <path class="cls-2" d="m147.72,136.01c-2.83,3.6-5.8,6.9-5.23,11.95.1.86-.65,1.57-1.42,1.2-1.56-.74-3.25-1.7-2.77-3.85.83-3.65,3.78-5.68,6.47-7.84.83-.67,1.95-.98,2.94-1.46Z"/>
      <path class="cls-99" d="m195.1,182.13c2.92.27,5.72,1,8.36,2.3-2.97-.11-5.99-.05-8.36-2.3Z"/>
      <path class="cls-38" d="m344.12,196.54c-2.2-.16-3.94-1.59-4.6-3.28-1.27-3.26-3.86-5.35-5.87-7.94,1.07-1.23,2.45-.94,3.8-.78,1.17.57,2.21,1.47,2.38,2.69.51,3.63,2.7,6.14,5.07,8.64.54.58-.45.5-.78.67Z"/>
      <path class="cls-57" d="m337.45,184.53c-1.06,1.25-2.53.53-3.8.78,0,0,.03.01.03.01-1.15-1.78-2.99-2.26-4.9-2.79-1.84-.52-3.99-1.17-2.56-3.95,5.03-.44,8.64,1.8,11.23,5.95Z"/>
      <path class="cls-90" d="m394.18,223.47c-2.23.06-3.28-1.53-4.29-3.11-2.65-4.13-6.89-4.41-11.15-4.56-.29-.01-.6.71-.91,1.1-1.44-.51-2.93-.96-3.81-2.37.73-.08,1.4-.25,1.76-1,2.96,1.6,6.35.91,9.44,1.79,2.68.53,4.74,1.98,6.13,4.3.78,1.31,1.86,2.25,3.11,3.06.16.35.06.61-.27.8Z"/>
      <path class="cls-38" d="m326.22,178.59c-.15,2.61,1.6,3.73,3.67,3.5,2.79-.32,3.43,1.13,3.79,3.25-3.51-1.47-7.01-2.94-10.52-4.41.13-1.94,1.32-2.5,3.05-2.34Z"/>
      <path class="cls-58" d="m210.27,289.97c3.59.87,7.34,1.76,10.41,4.29.44.37.95,1.01.93,1.5-.03.62-.78.95-1.44.87-4.04-.5-8.26-.51-11.43-3.68-.66-.66-1.91-1.24-1.35-2.37.52-1.06,1.78-.42,2.89-.61Z"/>
      <path class="cls-26" d="m1266.72,290.04c-.85-.13-2.1.43-2.58-.69-.64-1.5.93-1.89,1.75-2.38,3.2-1.92,6.66-3.24,10.4-3.66.79-.09,1.84-.35,2.3.67.51,1.16-.38,1.84-1.12,2.48-3.07,2.62-6.81,3.28-10.74,3.59Z"/>
      <path class="cls-58" d="m1224.5,210.95c3.69-7.15,9.43-12.05,16.36-15.7.58-.31,1.19-.46,1.69.12.46.54.41,1.21.03,1.73-4.7,6.31-10.08,11.77-18.08,13.86Z"/>
      <path class="cls-31" d="m262.12,218.19c-7.29-2.34-12.35-6.37-16.49-11.54-1.12-1.41-3.99-3.21-2.53-4.76,1.44-1.53,3.81.74,5.44,1.9,5.21,3.72,10.27,7.64,13.58,14.4Z"/>
      <path class="cls-10" d="m222,156.1c4.47,1.86,5.37,3.57,3.9,7.98-.74,2.21-.64,3.95.45,6.25,2.41,5.12,2.61,6.9-2.13,12.7.94-8.15-2.83-14.66-4.44-21.68-.13-.72-.06-1.57-.43-2.12-.68-1-1.14-1.84-.34-2.99.99-1.43,2.02.1,3-.13Z"/>
      <path class="cls-38" d="m245.16,153.97c.41-2.21,1.76-1.34,3.07-1.02,1.37.34,2.81.44,4.12,1.5-2.71,2.35-4.82-1.37-7.23-.51,0,0,.04.03.04.03Z"/>
      <path class="cls-20" d="m794.66,303.53c-9.85-5.48-19.66-11.04-29.57-16.42-4.23-2.29-8.27-5.05-13.1-6.07-2.29-.59-4.54-1-6.08,1.48h.01c-2.64,5.48-2.52,11.04-.14,16.54,1.18,2.71-.32,2.76-2.2,2.49-2.74-.4-4.58-2.38-6.62-3.98-8.09-4.28-16.19-8.55-24.26-12.85-3.19-1.7-6.35-3.44-10.05-3.87-1.25-.14-2.44-.49-3.53.84,8.47,7.88,17.75,14.74,27.26,21.24,9.45,6.46,19.14,12.56,28.48,19.27-4.19-.33-7.59-2.55-11.19-4.15-12.05-5.36-23.54-11.95-36.03-16.35-.71-.25-1.41-.52-2.14-.69-2.22-.53-4.54-.99-6.4.74-1.86,1.74-1.24,3.98-.43,5.95,2.31,5.63,4.82,11.18,7.17,16.79,3.22,7.71,4.61,15.4.41,23.35-1.47,2.79-2.68,3.13-4.96,1.1-9.1-8.12-18.98-15.23-29.02-22.13-14.35-9.86-29.1-19.07-44.13-27.84-3.76-2.19-7.57-4.31-11.31-6.53-3.74-2.22-4.6-7.47-9.59-8.46-.31,2.64-1.71,2.15-3.9.89-5.07-2.91-10.31-5.51-15.51-8.19-2.31-1.19-4.43-2.05-4.95-5.35-.38-2.44-3.19-3.65-5.73-2.45-2.55,1.2-4.64.76-7.1-.23-13.78-5.55-27.9-9.93-42.68-11.96-12.73-1.75-25.35-.95-37.92,1.36-23.15,4.25-45.05,12.52-66.92,20.89-17.2,6.58-34.41,13.15-51.72,19.42-13.93,5.05-28.03,9.65-42.06,14.43-1.38.47-2.79.86-4.61,1.41,1.53-3.31,4.34-4.48,6.46-6.26,10.59-8.9,19.68-18.94,25.42-31.68,6.02-13.35,6.76-27.05,3.03-41.14-2.39-9.05-6.02-17.59-10.77-26.65,4.97,1.8,8.38,4.61,12.1,6.83,15.18,9.04,30.25,18.27,46.25,25.84,8.83,4.17,17.94,7.22,27.95,7.17,9.03-.04,9.81-4.71,6.46-12.09-4-8.81-11.62-14.37-19.09-19.94-8.28-6.18-17.25-11.29-26.19-16.43-2.91-1.67-5.92-3.2-9.25-3.97-7.45-1.74-13.22-6.76-19.71-10.31-12.75-6.98-25.27-14.38-37.84-21.68-13.76-7.98-27.54-15.94-41.19-24.11-12.34-7.38-25.19-13.65-38.91-17.92-6.02-1.87-12.31-1.36-18.16,1.51-3.85,1.89-4.28,3.06-1.91,6.6,1.43,2.12,3.35,3.9,4.98,5.75-.39,1.08-1.09.92-1.62.68-4.53-2.07-9.01-4.22-13.55-6.25-1.27-.57-1.76-1.67-2.53-2.63-.95-1.19-2.13-2.21-3.83-1.64-1.67.56-1.95,2.01-2.21,3.56-1.19,7.26.85,14.2,2.06,21.22.69,4.03,1.96,7.99,2.29,12.04.46,5.67-2.4,9.08-8.05,8.87-10.22-.39-19.33-3.87-25.54-12.53-4.29-5.99-4.03-12.33.6-18.62,3.38-4.6,7.14-8.89,12.04-12.04,2.7-1.73,4.5-6.96,3.7-10.11-.3-1.18-1.36-1.37-2.24-1.76-8.21-3.67-16.78-6.34-25.39-8.88-9.31-2.76-18.6-5.57-28.08-7.71-1.04-.23-2.17-.41-2.98-1.33.7-1.14,1.82-.71,2.7-.69,23.48.45,46-4.59,68.17-11.75,10.46-3.37,21.19-5.61,32.07-7.08,2.07-.28,3.84-.96,4.31-2.91.5-2.04-1.42-3.08-2.9-3.89-10.44-5.71-21.79-9.12-33.09-12.58-18.56-5.68-37.18-11.19-55.69-17.24,5.35.98,10.7,1.93,16.04,2.95,21.39,4.08,42.83,7.86,64.3,11.53,19.39,3.31,38.5,8.02,57.21,14.18,1.37.45,3.02,1.75,4.24.77,2.05-1.66,4.48-2.65,6.51-4.22,1-.77.63-2.01-.55-3.12-2.14-2.02-2.79-4.92-3.32-7.72-.43-2.28.33-3.77,2.98-4.13,7.85-1.06,15.66-.83,23.46.32,4.06.59,8.13,1.16,12.08,2.36,4.24,1.29,7.99,3.44,11.23,6.44,1.3,1.2,2.53,2.78,1.7,4.6-.78,1.7-2.7,1.54-4.32,1.44-8.33-.56-16.64-1.27-24.98-1.69-4.34-.22-8.27.39-10.56,5.21-1.18,2.49-.64,3.71,1.14,4.98,2.26,1.62,4.94,2.34,7.56,3.14,32.27,9.91,64.59,19.7,96.79,29.82,5.5,1.73,10.98,3.25,16.65,3.99,2.38.31,5.93.78,6.68-1.57.77-2.44-2.75-3.41-4.71-4.46-7.95-4.25-13.95-10.66-19.57-17.85,3.18,1.38,6.43,2.64,9.54,4.17,28.82,14.2,57.94,27.76,87.17,41.09,11.21,5.11,22.2,10.73,33.73,15.07,7.9,2.98,16.11,5.16,24.22,7.54,1.63.48,3.47.38,5.2.32,3.08-.11,4.54-1.55,3.9-4.85-.32-1.64-1.12-4,.49-4.83,1.42-.73,2.49,1.55,3.63,2.58,14.09,12.78,28.44,25.25,43.56,36.82,9.27,7.1,18.61,14.2,28.7,19.95,5.48,3.12,6.95,6.29,6.62,12.17-.42,7.56,3.76,13.8,8.38,19.42,8.42,10.2,18.21,19.03,28.58,27.21,1.88,1.49,4.13,2.33,6.4,2.99,1.1.32,2.59,1.5,3.4.21.59-.95-.5-2.29-1.12-3.35-6.09-10.45-10.52-21.35-9.8-33.79.36-6.23,1.25-7.45,7.06-9.15,4.29-1.26,8.49-2.83,12.72-4.27.69-.23,1.43-.78,2.08-.13.72.72-.13,1.33-.34,1.99-1.69,5.4-.63,7.9,4.6,10.34,1.72.8,2.76,1.89,3.24,3.76,1.42,5.56,5.1,8.94,10.19,11.58,19.08,9.92,37.5,21.03,56.1,31.82,3.01,1.75,6.07,3.43,9.1,5.15,1.23.7,2.57.94,3.96.94.73,0,1.56.11,1.95-.73.38-.8-.06-1.43-.57-2.01-9.65-10.71-18.37-22.18-27.44-33.37-3.86-4.77-9.13-6.74-15.37-5.34-.28.06-.63-.2-1.32-.44,2.7-2.98,5.86-5.11,9.2-6.33,4.76-1.74,6.82-5.8,9.64-9.24,1.37-1.67-.44-2.47-1.53-3.03-2.33-1.21-4.92-1.69-7.48-2.23-3.32-.7-6.48-1.74-9-4.22-4-3.94-3.55-7.95,1.47-10.82,3.7-2.11,7.72-3.44,11.93-4.21,6.26-1.14,12.53-2.14,18.93-1.86,1.25.06,2.9-.03,3.23,1.28.42,1.68-1.33,2.23-2.56,2.66-4.11,1.44-8.28,2.7-12.41,4.09-4.59,1.54-5.45,2.84-4.8,6.93.77,4.84,4.23,8.87,7.67,9.06,1.28.07,2.04-.74,3-1.29,5.19-2.94,10.29-.22,10.97,5.64.71,6.15,1.33,12.35,2.59,18.4,1.46,6.97,5.31,13.07,8.71,19.2,1.87,3.37,1.62,7.78,5.36,10.34,1.31.9,2.03,1.32,3.5.74,14.12-5.59,28.27-11.14,42.42-16.66,1.07-.42,2.14-1.71,3.4-.64,1.14.97.07,2.14-.17,3.12-1.87,7.86-1.48,15.85-1.4,23.8.03,2.47-.27,4.37-2.97,5.22-.92.29-1.7,1-2.55,1.53-5.41,3.41-6.08,3.08-7.18-3.12-.5-2.8-1.22-5.58-2.02-8.32-1.36-4.64-3.25-6.42-8-6.31-7.13.17-13.67,2.48-19.33,6.97-.65.52-1.6.8-.93,2.01,2.46,4.43,4.16,9.31,7.43,13.26,3.65,4.41,6.42,4.75,12.65,2.43,1.45-.54,3.49-2.79,4.54-.87,1.16,2.12-1.83,2.41-3.15,3.24-9.34,5.86-9.23,5.66-18.03-.93-5.48-4.1-11.79-6.94-17.94-9.93-10.64-5.16-21.21-10.49-32.25-14.77-2.07-.8-4.17-1.62-7.43-1.09,9.12,9.59,19.33,16.94,29.02,24.87,3.54,2.69,6.68,5.88,10.38,8.38l.03.02c1.29.76,1.29,1.52.02,2.3-2.22-.91-4.3-2.05-6.06-3.71-2.63-1.31-4.86-3.24-7.45-4.61Z"/>
      <path class="cls-20" d="m743.62,303.65c3.86,1.96,7.68,4,11.6,5.85,1.05.5,2.38,1.41,3.51.48,1.24-1.02.21-2.38-.16-3.46-1.37-3.97-1.56-8.03-1.38-12.15.23-5.33,1.5-6.04,6.36-3.57,16.17,8.23,31.69,17.58,47.12,27.09,4.32,2.66,4.26,3.66.23,6.46-6.41,4.47-13.08,8.57-19.03,13.67-1.72,1.48-3.44,1.55-5.42.26-3.95-2.57-7.99-5.03-12.06-7.41-1.79-1.05-2.33-2.09-1.59-4.22,1.76-5.06,4.28-9.77,6.39-14.67.45-1.05,1.85-2.19.58-3.32-1.41-1.25-2.85-.22-4.02.7-4.54,3.53-9.38,6.5-14.82,8.5-2.99,1.1-5.36.88-8.21-1-11.18-7.37-21.83-15.43-32.22-23.85-.39-.28-.91-.52-.78-1.11.19-.84.84-.79,1.42-.52,1.56.71,3.12,1.45,4.58,2.36,2.97,2.28,6.42,3.67,9.76,5.26,3.02,1.01,6.07,1.96,8.12,4.65Z"/>
      <path class="cls-13" d="m583.2,296.31c1.51.81,1.68,2.16,2.29,3.19,1.61,2.73,3.59,4.61,6.76,5.87,4.08,1.61,7.92,3.82,12.25,4.88,4.32,1.06,6.02.47,7.9-3.5.81-1.7,1.59-1.83,3.15-1,5.03,2.67,5.52,3.47,3.55,8.92-3.38,9.34-6.96,18.62-10.48,27.91-.29.77-.43,1.91-1.55,1.8-1.01-.1-1.11-1.16-1.45-1.96-1.11-2.64-2.48-5.18-3.43-7.87-2.44-6.92-8.08-11.15-13.14-15.85-1.91-1.78-3.76-1.01-4.89,1.11-1.64,3.07-2.94,6.3-3.81,9.67-.25.98-.23,2.13-1.51,2.23-1.07.08-1.36-.88-1.59-1.75-.84-3.2-3.33-5.51-4.62-8.48-.87-2.01-2.58-1.66-4.14-.9-2.76,1.35-4.64.48-6.92-1.51-6.73-5.88-13.79-11.39-20.74-17.01-.84-.68-2.39-1.08-1.94-2.34.42-1.17,1.98-.62,3.03-.79,1.57-.24,2.83.45,4.17,1.25,6.32,3.79,11.87,8.59,17.54,13.22,5.53,4.52,14.74,1.72,16.66-5.21,1.07-3.89,1.94-7.84,2.92-11.86Z"/>
      <path class="cls-20" d="m872.07,344.56c-2.9-5.33-4.26-11.15-6.54-16.59-2.11-5.04-3.91-10.21-5.83-15.33-.98-2.6,3.12-7.88,5.92-7.6,1.32.13,1.34,1.34,1.62,2.23.85,2.71,2.88,3.92,5.44,3.51,3.37-.53,6.83-1.16,9.81-2.91,2.06-1.21,4.1-2.34,6.39-3,1.64-.47,2.76-1.25,3.48-2.99.82-1.99,2.23-3.74,3.42-5.66,1.64,1.17,1.37,2.76,1.63,4.17.82,4.33.91,9.13,4.65,12.13,5.58,4.47,10.31,4.01,15.79-.56,4.29-3.57,8.72-6.98,13.24-10.26,3.51-2.55,4.01-2.46,8.69-.87-2.86,2.39-5.45,4.77-8.26,6.85-4.5,3.34-8.85,6.84-12.83,10.79-2.24,2.22-4.6,3.71-7.88,1.95-1.93-1.04-3.28-.11-4.32,1.63-1.66,2.78-3.45,5.47-4.38,8.62-.19.64-.16,1.68-1.17,1.64-.85-.04-1.13-.86-1.35-1.58-1.06-3.43-2.21-6.82-3.72-10.1-1.52-3.3-2.93-3.43-5.9-1.36-7.93,5.52-12.34,13.38-15.66,22.08-.31.81-.71,1.59-1.15,2.34-.17.29-.56.46-1.08.87Z"/>
      <path class="cls-20" d="m880.78,226.22c-2.41,5.66-4.87,11.31-7.23,17-1.1,2.64-2.4,5.28-2.92,8.05-.76,3.98-3.2,5.93-6.71,7.13-2.24.77-4.42,1.68-6.66,2.44-1.01.34-2.07,1.15-3.18.31-1.28-.96-.24-2.06-.07-3.07.27-1.59.48-3.23,1.06-4.72,1.25-3.21-1.15-5.62-1.63-8.44-.1-.59-.8-.52-1.23-.36-2.52.94-4.44-.93-7.66-1.22,12.09-6.98,23.91-12.31,35.59-17.94l.65.81Z"/>
      <path class="cls-64" d="m783.19,283.74c4.97,2.3,9.74,4.31,14.33,6.68,10.48,5.42,21.19,10.43,30.79,17.43,3.76,2.74,3.92,2.55.18,5.01-2.18,1.43-4.4,2.8-6.6,4.22-1.36.87-2.45.95-3.43-.64-3.54-5.75-9.18-9.37-14.15-13.65-6.3-5.42-12.8-10.61-19.16-15.95-.78-.66-1.86-1.24-1.96-3.11Z"/>
      <path class="cls-82" d="m918.5,234.43c-.66,1.77-1.89,2.61-3.29,3.17-10.86,4.4-21.72,8.78-32.59,13.17-.69.28-1.44.72-2.04,0-.59-.72.12-1.41.33-2.07,2.13-6.8,5.78-12.92,8.66-19.38.96-2.14,1.84-4.36,2.39-6.63.43-1.74,1.03-2.42,2.79-1.76,7.2,2.7,14.67,4.79,20.92,9.59,1.45,1.11,2.31,2.43,2.82,3.92Z"/>
      <path class="cls-91" d="m835.01,338.02c0,2.85,0,5.7,0,8.56,0,2.34-1.06,2.8-3.07,1.77-3.75-1.93-7.5-3.86-11.31-5.68-1.96-.94-2.51-1.94-.69-3.51,4.21-3.63,8.41-7.3,12.66-10.89,1.53-1.29,2.51-.88,2.53,1.2.03,2.85,0,5.7,0,8.56-.04,0-.08,0-.12,0Z"/>
      <path class="cls-88" d="m843.14,279.84c1.07-.03,1.53.62,1.78,1.55.29,1.08.61,2.15.89,3.23,2.25,8.74,2.24,8.71-6.21,11.76-2.08.75-3.57.59-4.48-1.67-1.06-2.64-2.14-5.26-4.4-7.23-.81-.7-1.51-2.07-.09-2.83,3.96-2.12,8.24-3.45,12.51-4.8Z"/>
      <path class="cls-20" d="m787.08,341.17c-3.44,2.99-6.51,5.5-9.4,8.21-1.74,1.63-2.9,1.09-3.8-.63-1.92-3.66-3.44-7.41-3.18-11.72.14-2.4.94-3.27,3.23-2.18,4.26,2.03,8.51,4.08,13.15,6.31Z"/>
      <path class="cls-40" d="m889.7,290.79c-1.52,3.09-3.02,6.2-4.58,9.27-.6,1.18-10.05,5.54-11.27,5.29-.72-.14-1.04-.67-1.08-1.31-.09-1.59-.49-3.31,1.09-4.47,1.6-1.16,3.24-2.3,4.92-3.33,3.44-2.1,6.92-4.12,10.38-6.18.18.24.36.48.54.72Z"/>
      <path class="cls-30" d="m590.49,290.94c1.43-.68,2.35.46,3.34,1.04,3.53,2.06,6.97,4.26,10.48,6.35,1.22.73,2.39,1.46,2.38,3.04,0,1.34.6,3.02-.5,3.91-1.01.82-2.33-.3-3.44-.74-7.92-3.13-10.28-5.77-12.26-13.59Z"/>
      <path class="cls-63" d="m636.48,333.79c.82-3.32,1.59-6.18,2.22-9.07.39-1.77,1.21-2.02,2.61-1.04.2.14.37.34.56.49,4.49,3.51,4.47,3.49-.17,6.9-1.5,1.1-2.87,2.37-5.22,2.71Z"/>
      <path class="cls-21" d="m743.62,303.65c-2.94-1.15-5.58-2.81-8.12-4.65.87-.09,2.28.36,1.47-1.44,3.17.2,5.06,3.52,8.72,3.5-1.97-6.29-4.06-12.53.24-18.56-1.7,5.84-1.88,11.58.63,17.3.58,1.32.68,3.13-1.96,2.52-.77-.18-.8.76-.98,1.32Z"/>
      <path class="cls-21" d="m725.74,293.74c-1.79-.12-3.07-1.48-4.68-1.94-1.56-.45-.53.71-.54,1.21-2.34-.35-3.38-2.05-4.89-4.82,4.31,1.49,7.44,3.07,10.12,5.55Z"/>
      <path class="cls-97" d="m808.13,309.53c-4.32-1.73-7.42-4.97-10.38-8.38,4.21,1.87,7.17,5.27,10.38,8.38Z"/>
      <path class="cls-97" d="m808.17,311.85c.4-.77.52-1.53-.02-2.3,2.61.37,3.39,2.5,4.85,4.7-2.53.23-3.76-.93-4.83-2.4Z"/>
      <path class="cls-28" d="m881.35,217.44c-.41,1.07-1.41,1.23-2.33,1.32-.92.09-1.22-.63-1.19-1.43.03-1.09.7-1.46,1.69-1.33.86.11,1.66.35,1.83,1.44Z"/>
      <path class="cls-97" d="m794.66,303.53c3.01.69,5.32,2.51,7.45,4.61-3.1-.55-5.33-2.49-7.45-4.61Z"/>
      <path class="cls-21" d="m745.91,282.52c1.24-3.73,3.69-2.47,6.08-1.48-2.18-.12-4.31-.06-6.08,1.48Z"/>
      <path class="cls-36" d="m972.29,228.8c8.07-7.36,14.3-14.75,16.12-24.73,1.58-8.66-5.42-16.2-13.14-16.55-15-.69-29.84,1.13-44.7,2.78-11.25,1.25-22.54,2.13-33.81,3.22-9.02.87-18.16,1.04-26.87,3.97-3.39,1.14-6.49-.01-10.18-.64,2.96-3.11,6.48-4.24,9.91-4.6,10.77-1.11,20.77-5.08,31.1-7.77,22.39-5.82,44.88-11.19,67.54-15.91,11.21-2.33,22.38-4.95,33.7-6.63,12.21-1.82,23.99-5.53,36.12-7.52,9.34-1.53,18.77-2.63,28.05.81,3.04,1.13,5.45,3.08,7.35,5.43,3.32,4.1,2.09,9.77-2.37,14.69-8.58,9.45-19.24,16.06-30.1,22.43-16.08,9.43-33.02,17.24-49.55,25.81-5.74,2.98-11.8,5.01-19.19,5.21Z"/>
      <path class="cls-81" d="m945.62,168.71c-2.14.12-4.23-.15-6.3-.66-1.29-.32-2.45-.81-2.81-2.15-.39-1.47.8-2.36,1.77-3.03,2.34-1.63,4.75-3.2,7.25-4.57,11.69-6.4,24.49-9.79,37.23-13.22,14.9-4.01,29.7-8.44,44.81-11.66,10.84-2.32,21.76-4.21,32.93-3.51,2.86.18,6.59.18,7.2,3.3.51,2.65-2.7,4.45-5.03,5.77-10.83,6.1-22.74,9.51-34.54,13.04-16.81,5.03-33.87,9.15-51.1,12.55-10.38,2.05-20.85,3.48-31.41,4.15Z"/>
      <path class="cls-73" d="m770.28,171.68c-4.56.35-6.25-2.26-7.51-5.75-.83-2.29-2.43-4.39-5.08-4.35-2.42.03-3.34,2.36-4.23,4.28-2.25,4.85-4.47,9.72-6.59,14.63-.87,2.02-1.87,2.57-4,1.53-5.24-2.56-10.83-4.37-15.92-7.29-.96-.55-2.15-1.21-3.1-.25-.96.97-.25,2.1.31,3.07,1.97,3.45,3.96,6.9,5.96,10.34,1,1.72,1.05,2.91-1.45,2.55-8.65-1.25-17.18-2.78-24.56-8.03-7.38-5.26-10.38-15.2-6.94-23.5.55-1.33,1.46-2.31,2.41-3.27,2.24-2.27,2.45-4.44.76-7.33-4.31-7.35-8.28-14.9-11.92-23.05,3.36,2.11,6.8,4.11,10.07,6.36,5.43,3.75,11.31,6.73,17.05,9.92,3.46,1.92,6.84,1.4,10.5-.85,4.99-3.06,10.84-4.33,16.71-4.81,5.95-.49,11.93-.43,17.9-.05,3.57.23,6.47-.56,8.56-3.99,2.01-3.31,4.68-6.23,7.49-9.88,0,4.73.26,8.65-.07,12.51-.37,4.31.79,8.32,1.64,12.4.42,1.99,2.19,2.95,3.95,3.67,9.04,3.64,10.42,11.73,7.14,18.96-1.23,2.7-2.79,5.27-4.36,7.79-.45.72-1.08,1.93-2.28,1.48-.96-.36-1.56-1.27-1.56-2.37,0-1.99-.79-3.44-2.83-3.81-2.21-.4-3.89.44-4.88,2.55-.26.55-.74,1-1.08,1.52-.73,1.1-.77,2.96-2.34,3.08-1.3.1-1.35-1.57-1.88-2.48-.96-1.64-.64-3.08.91-4.25.47-.35.8-.87,1.2-1.31Z"/>
      <path class="cls-68" d="m734.6,70.79c-3.9,2.08-6.95,3.65-9.94,5.33-1.1.62-1.82.38-2.57-.49-.98-1.14-2.1-2.43-1.97-3.86.13-1.41,1.77-.95,2.81-.97,3.52-.05,7.04-.02,11.66-.02Z"/>
      <path class="cls-62" d="m704.8,90.02c4.07-2.7,8.63-4.03,13.23-5.2,1.4-.35,3.09.3,3.29,1.73.28,1.97-1.74,1.21-2.71,1.38-4.59.79-9.2,1.41-13.81,2.08Z"/>
      <path class="cls-79" d="m697.39,87.34c-1.16-.02-2.05-.39-2.01-1.37.06-1.18,1.22-.95,2-.96.79-.02,1.95-.19,1.79,1.11-.12.99-1.15,1.11-1.79,1.23Z"/>
      <path class="cls-41" d="m402.5,223.55c3.72,1.19,6.94,3.11,9.28,6.33.28.39.66.76,1.07,1,1.08.61,2.38,1.42,3.42.45,1.03-.96-.21-1.99-.63-2.93-.29-.66-.73-1.26-1.1-1.88,2.27,1.08,4.12,3.34,2.64,5.19-1.52,1.9-4.41,1.06-6.13-1.06-3.73-4.62-8.55-6.67-14.44-6.4-.89.04-1.75-.11-2.44-.76.1-.08.22-.13.36-.14,2.47-.37,4.93-.56,7.38.13.18.17.37.2.58.08Z"/>
      <path class="cls-98" d="m401.92,223.47c-2.46-.04-4.92-.09-7.38-.13-3.63-2.06-5.17-6.55-9.32-8.01,2.72-.48,4.65,1.1,5.85,3.03,2.15,3.45,5.01,4.8,8.93,4.34.73-.09,1.48.03,1.93.77Z"/>
      <path class="cls-36" d="m506.92,228.73c-5.5-.12-10.15-1.14-14.38-3.14-20.13-9.53-40.14-19.35-59.23-30.84-9.42-5.67-18.84-11.65-25.78-20.59-5.57-7.18-4.15-13.93,4.02-18.06,7.1-3.59,14.76-3.56,22.33-2.64,18.54,2.26,36.51,7.52,54.91,10.63,25.64,4.33,50.93,10.47,76.14,16.84,11.1,2.8,22.14,5.91,33.11,9.2,5.4,1.62,11.19,1.03,16.41,3.38.9.41,1.94.54,2.81,1.01.91.5,2.55.59,2.34,1.99-.2,1.32-1.68.54-2.54.84-3.22,1.11-6.51.88-9.53-.26-7.75-2.94-15.92-2.63-23.92-3.47-16.32-1.71-32.69-2.98-48.98-5.06-10.42-1.33-20.96-1.75-31.38-.87-7.6.64-15.5,9.23-11.39,19.9,3.08,8,8.13,14.7,15.06,21.14Z"/>
      <path class="cls-35" d="m689.71,269.54c-15.47-5.01-29.37-12.47-44.27-17.39,17.55,15.89,37.77,28.13,57.42,41.95-2.18,1.21-3.59.38-4.81-.14-23.46-10.04-47.17-19.46-70.96-28.7-23.54-9.15-46.99-18.56-70.45-27.91-2.54-1.01-4.95-2.35-7.35-3.67-2.04-1.13-2.35-2.58-.81-4.57,2.4-3.09,5.7-4.8,9.14-6.21,10.68-4.4,21.99-6.22,33.36-7.69,4.4-.57,8.82-.83,13.06-2.56,2.43-.99,5.16.14,7.65.79,2.15.56,4.17,1.63,6.23,2.52,3.22,1.4,6,2.99,3.26,7.17-.66,1.01-.16,2.2.39,3.21,2.47,4.53,5.49,8.6,10.18,11.07,18.5,9.75,36.84,19.78,55.6,29.03.84.41,1.95.63,2.38,3.13Z"/>
      <path class="cls-1" d="m425.01,129.73c14.05.49,27.78,3.92,41.58,7.36,14.99,3.74,29.82,7.97,44.68,12.16,9.01,2.55,17.7,6,25.83,10.72,2.53,1.46,6.28,3.06,5.48,6.2-.76,2.96-4.79,2.54-7.56,2.46-14.87-.41-29.41-3.26-43.86-6.5-23.34-5.23-46.57-10.91-68.67-20.32-3.41-1.45-6.84-3.06-9.5-5.78-2.18-2.23-1.77-3.84,1.08-5.08,3.45-1.5,7.12-.92,10.95-1.22Z"/>
      <path class="cls-93" d="m886.8,243.04c2.94-6.08,5.32-11.38,8.07-16.49,1.08-2,3.37-1.51,4.96-.48,4.23,2.75,8.82,4.59,14.75,6.3-9.08,4.86-18.2,7-27.78,10.67Z"/>
      <path class="cls-56" d="m842.45,289.74c.09,1.92-1.41,2.41-2.7,2.28-2.46-.25-2.85-2.7-3.23-4.42-.43-1.92,1.76-2.06,3.09-2.39,1.14-.29,2.81,2.52,2.85,4.53Z"/>
      <path class="cls-24" d="m602.77,301.15c-.23.92-.93,1.01-1.44.75-1.22-.61-3.16-.19-3.46-2.1-.11-.72.74-.96,1.35-.76,1.33.45,2.86.65,3.56,2.1Z"/>
      <path class="cls-27" d="m996.48,214.58c2.01-2.8,4.24-5.25,6-8.06,8.13-12.93-1.65-24.51-12.76-24.59-14.34-.1-28.63.74-42.89,2.27-14.11,1.52-28.26,2.71-42.46,3.73,3.98-2.22,8.47-2.92,12.76-3.97,27.07-6.64,54.21-13.02,81.55-18.49,11.1-2.22,21.99-5.5,33.28-6.76,6.62-.74,13.19-.72,19.32,2.64,6.87,3.77,8.14,10.3,3.25,16.41-4.72,5.89-10.56,10.53-16.77,14.62-12.15,7.98-24.95,14.89-37.96,21.37-.96.48-1.82,1.29-3.32.82Z"/>
      <path class="cls-84" d="m1038.74,135.61c2.29-.32,5.14-.33,8,.07,1.29.18,2.67.42,3,1.78.35,1.42-.99,2.21-1.98,2.87-4.63,3.04-9.92,4.58-15.12,6.23-22.46,7.11-45.3,12.57-68.74,15.3-1.85.22-3.75.25-5.6.11-1.02-.08-2.55.02-2.84-1.25-.29-1.27,1.04-1.78,2-2.33,4.89-2.81,10.14-4.7,15.57-6.14,14.9-3.96,29.98-7.34,44.63-12.07,6.8-2.19,13.37-4.43,21.09-4.56Z"/>
      <path class="cls-61" d="m716.47,144.91c3.8-.63,6.92,1.65,10.03,3.2,7.66,3.81,14.66,8.51,16.86,17.68.48,2,.29,3.58-1.29,5.05-3.53,3.29-7.46,4.39-12.26,3.29-8.3-1.9-14.28-7.17-19.69-13.18-4.34-4.83-4.08-10.73-.02-14.34,1.86-1.65,3.98-1.88,6.37-1.71Z"/>
      <path class="cls-50" d="m768.4,145.66c.86.83,1.91,1.26,3.07,1.48.98.41,2.5.53,2.14,1.99-.27,1.08-1.4.59-2.2.28-4.92-2-9.9-3.07-15.25-1.69-1.89.49-3.53,1.17-4.85,2.58-.87.93-1.9,1.7-3.15,1.92-1.33.24-2.83.57-3.85-.69-1.05-1.29.04-2.28.7-3.32.26-.41.33-.92.5-1.41-1.5-.83-2.68-.02-3.91.51-4.51,1.95-7.55,1.08-10.42-2.72-1.26-1.66-.91-2.74.79-3.55,1.81-.86,3.85-1.78,5.74-1.3,4.97,1.27,9.94.4,14.9.5,2.65.05,5.22.41,7.61,1.62,2.71,1.31,5.57,2.28,8.18,3.79Z"/>
      <path class="cls-80" d="m761.22,149.34c5.22-.55,9.29,2.22,13.14,5.51,1.08.92,2.06,2.05,1.43,3.54-.64,1.52-1.76,2.7-3.58,2.9-5.87.63-11.42-.32-16.36-3.67-1.7-1.15-3.62-2.53-2.78-5.11.82-2.54,2.88-3.22,5.32-3.17.87.02,1.74,0,2.84,0Z"/>
      <path class="cls-67" d="m772.99,164.33c1.96-1.07,3.57-2.26,5.39-2.88,2.41-.83,4.71-1.23,2.58-4.62-.89-1.41.56-1.6,1.57-1.56,3.4.13,5,2.52,5.17,5.33.23,3.83-.87,7.55-3.24,10.74-1.91,2.56-2.52-.47-3.67-.94-.91-.37-2.55-.53-2.29-1.98.24-1.29,1.95-.74,3.06-1.54-2.48-2.12-6.02.06-8.57-2.55Z"/>
      <path class="cls-76" d="m747.69,169.2c-.88-.06-.9-.75-.88-1.34.17-3.81-.37-7.41-2.73-10.58-.25-.33-.32-1.05-.12-1.39.35-.62,1.08-.56,1.65-.26,1.57.81,3.34.93,4.97,1.46,2.79.91,3.17,2.95,1.49,5.36-1.13,1.62-1.96,3.44-2.91,5.17-.36.65-.63,1.36-1.47,1.56Z"/>
      <path class="cls-75" d="m774.57,130.3c0,4.61-.11,8.07.05,11.52.07,1.51-.48,1.88-1.65,1.42-3.62-1.39-7.19-2.89-11-4.97,6.66,1.7,8.31-4.37,12.61-7.98Z"/>
      <path class="cls-16" d="m768.4,145.66c-3.11-.44-5.69-2.02-8.18-3.79,3.02.62,6.02,1.3,8.18,3.79Z"/>
      <path class="cls-16" d="m771.4,149.42c.56-.11,1.54-.09,1.61-.34.35-1.21-1.33-1.02-1.55-1.93.42-.54.88-.25,1.28,0,1.22.73,3.16,1.52,2.04,3.15-.91,1.32-2.36,0-3.38-.86Z"/>
      <path class="cls-57" d="m574.68,188.15c-11.53-1.05-22.82-1.95-34.08-3.12-17-1.77-34.01-3.4-51.13-3.03-12.04.26-19.09,12.38-13.3,22.92,1.85,3.36,4.1,6.45,7.12,9.78-3.15-.16-5.06-1.74-7.11-2.79-14.17-7.24-28.22-14.7-40.98-24.3-4.28-3.22-8.09-6.96-11.18-11.42-4.26-6.16-1.88-10.56,3.31-14.18,6.47-4.51,14.02-4.23,21.33-3.16,15.42,2.26,30.5,6.24,45.71,9.54,16.19,3.51,32.37,7.08,48.51,10.82,10.07,2.34,20.06,5.05,30.08,7.59.58.15,1.26.1,1.71,1.34Z"/>
      <path class="cls-38" d="m635.73,245.99c-3.18-1.16-6.56-.94-10.95-1.67,17.36,15.06,36.09,26.41,54.44,38.3-.15.27-.3.54-.45.81-6.19-2.46-12.39-4.91-18.57-7.38-26.92-10.77-53.85-21.54-80.76-32.34-5.31-2.13-10.63-4.27-15.83-6.65-3.22-1.48-3.32-2.74-.9-5.34,4.43-4.75,10.62-6.33,16.29-8.73,6.19-2.62,12.78-4.14,19.25-5.98,1.94-.55,2.73-.4,3.52,1.72,1.94,5.24,5.75,9.3,9.85,12.91,1.99,1.75,5.05,1.76,7.48,3.13,6.45,3.64,13.08,6.96,19.63,10.41-.53,2-1.9.89-2.99.81Z"/>
      <path class="cls-4" d="m635.73,245.99c.92-.54,2.24.36,2.99-.81,2.65,0,4.29,1.93,6.29,3.26-3.3-.12-6.34-1.1-9.28-2.46Z"/>
      <path class="cls-43" d="m441.87,135.77c6.51.16,12.68,1.42,18.8,3.98,10.35,4.32,21.56,5.89,32.34,8.9,8.86,2.48,18,4.09,26.31,8.27,1.78.9,4.93,1.56,4.42,3.78-.56,2.46-3.66,1.35-5.58,1.22-15.34-1.03-30.28-4.39-45.15-8.06-12.81-3.16-25.64-6.3-37.73-11.73-2.23-1-5.92-1.71-5.2-4.8.65-2.8,4.34-1.44,6.63-1.99,1.59-.38,3.43.25,5.16.43Z"/>
      <path class="cls-78" d="m1006.12,168.1c7.92-.74,15.71-2.09,23.52-3.66,5.53-1.11,11.73-.18,17.01,2.95,5.18,3.08,5.64,6.4,1.64,10.85-1.93,2.14-4.27,3.8-6.57,5.51-8.94,6.66-18.73,11.84-28.73,16.67-1.9.91-2.75.81-2.5-1.6.19-1.85.21-3.74.12-5.6-.35-7.28-3.76-11.41-10.91-13.14-3.51-.85-7.02-1.76-10.69-1.65-7.06-.23-14.12-.84-21.18.38-1.46.25-3.17.62-5.27-1.01,15.06-2.77,29.5-5.41,43.56-9.7Z"/>
      <path class="cls-53" d="m1006.12,168.1c-9.03,4-18.85,5.06-28.32,7.39-4.49,1.11-9.08,1.77-12.38,2.4,5.86,0,12.93-.02,20.01.02,1.19,0,2.5-.42,3.58.51-3.35.09-6.71.31-10.06.25-11.24-.2-22.23,2.18-33.34,3.23-1.21.11-2.38.69-3.75-.25.78-1.37,2.06-1.47,3.38-1.71,17.08-3.11,34.32-5.32,51.19-9.6,3.21-.81,6.18-2.78,9.7-2.26Z"/>
      <path class="cls-47" d="m1018.61,146.9c-.34-4.07,1.87-5.26,5.26-5.65,5.14-.59,10.21-1.91,15.63-1.42-2.28,2.78-9.64,5.22-20.9,7.07Z"/>
      <path class="cls-32" d="m1014.19,148c-4.43,2.35-18.94,5.28-23.89,4.98,2.16-1.75,17.92-5.12,23.89-4.98Z"/>
      <path class="cls-44" d="m979.94,153.85c-3.45,3.92-7.37,3.86-11.44,3.31,3.46-1.75,6.99-3.24,11.44-3.31Z"/>
      <path class="cls-60" d="m732.49,170.58c-7.64-.09-18.46-7.94-20.99-15.23-1.41-4.08,1.31-8.17,5.09-7.12,8.63,2.4,15.94,7.04,20.55,14.94,2.85,4.88,1.05,7.47-4.65,7.41Z"/>
      <path class="cls-89" d="m766.92,158.5c-2.69.21-5.65-1.54-8.72-2.83-1.04-.44-2.02-1.16-1.72-2.54.31-1.46,1.62-1.4,2.69-1.47,4.32-.26,8.02,1.36,11.35,3.94.64.5,1.6,1.09,1.35,2.06-.29,1.09-1.41.76-2.23.83-.62.06-1.24.01-2.71.01Z"/>
      <path class="cls-39" d="m484.47,175.49c-5.53,2.15-7.98,7.32-12.62,10.06-3.49,2.06-4.52,6.06-4.99,10.02-.13,1.05.57,2.6-.65,3.05-1.36.5-2.07-1.09-2.93-1.9-2.09-1.97-4.26-3.82-6.68-5.38-3.75-2.42-7.74-4.05-12.31-3.42-2.93.4-4.8-1.75-7.17-2.7-2.56-1.04-3.56-2.62-3.71-5.58-.18-3.49-2.63-6.39-4.56-9.28-1.18-1.76-.62-3.05.71-4.23,1.16-1.03,2.16-2.46,4.15-1.29,6.22,3.65,12.79,2.45,19.25.92,2.14-.51,4.07-.71,6.2-.22,4.13.96,8.3,1.71,12.43,2.67,2.96.69,5.98,1.13,7.94,4.14.85,1.31,2.85,1.87,4.95,3.14Z"/>
      <path class="cls-77" d="m534.78,181.08c-3.68,1.31-7.32.5-10.97.45-.92-.01-1.79-.6-1.66-1.62.14-1.16,1.18-1.11,2.06-.94,3.53.68,7.05,1.4,10.57,2.11Z"/>
      <path class="cls-70" d="m625.21,255.68c-6.15-2.17-12.37-3.75-17.37-8.73-5.74-5.71-13.69-6.86-21.51-6.9-4.39-.02-8.34-1.09-12.23-2.81-1.32-.58-2.7-1.16-3.73-3.1,6.06-.46,11.6-1.54,16.59-4.46,1.18-.69,2.73-1.13,3.45-2.15,2.49-3.55,6.22-2.32,9.5-2.84,1.17-.18,1.69.77,2.33,1.55,2.04,2.5,4.09,5,6.27,7.38,2.28,2.48,4.71,4.69,8.34,5.22,2.06.31,4.36.61,2.44,4.11-1.33,2.42,1.75,4.02,3.04,5.88,2.1,1.49,3.65,3.61,5.89,4.97.8.48,2.16,1.31,1.38,2.56-.66,1.04-1.77.27-2.64-.13-.56-.26-1.21-.22-1.74-.55Z"/>
      <path class="cls-12" d="m625.21,255.68c1.4-.58,2.55.94,4.21.4-1.89-2.99-5.72-3.98-7.1-7.25,4.71,3.54,9.42,7.08,14.13,10.62-4.15-.47-7.89-1.61-11.24-3.78Z"/>
      <path class="cls-65" d="m451.28,140.61c-3.23.22-6.45-.25-9.58.8-1.7.57-2.78-.64-3.9-1.61-.47-.4-1.04-.83-.84-1.51.28-.93,1.15-.82,1.87-.76,4.33.32,8.46,1.44,12.45,3.09Z"/>
      <path class="cls-71" d="m483.5,152.09c7.1-2.11,12.07,1.63,17.52,3.07-5.73-.01-11.3-.78-17.52-3.07Z"/>
    </g>
  </g>
</svg>