<?xml version="1.0" encoding="UTF-8"?>
<svg id="Layer_2" data-name="Layer 2" xmlns="http://www.w3.org/2000/svg" viewBox="0 0 765.15 360.18">
  <defs>
    <style>
      .cls-1 {
        fill: #a6cacd;
      }

      .cls-1, .cls-2, .cls-3, .cls-4, .cls-5, .cls-6, .cls-7, .cls-8, .cls-9, .cls-10, .cls-11, .cls-12, .cls-13, .cls-14, .cls-15, .cls-16, .cls-17, .cls-18, .cls-19, .cls-20, .cls-21, .cls-22, .cls-23, .cls-24, .cls-25, .cls-26, .cls-27, .cls-28, .cls-29, .cls-30, .cls-31, .cls-32, .cls-33, .cls-34, .cls-35, .cls-36, .cls-37, .cls-38, .cls-39, .cls-40, .cls-41, .cls-42, .cls-43, .cls-44, .cls-45, .cls-46, .cls-47, .cls-48, .cls-49, .cls-50, .cls-51, .cls-52, .cls-53, .cls-54, .cls-55, .cls-56, .cls-57, .cls-58, .cls-59, .cls-60, .cls-61, .cls-62, .cls-63, .cls-64, .cls-65, .cls-66, .cls-67, .cls-68, .cls-69, .cls-70, .cls-71, .cls-72, .cls-73, .cls-74, .cls-75, .cls-76, .cls-77, .cls-78, .cls-79, .cls-80, .cls-81, .cls-82, .cls-83, .cls-84, .cls-85, .cls-86, .cls-87, .cls-88, .cls-89 {
        stroke-width: 0px;
      }

      .cls-2 {
        fill: #5a45bf;
      }

      .cls-3 {
        fill: #c5a0ee;
      }

      .cls-4 {
        fill: #5e46c1;
      }

      .cls-5 {
        fill: #d79bf0;
      }

      .cls-6 {
        fill: #d9a6f4;
      }

      .cls-7 {
        fill: #a9c7cf;
      }

      .cls-8 {
        fill: #fefefe;
      }

      .cls-9 {
        fill: #d076f1;
      }

      .cls-10 {
        fill: #5a42bd;
      }

      .cls-11 {
        fill: #fdfdfe;
      }

      .cls-12 {
        fill: #adb3ef;
      }

      .cls-13 {
        fill: #020202;
      }

      .cls-14 {
        fill: #b6cfd6;
      }

      .cls-15 {
        fill: #63347d;
      }

      .cls-16 {
        fill: #957ef8;
      }

      .cls-17 {
        fill: #c8b7d2;
      }

      .cls-18 {
        fill: #694ac5;
      }

      .cls-19 {
        fill: #aca7f8;
      }

      .cls-20 {
        fill: #63347c;
      }

      .cls-21 {
        fill: #cf26ef;
      }

      .cls-22 {
        fill: #010101;
      }

      .cls-23 {
        fill: #fefdfe;
      }

      .cls-24 {
        fill: #6049c0;
      }

      .cls-25 {
        fill: #faf6fe;
      }

      .cls-27 {
        fill: #ece7ef;
      }

      .cls-28 {
        fill: #eff5f7;
      }

      .cls-29 {
        fill: #fbfcfd;
      }

      .cls-30 {
        fill: #bfbeca;
      }

      .cls-31 {
        fill: #f6f5fd;
      }

      .cls-32 {
        fill: #010102;
      }

      .cls-33 {
        fill: #fcf7fe;
      }

      .cls-34 {
        fill: #353339;
      }

      .cls-35 {
        fill: #ce1fef;
      }

      .cls-36 {
        fill: #673a83;
      }

      .cls-37 {
        fill: #f2f2f5;
      }

      .cls-38 {
        fill: #3a3942;
      }

      .cls-39 {
        fill: #6c5fce;
      }

      .cls-40 {
        fill: #a4c9cb;
      }

      .cls-41 {
        fill: #cd1cf0;
      }

      .cls-42 {
        fill: #f33dd6;
      }

      .cls-43 {
        fill: #5b43bf;
      }

      .cls-44 {
        fill: #a4c8cc;
      }

      .cls-45 {
        fill: #5a42be;
      }

      .cls-46 {
        fill: #6551c2;
      }

      .cls-47 {
        fill: #fbfafc;
      }

      .cls-48 {
        fill: #000001;
      }

      .cls-49 {
        fill: #a5a2f7;
      }

      .cls-50 {
        fill: #5a43be;
      }

      .cls-51 {
        fill: #dc79f4;
      }

      .cls-52 {
        fill: #f4effd;
      }

      .cls-53 {
        fill: #69418b;
      }

      .cls-54 {
        fill: #5a42bf;
      }

      .cls-55 {
        fill: #6a3e86;
      }

      .cls-56 {
        fill: #f6fafb;
      }

      .cls-57 {
        fill: #fdfafe;
      }

      .cls-58 {
        fill: #9584f2;
      }

      .cls-59 {
        fill: #f4f7f9;
      }

      .cls-60 {
        fill: #fbf9fe;
      }

      .cls-61 {
        fill: #0b0a0c;
      }

      .cls-62 {
        fill: #7a6bd0;
      }

      .cls-63 {
        fill: #9583f6;
      }

      .cls-64 {
        fill: #f2f7f8;
      }

      .cls-65 {
        fill: #f6f9fa;
      }

      .cls-66 {
        fill: #6b53c7;
      }

      .cls-67 {
        fill: #5e47c0;
      }

      .cls-68 {
        fill: #edb3f9;
      }

      .cls-69 {
        fill: #cd1cef;
      }

      .cls-70 {
        fill: #6648c5;
      }

      .cls-71 {
        fill: #f9f8fa;
      }

      .cls-72 {
        fill: #5b44be;
      }

      .cls-73 {
        fill: #6b58c7;
      }

      .cls-74 {
        fill: #5a43bd;
      }

      .cls-75 {
        fill: #a960e4;
      }

      .cls-76 {
        fill: #bcc5f6;
      }

      .cls-77 {
        fill: #edf0f6;
      }

      .cls-78 {
        fill: #f4f8f9;
      }

      .cls-79 {
        fill: #fdfdfd;
      }

      .cls-80 {
        fill: #5e48c1;
      }

      .cls-81 {
        fill: #d43df0;
      }

      .cls-82 {
        fill: #6b59c9;
      }

      .cls-83 {
        fill: #fcf8fe;
      }

      .cls-84 {
        fill: #070808;
      }

      .cls-85 {
        fill: #5d45be;
      }

      .cls-86 {
        fill: #624ac2;
      }

      .cls-87 {
        fill: #d962f2;
      }

      .cls-88 {
        fill: #b6c8d7;
      }

      .cls-89 {
        fill: #f2eef4;
      }
    </style>
  </defs>
  <g id="Layer_1-2" data-name="Layer 1">
    <g>
      <path class="cls-40" d="m547.61,282.89c3.57,6.11,8.63,10.94,13.86,15.53,5.51,4.83,11.02,9.69,17.15,13.78.61.41,1.11,1,1.63,1.53.94.97,1.43,2.12.75,3.39-.74,1.39-2.21,1.32-3.32.91-3.36-1.24-6.63-2.72-10.52-4.34,3.35,5.06,7.62,8.63,11.03,12.91,3.59,4.5,6.99,9.07,9.12,14.47.7,1.78,1.41,3.64-.6,5.05-2.08,1.45-3.49.06-4.79-1.37-1.45-1.6-2.88-3.04-5.39-2.71-.7.09-1.58-.62-2.28-1.11-9.63-6.65-19.32-13.22-28.85-20.01-10.98-7.82-21.07-16.68-30.27-26.53-.67-.72-1.27-1.52-2.21-2.12-.04,1.92.93,3.91-1.05,5.11-2.12,1.29-4.38.84-6.42-.2-6.68-3.41-12.91-7.54-18.6-12.42-4.81-4.12-9.63-8.25-14.18-14.02,1.64,6.97,4.52,12.44,6.74,18.14.69,1.78,1.11,3.61,1.17,5.42.07,1.86-.58,3.86-2.81,4.32-1.91.4-3.12-.79-4.37-2.21-9.95-11.27-16.68-24.77-25.9-37.03-.55,3.37-.6,6.57-.01,9.6,1.85,9.46,2.03,19.01,2,28.58-.01,2.76-.96,5.08-3.92,5.53-3.15.48-4.23-1.85-4.99-4.41-3.28-11.07-6.6-22.13-9.93-33.19-.46-1.53-1.05-3.01-1.78-5.08-2.21,3.82-1.92,7.6-2.56,11.12-.98,5.45-1.52,10.98-2.32,16.46-.2,1.34-.35,2.91-1.13,3.9-2.48,3.16-.93,4.26,2.08,5.2,3.44,1.07,6.76,2.51,10.3,3.31,1.45.33,3.15.91,3.38,2.58.25,1.81-1.12,2.91-2.69,3.64-1.89.89-3.79,1.77-6,2.81,5.48,5.5,10.87,10.66,15.23,16.74,2.4,3.34,4.92,6.61,6.62,10.37,1,2.2,1.54,4.65-.3,6.64-1.86,2.02-4.23,1.12-6.27.22-6.98-3.06-12.23-8.49-17.89-13.33-4.55-3.89-9.05-7.84-14.18-10.94-7.87-4.76-11.19-4.45-17.85,2.02-5.36,5.2-10.37,10.77-15.59,16.12-1.21,1.24-2.57,2.38-4,3.35-4.01,2.71-6.89,1.2-7.15-3.7-.39-7.13,1.14-14.09,1.85-21.13.35-3.42,2.18-6.91-.15-10.44-.84-1.27.33-2.92.7-4.31,2.15-8.04,2.66-16.15,1.48-24.38-.34-2.38.23-4.68.05-7.15-2.04,5.59-4.07,11.19-6.13,16.78-.47,1.28-1.03,2.54-1.6,3.78-.66,1.42-1.55,2.71-3.35,2.39-1.74-.31-2.29-1.79-2.55-3.32-1.21-6.88-1.45-13.84-1.52-20.81-.01-1.09,0-2.19-.68-3.56-2.07,3.28-4.09,6.6-6.22,9.84-1.22,1.87-2.55,3.67-3.91,5.44-1.22,1.59-2.88,2.02-4.65,1.13-1.87-.94-2.07-2.72-1.63-4.53.58-2.39,1.3-4.76,1.43-7.44-2.29,3.39-4.51,6.83-6.89,10.15-2.89,4.04-5.17,4.15-8.64.58-1.74,2.27-3.37,4.63-5.24,6.78-1.63,1.87-3.74,3.29-6.23,1.73-2.68-1.68-1.25-3.87-.24-5.9.53-1.07,1.02-2.17,1.37-3.44-1.9,1.45-3.64,2.83-6.27,2.52-1.31-.16-1.87,1.43-2.55,2.47-5.29,8.15-10.59,16.29-15.9,24.42-.47.73-.92,1.51-1.54,2.1-1.53,1.46-3.07,3.17-5.47,1.46-2.16-1.54-2.11-3.56-1.01-5.63,3.35-6.26,6.62-12.57,10.24-18.67,1.67-2.81,3.01-5.72,4.2-8.72,2.57-6.46,5.62-12.74,7.53-19.45.34-1.21.75-2.36.3-4.33-2.43,5.96-5.21,11.05-8.64,15.76-6.1,8.38-13.02,16-20.79,22.9-5.49,4.88-10.72,10.06-16.05,15.13-.91.87-1.82,1.73-3.05,2.1-2.19.66-4.39-1.25-3.45-3.26,1.06-2.28,1.76-4.73,3.98-6.57,5.85-4.85,10.85-10.56,15.29-16.89-5.51-.37-5.74-.83-4.74-9.35-3.14,1.27-5.43,3.6-7.93,5.53-23.72,18.35-47.73,36.28-72.34,53.43-9.58,6.68-18.65,14.09-27.96,21.17-2.19,1.67-4.48,3.17-7.01,4.26-1.81.78-3.67,1.3-5.12-.5-1.63-2.03-.48-3.94.98-5.3,4.27-3.99,8.57-7.98,13.14-11.62,14.6-11.61,28.52-24.12,44.44-34,6.27-3.89,11.43-9.02,17.07-14.04-3.37-1.8-7.49,2.64-9.7-2.09-1.3-2.19.06-3.53,1.63-4.65,1.62-1.15,3.29-2.27,5.14-3.03,4.26-1.76,7.96-4.45,11.77-6.96,3.69-.36,6.65-2.69,10.07-3.79.62-.2,1.04-.77,1.1-1.41.55-6.04,3.72-11.53,3.18-17.88-.43-5.02-1.68-9.5-4.66-13.51-6.4-8.62-14.32-15.13-24.89-18.04-3.47-.96-6.76-2.54-10.35-3.11-6.21-3.38-12.92-5.2-19.88-6.19-4.38-1.63-9.01-2.38-13.47-3.72-3.31-1.01-6.59-2.14-10.01-2.75-3.94-1.25-8.04-1.88-11.96-3.18-6.14-2.25-12.53-3.65-18.79-5.48-2.59-.75-5.64-1.39-5.78-5.09.53-1.56,2.16-1.29,3.87-1.85-4.19-2.38-8.15-3.7-12.2-4.81-1.44-.39-2.9-.68-4.33-1.09-6.12-1.74-6.96-4.47-2.49-9.32-11.78-3.36-22.51-9.21-34.43-11.88,1.73,1.71,5.04,2.66,3.4,5.78-1.5,2.83-4.36,1.68-6.71.93-4.08-1.3-8.38-.49-12.43-1.34-12.29-2.57-22.22-9.77-32.02-17.07-6.87-5.12-13.65-10.37-18.58-17.62-6.13-9.02-8-19.39-9.94-29.76-.16-.84.06-1.77-.73-2.41v-5.99c3.34-3.64,4.81-3.62,8,.19,3.67,4.38,7.31,8.8,10.99,13.17.64.76,1.37,1.48,2.17,2.04,3.33,2.35,4.15,2.11,5.38-1.82,4.47-14.24,9.08-28.42,15.24-42.06,2.21-4.89,1.88-5.16-3.41-5.26-1.25-.02-2.5-.08-3.74.04-2.21.21-3.98-.43-5-2.47-1.05-2.1-.18-3.9,1.2-5.47,4.29-4.9,9.12-9.26,14.57-12.78,17.36-11.23,34.69-22.54,53.23-31.79,9.37-4.68,19.08-8.55,29.51-10.23,1.6-.26,3.26-.51,4.79.2,2.31,1.07,2.58,3.81.64,5.91-3,3.24-6.67,5.73-10.45,7.81-9.09,5-16.06,12.54-23.9,19.02-4.41,3.64-8.78,7.39-12.8,11.45-7.57,7.66-12.21,17.15-15.96,27.11-.3.81-.37,1.73-.79,2.47-.93,1.65-2.03,3.28-4.3,2.95-2.33-.34-2.75-2.26-3.07-4.14-.15-.84-.13-1.71-.24-3.52-5.28,9.7-7.86,18.79-4.13,28.88,1.67-.5,2.36-1.84,3.13-3.1,2.29-3.7,4.5-3.88,7.13-.31,3.16,4.31,5.98,8.88,9.15,13.19,2.87,3.91,6.64,6.93,10.92,10.14.14-4.75-.06-8.97.89-13.07.33-1.44.62-2.94,1.25-4.26,1.24-2.64,3.47-3.8,6.39-3.62,3.01.18,3.97,2.33,4.35,4.78,1.25,8.08,4.25,15.53,7.69,22.88,2.56,5.49,6.55,9.44,11.33,13.04,8.72,6.57,18.75,10.24,28.77,14.02,2.53.95,5.1,1.78,8.28,2.88-3.11-5.97-6.14-11.35-7.66-17.4-.86-3.42-1.44-6.8-1.21-10.31.15-2.24.91-4.25,3.2-5.02,2.54-.85,3.51,1.22,4.55,2.91.77,1.24,1.46,2.51,2.62,4.52.16-4.27.41-7.69,1.6-10.93.83-2.25,1.8-4.76,4.63-4.71,2.65.05,3.63,2.48,4.17,4.67,2.26,9.14,7.55,16.12,15.05,21.57,5.27,3.83,11.35,6.06,17.18,8.95,1.19-5.23,2.49-5.71,9.3-3.11-3.25-4.5-6.56-8.11-8.91-12.38-3.43-6.22-5.31-12.62-3.11-19.66.55-1.76,1.29-3.59,3.55-3.9,2.47-.34,3.09,1.58,3.99,3.22,6.76,12.4,15.94,22.86,26.19,32.42,3.71,3.46,8.22,5.85,13.56,8.49-1.09-1.92-1.8-3.03-2.37-4.21-1.37-2.8.25-5.58,3.3-5.16,1.69.23,2.38.07,3.16-1.41,1.41-2.68,3.28-2.38,5.49-.68,9.9,7.58,18.95,16.16,28.32,24.36,1.53,1.34,2.71,2.37,4.61.38,1.98-2.09,4.63-1.02,7.9-.42-3.12-5.31-5.87-9.94-8.57-14.59-1-1.72-2.13-3.43-2.74-5.3-.8-2.45-.87-5.09,1.8-6.6,2.4-1.36,4.5-.53,6.33,1.43,4.18,4.48,7.47,9.62,10.99,14.58,4.1,5.77,9.35,10.32,14.69,14.81,2.51,2.11,5.12,1.53,6.96-1.29.96-1.47,1.51-3.07,1.77-4.86.19-1.36,1.02-2.56,2.65-2.77,1.38-.18,2.27.43,3.19,1.47,3.85,4.34,6.02,9.71,9.17,14.47.84,1.27,1.37,3.15,3.54,2.71,1.57-.31,4.09-.31,4.45-1.18.64-1.51.19-3.64-.99-5.23-3.66-4.92-6.37-10.38-8.94-15.9-.83-1.78-2.36-4.11.26-5.62,2.26-1.31,4.24-.14,5.91,1.68,2.79,3.06,3.06,3.01,4.55-1.08.8-2.18,2.04-3.64,4.43-3.99,2.25-.33,6.74-4.85,7.18-7.01.3-1.44-.97-1.14-1.56-1.6-7.02-5.43-14.86-3.06-22.53-2.38-6.68.59-13.39.77-20.05,1.83-3.34.53-5.82-1.38-6.61-4.76-2.38-10.22-3.68-20.5-2.27-31.03.86-6.39,1.39-12.82,2.46-19.19.71-4.21,2.43-7.1,7.09-7.77,3.43-.49,6.63-2.08,10.14-2.41,2.23-.21,2.52-2.13,2.9-3.82.39-1.72-.72-2.24-2.11-2.91-3.78-1.81-4.82-4.94-3.48-9.49,2.41-8.19,14.84-15.41,22.56-11.65,5.42,2.64,6.45-.18,8.53-3.25,1.91-2.81,4.46-5.03,6.94-7.31,1.96-1.81,4.33-2.52,6.9-1.3,2.38,1.13,2.7,3.31,2.75,5.68.05,2.54-.53,4.94-1.2,7.33-.6,2.14,0,3.14,2.3,2.85,6.92-.86,13.85-1.17,20.81-.65,2.48.19,2.9-.76,2.46-3.09-1.06-5.61.09-9.01,3.07-10.2,3.14-1.26,6.73.37,10.1,4.72,1.75,2.26,3.36,4.63,5.06,6.94.53.72,1.05,2.24,2.17.96,2.55-2.92,5.68-4.67,9.48-4.22,5.93.71,11.39,2.72,15.42,7.49.32.38.7.72,1,1.11,3.56,4.79,2.77,10.13-2.16,13.57-1.21.84-1.57,1.48-1.22,2.99.33,1.46.75,2.12,2.31,2.25,2.22.18,4.42.68,6.63,1,7.28,1.03,9.67,6.45,10.57,12.56,1.14,7.73,1.45,15.57,2.42,23.33.77,6.13.41,12.17-.91,18.12-.8,3.61-2.04,7.15-3.41,10.58-.82,2.06-2.79,2.74-5.01,2.33-10.03-1.87-20.35-1.32-30.31-3.75-1.06-.26-1.95-.18-2.87.26-3.94,1.93-8.24,2.71-12.84,3.85,2.92,3.05,4.64,6.79,9.13,7.93,3.21.82,5.4,3.42,5.61,6.78.43,6.68,4.4,9.31,10.42,10.05,2.46.3,4.9.78,7.37,1.09,2.36.3,2.65-.8,1.46-2.53-1.79-2.59-2.79-5.56-4.1-8.38-.85-1.82-1.62-3.76.3-5.48,1.69-1.51,3.4-1.37,5.5-.58,10.7,4.04,21.04,9.25,32.36,11.35,4.22.78,6.54,2.08,6.76,6.51.12,2.3,1.7,1.14,2.72.68,7.83-3.53,15.6-7.15,22.84-11.83,8.9-5.75,18.06-11.06,27.66-15.6,1.61-.76,3.24-1.22,5.04-1.07,2.31.19,3.92,2.04,3.41,3.66-1.44,4.61,2.69,7.94,2.2,12.27-.16,1.4,1.6,1.99,3.03,2.3,6.63,1.42,13.29,1.74,20.04.93,2.84-.34,6.01-1.67,8.13,1.7.58.93,1.32.61,1.84.02,5.88-6.7,14.24-9.94,21.28-15.02,11.01-7.95,17.34-18.95,22.57-30.92.7-1.6,1.46-3.17,2.21-4.73.75-1.55,1.95-2.81,3.68-2.81,1.86,0,3.16,1.2,3.91,2.98,2.8,6.6,3.81,13.3,1.64,20.31-1.48,4.79-3.47,9.3-6.37,13.41-.54.76-2.18,1.76-.38,2.63,1.57.76,1.62,3.98,4.61,2.51,14.09-6.96,26.03-15.72,28.98-32.6.64-3.68,2.43-7.04,4.04-10.42.78-1.65,1.89-2.84,3.98-2.88,2.26-.05,3.44,1.22,4.29,3,.54,1.12,1.14,2.28,1.33,3.48,1.87,11.86,3.51,23.72-3.44,34.72-.18.28-.2.67-.52,1.86,2.23-1.15,3.96-1.95,5.6-2.91,13.74-8.03,24.76-19.11,34.86-31.21.72-.86,1.45-1.71,2.2-2.54,1.45-1.57,2.96-3.48,5.37-2.37,2.39,1.1,2.32,3.63,2.39,5.86.04,1.21-.16,2.44.02,3.68,2.53-4.67,2.35-9.7,1.66-14.68-.63-4.61.45-5.94,5.33-5.19-.6-3.09-2.26-5.57-4.03-7.82-8.83-11.25-17.25-22.89-26.88-33.43-7.61-8.32-16.7-15.3-24.75-23.29-1.77-1.75-3.62-3.42-5.49-5.06-2.57-2.26-4.71-4.85-8.15-6.29-3.4-1.43-5.1-5.05-5.99-8.64-.81-3.26,2.11-5.62,5.65-4.56,6.66,1.99,12.32,5.74,17.78,9.99,9.88,7.68,18.05,17.12,27.08,25.68,12.75,12.09,23.87,25.68,34.5,39.65,5.65,7.42,8.89,15.79,8.55,25.69,3.12-1.67,4.44-4.51,5.82-7.08,1.14-2.12,2.53-3.46,4.83-3.41,2.28.05,3.95,1.41,4.97,3.45,2.31,4.59,2.45,9.24.48,14.01-4.5,10.9-12.31,18.85-22.1,25.1-17.82,11.38-36.79,20.24-56.7,27.43-24.58,8.89-49.82,15.46-74.92,22.56-2.12.6-4.19,1.38-6.27,2.39,2.94.37,5.78.79,8.35,2.2.48,1.12.66,2.23-.1,3.31-1.73,1.45-4.07,1.8-5.83,3.2-2.01,1.28-4.39,1.52-6.54,2.4-2.87,1.12-5.84,1.95-8.65,3.23-13.97,2.51-27.09,7.25-39.12,14.86-4.96,3.14-9.6,6.64-13.39,11.17-6.17,3.78-7.92,9.59-7.55,16.38.49,5.5.26,11.18,3.88,15.9,1.29,1.68,2.81,3.13,4.61,4.27.84.53,1.96.95,2.25,1.87.98,3.21,3.18,5.51,5.39,7.84.5.52.79,1.26.51,2.06Z"/>
      <path class="cls-20" d="m612.01,199.16c.11-.92-.59-1.87.12-2.77,2.37-.57,5-.58,6.53-3.02.18-.28.6-.52.95-.57,9.55-1.44,18.54-6,28.5-5.1,1.34.12,2.7.22,4,.81,2.45,1.11,4.22,2.58,4.3,5.51.08,2.79-1.1,4.81-3.55,6.07-3.99,2.04-8.15,3.78-11.7,6.59-1.07.85-2.11,1.75-3.04,2.75-1.75,1.87-1.33,2.82,1.26,3.29,3.73.67,7.07.27,10.35-1.79,4.36-2.73,8.61-5.54,11.92-9.52,1.98-2.38,3.76-2.27,5.97-.27,1.65,1.49,2.8,3.22,3.31,5.29,4.73,19.03,17.74,21,33.7,21.23,7.03.1,13.29-2.67,20.06-3.14,2.47-.17,4.72-.31,6.31,2.03,1.56,2.31.95,4.48-.38,6.61-.07.11-.14.21-.18.33-.59,2.01-3.56,3.06-2.9,5.28.71,2.38,3.18,3.74,4.95,5.47,2.19,2.14,4.98,3.26,7.76,4.38,1.96.79,3.74,1.81,3.45,4.24-.3,2.51-2.36,3.43-4.51,3.82-4.26.79-8.44.02-12.56-1.05-1.2-.31-2.4-.68-3.56-1.12-3.3-1.25-6.41-2.84-7.12,2.95-.29,2.34-2.88,3.61-5.41,3.97-1.34.19-2.75-.05-4.21.89,3.8,5.68,7.78,11.21,10.9,17.29,1.6,3.12,2.85,6.3,3.59,9.74,1.13,5.21-.92,8.46-6.18,9.39-4.46.79-8.69-.33-12.81-1.77-7.9-2.75-15.33-6.56-22.89-10.1-.71-.33-1.37-1.16-2.53-.56.45,1.83,1.83,2.83,3.27,3.77,1.37.9,2.16,2.08,1.81,3.75-.31,1.47-1.27,2.39-2.75,2.73-9.82,2.25-19.52,2.05-29.04-1.46-1.02-.38-2-1.03-2.84-1.74-1.7-1.44-3.67-2.94-3.12-5.52.56-2.64,2.87-3.08,5.16-3.54,1.42-.28,2.95-.53,4.19-1.73-1.54-2.77-3.74-4.85-6.45-6.51-6.57-4.05-13.73-6.44-21.3-7.71-.94-.16-2.13-.81-2.75.17-.62,1,.42,1.86,1.05,2.57,3.2,3.66,6.47,7.25,9.66,10.91,1.81,2.07,3.13,4.26,1.25,7.03-1.81,2.68-4.36,2.02-6.75,1.39-3.12-.83-6.16-1.96-9.23-2.97-1-.33-1.79-1.14-2.51.7-1.77,4.5-4.22,5.25-8.74,2.97-5.47-2.76-11.2-4.75-17.16-6.15-2.9-.68-3.29.07-2.23,2.75,1.95,4.92-.54,7.8-5.74,6.95-2.98-.49-5.84-1.37-8.55-2.62-8.4-3.88-17.31-6.27-26.04-9.17-1.91-3.19-6.14-4.78-6.33-9.18-.02-.36-.6-.78-1.01-1.01-8.81-4.84-10.36-12.98-10.06-21.97.4-6.48,3.2-11.84,7.69-16.41,6.84-9,16.6-13.85,26.43-18.62,7.63-3.7,15.88-5.53,23.95-7.92,1.08-.32,1.94.08,2.9.19,4.32.62,5.91,4.65,3.18,8.15-.92,1.18-2.22,2.02-3.05,3.28-.54.82-1.31,1.71-.59,2.7.61.85,1.62.46,2.44.26,8.36-2.01,10.86-6.16,7.54-13.78-.58-1.33-1.81-2.46-1.42-4.13,2.28-.76,4.56-1.51,6.84-2.27,3.35,3.53,4.89,7.72,4.6,12.58-.16,2.74-1.16,5.22-3.22,6.96-5.31,4.46-11.33,7.29-18.48,6.82-6.35-.42-8.24-4.07-5.12-9.64,1.06-1.88,2.57-3.35,4.03-4.89.51-.54,1.19-1.17.78-1.93-.38-.71-1.29-.69-2.04-.6-5.01.56-9.76,2.02-14.3,4.17-1.95.92-1.96,2.55-1.79,4.44.34,3.99-1.07,7.36-4.29,9.83-2.33,1.78-4.86,1.74-6.42-.07-1.79-2.09-.81-3.91.7-5.64.64-.74,1.45-1.37,1.46-2.81-4.17,2.15-8.57,3.87-12.29,6.79-2.04,1.6-4.13,3.24-5.68,5.4-.65.9-1.57,1.92-.97,3.03.72,1.33,2.01.45,3.03.28,5.06-.85,9.2.91,11.5,4.97,2.04,3.6,1.7,7.19-.92,9.58-3.12,2.85-8.3,3.09-11.77.5-1.3-.97-2.41-2.17-3.37-3.48-.96-1.31-1.15-3-1.96-4.26-1.43-.22-1.76.75-1.99,1.5-2,6.7-1.61,13.06,3.02,18.68,1.51,1.83,2.85,2.77,4.98.12,3.1-3.86,7.83-4.7,12.52-4.7,3.57,0,3.91,2.78,3.58,5.65,2.16-.23,2.98-1.74,3.95-2.98,1.15-1.49,2.65-2.27,4.45-2.47,2.63-.29,5.13.26,6.6,2.59,1.41,2.23.63,4.69-.62,6.74-1.53,2.51-3.81,4.15-6.79,4.9-5.51,1.37-10.9.65-16.31-.5-.98-.21-1.93-.52-2.93-.61-.49-.04-1.04-.08-1.25.51-.18.51.07.96.39,1.36.48.59,1.09,1.03,1.77,1.35,9.62,4.51,19.5,8.34,29.81,10.98.36.09.74.09,1.16-.19.56-1.41-.57-2.51-.89-3.78-.76-3.03-.04-4.48,2.98-5.32,3.79-1.05,7.42.07,11.03,1.06,5.17,1.41,9.85,4.19,14.96,5.53.49-.34.52-.7.46-1.08-.3-1.9-1.78-4.15.17-5.57,1.65-1.2,3.53.43,5.19,1.17,3.29,1.47,6.61,2.86,10.85,4.32-2.22-2.98-4.43-4.92-6.06-7.32-1.13-1.66-2.19-3.33-2.64-5.32-1.07-4.78,1.11-7.71,6.03-8.2,6.05-.59,11.69.94,17,3.59,6.27,3.13,12.28,6.71,16.46,12.61,4.17,5.88,3.2,8.36-3.88,9.85-.47.1-1.01.1-1.41.9,6.79,3.37,14.02,2.19,21.36,2.24-2.22-2.18-3.37-4.74-3.71-7.61-.34-2.83.94-4.27,3.8-4.26,2.28,0,4.41.78,6.51,1.59,7.57,2.92,15.13,5.85,22.83,8.41,2.74.91,5.53,1.6,8.41,1.76,3.5.19,4.3-.81,3.29-4.22-1.32-4.48-4.03-8.28-6.42-12.22-3.42-5.65-7.04-11.18-10.6-16.76-.7-1.1-2-2.35-.94-3.67.91-1.12,2.35-.28,3.5.06,1.8.53,3.61,1,5.46,1.29,4.44.68,6.42-.96,6.49-5.34.1-6.98.06-6.87,6.65-4.22,5.77,2.32,11.56,4.67,18.37,5.76-1.03-1.63-2.36-1.91-3.4-2.54-3.85-2.33-7.71-4.62-10.01-8.75-2.44-4.38-2.27-5.95,1.3-9.42.35-.34.74-.68.75-1.59-2.78-.09-5.33.9-7.92,1.62-11.81,3.28-23.48,3.1-34.79-1.89-8.59-3.78-15.12-9.65-17.35-19.21-.62-2.67-1.62-2.51-3.51-1.08-5.08,3.86-10.27,7.54-16.7,8.89-3.53.75-6.96.66-10.22-1-4.99-2.53-5.71-6.42-2.01-10.52,3.57-3.96,8.03-6.67,12.69-9.12,1.26-.66,2.72-1.07,3.88-2.66-11.55,1.57-22.91,1.71-34,4.29-1.29.3-2.66.94-3.89-.23Z"/>
      <path class="cls-20" d="m186.51,212.59c7.12.53,13.83,2.38,19.99,6.07,3.02,2.02,6.38,3.26,9.73,4.62,5.74,2.35,10.63,6.16,14.49,10.94,5.65,7.01,10.4,14.62,11.93,23.74,1.38,8.19-3.27,17.04-10.36,19.95-4.68,4.51-11.03,6.26-16.29,9.82-1.58,1.07-2.63,2.2-2.52,4.17-5.95,1.48-11.45,4.17-17.13,6.38-2.22.86-4.45,1.63-6.82,1.91-5.41.64-7.51-1.89-5.82-6.98.27-.81.57-1.62.88-2.52-2.58-.71-4.89.02-7.06.83-4.65,1.74-9.46,3.05-13.87,5.5-3.71,2.06-6.54.91-7.9-2.96-.66-1.88-1.51-1.42-2.8-.98-3.3,1.12-6.61,2.22-9.97,3.15-2.26.62-4.51.52-6-1.76-1.49-2.28-.72-4.32.87-6.13,2.86-3.29,5.83-6.49,8.69-9.78,1.12-1.28,2.06-2.72,3.21-4.26-2.83-1.23-5.21.02-7.52.55-7.96,1.82-15.57,4.53-21.55,10.44-2.74,2.7-2.55,3.24,1,4.21,2.59.7,6.04.61,6.28,4.17.23,3.57-2.69,5.63-5.53,6.81-9.66,4.01-19.69,3.93-29.69,1.52-3.19-.77-3.54-3.81-1.05-6.01q2.81-2.47,3.55-4.53c-7.58,3.39-15.01,6.78-22.51,10.02-3.66,1.58-7.52,2.64-11.51,3.09-8.02.89-11.69-3.29-9.99-11.03.76-3.47,2.16-6.63,3.93-9.61,2.81-4.7,5.87-9.25,8.82-13.86.52-.81,1.03-1.61,1.61-2.51-8.69-1.07-9.39-1.63-11.38-9.12-5.28,1.38-10.34,3.55-15.84,4.13-2.57.27-4.97-.1-7.36-.79-1.68-.48-2.85-1.66-3.03-3.44-.19-1.88.97-3.06,2.61-3.66,4.65-1.71,8.62-4.36,12.02-7.98,1.69-1.8,2.5-3.2.32-5.22-1.05-.98-1.76-2.42-2.38-3.76-1.98-4.27.33-7.99,5.01-7.77,3.09.14,6.29.52,9.2,1.49,8.56,2.85,17.21,1.77,25.77.74,9.02-1.09,15.16-6.29,18.51-14.86,1.37-3.51,1.56-7.52,4.8-10.33,2.5-2.17,4.22-2.47,6.52.22,3.6,4.21,8.14,7.28,13,9.93,2.42,1.32,4.87,1.84,7.54,1.37,1.29-.23,3.18.03,3.61-1.29.49-1.53-1.1-2.65-2.21-3.6-3.24-2.77-6.96-4.8-10.76-6.68-.78-.39-1.6-.69-2.38-1.08-2.72-1.36-4.14-3.49-3.9-6.61.25-3.12,2.45-4.4,5.02-5.36,2.04-.77,4.18-.58,6.29-.77,1.31,3.06,4.24,3.63,6.98,4.43,5.94,1.74,12.06,2.89,17.78,5.37-3.65,2.01-7.3.07-10.91-.12-5.82-.31-11.63-.93-17.49-1.64,2.4,2.38,5.57,3.47,8.28,5.28,2.91,1.94,5.97,3.7,8.25,6.39,3.4,4.01,2.76,7.51-1.78,10.2-3.04,1.8-6.32,2.2-9.76,1.44-6.61-1.48-12.33-4.7-17.45-9.02-1.67-1.41-2.76-2.21-3.45.77-2.7,11.62-11.01,17.63-21.64,21.18-10.7,3.57-21.38,3.04-32-.38-1.19-.38-2.4-.69-3.64-.87-.97-.14-1.93-.57-2.94-.23-.48.54-.02.88.29,1.21,4.14,4.43,4.23,7.81.17,12.31-2.28,2.52-5.04,4.45-8.02,6.08-1.28.7-2.78,1.06-4.26,2.89,6.76-1.05,12.52-3.15,18.13-5.65,7.06-3.14,7.03-3.2,7.13,4.32.05,3.34,2.12,5.38,5.48,5.17,2.37-.15,4.66-.83,6.97-1.4,1.04-.26,2.3-1.02,3.12.12.87,1.21-.03,2.36-.7,3.42-2.87,4.53-5.83,9-8.62,13.58-2.86,4.68-5.91,9.26-8,14.36-1.85,4.52-.64,5.95,4.3,5.18,6.85-1.06,13.13-3.93,19.58-6.25,4.23-1.52,8.44-3.09,12.68-4.55,2.35-.81,5.09-1.86,6.89.64,1.83,2.55.6,5.25-.85,7.69-.51.85-1.45,1.38-2.04,2.93,7.27-.26,14.38.84,21.26-2.34-.81-1.38-1.94-1.05-2.83-1.27-4.47-1.09-5.85-4.2-3.32-8.13,2.67-4.14,6.31-7.42,10.4-10.1,7.12-4.65,14.76-7.85,23.5-7.52,5.86.22,8.11,3.31,6.35,8.92-1.42,4.53-4.85,7.76-8.05,11.75,3.61-.92,6.49-2.51,9.47-3.8,1.14-.5,2.24-1.11,3.44-1.47,3.53-1.07,4.3-.31,3.48,3.36-.21.93-.85,1.84-.12,3.14,2.39-.3,4.67-1.21,6.89-2.3,4.29-2.1,8.8-3.5,13.5-4.34,1.49-.26,2.98-.38,4.47-.13,3.67.62,4.99,2.87,3.89,6.52-.28.93-.95,1.77-.7,2.82,6.73.09,30.9-9.76,33.36-13.78-3.64-.1-6.96.98-10.35,1.33-3.65.37-7.22.41-10.76-.61-2.6-.75-4.81-2.01-6.19-4.48-1.82-3.25-1.85-6.77.01-8.33,2.6-2.17,7.26-1.71,9.92.97,1.19,1.2,2,2.89,3.94,3.2.49-5.22,2.31-6.56,7.57-5.35,3.67.85,7.27,1.96,9.47,5.43,1.04,1.64,2.06.76,3.09-.03,5.36-4.12,7.45-14.42,4.11-20.22-.31-.54-.57-1.22-1.31-1.11-.88.13-1.04,1-1.28,1.68-1.52,4.39-4.27,7.23-9.15,7.62-4.35.34-7.45-1.26-8.87-4.72-1.19-2.88.23-7.44,3.12-9.71,2.83-2.22,5.97-2.95,9.51-1.92.99.29,2.32.97,3.02-.37.61-1.16-.3-2.14-1-3-4.85-5.98-11.46-9.35-18.79-12.93.76,2.2,2.19,3.14,2.79,4.58.67,1.6.91,3.16-.39,4.53-1.38,1.45-3,1.54-4.8.77-3.65-1.57-6.18-5.84-5.44-10.5.49-3.09-.79-4.38-3.29-5.3-4.88-1.79-9.75-3.58-15.4-3.39.66,2.61,2.69,3.69,3.8,5.41,1.74,2.71,4.27,5.44,2.26,8.83-1.92,3.23-5.51,3.14-8.77,2.81-4.52-.46-8.8-1.93-12.61-4.43-6.49-4.25-8.22-9.7-5.05-16.77,1.14-2.55,1.6-4.77.19-7.22,3.27.67,6.57,1.21,9.59,2.76.47,2.2-1.06,3.73-1.89,5.48-3.32,6.98-.16,12.74,7.52,13.66.86.1,1.82.35,2.37-.55.54-.88-.07-1.65-.56-2.36-.64-.92-1.48-1.66-2.23-2.49-3.96-4.4-2.58-8.73,3.2-10.15,1.74-.43,3.42-.28,5.1.21Z"/>
      <path class="cls-23" d="m525.16,255.29c10.02,23.65,28.64,40.12,47.33,56.56-5.49-2.42-10.14-6.12-14.54-10.03-13.77-12.2-28.19-23.61-42.32-35.38-.84-.7-2.05-1.02-2.76-1.82-1.27-1.43-4.57-2.8-.49-4.96.8-.42,1.59-1.49,1.07-2.89-3.57-9.64-5.82-19.74-10.1-29.14-.45-.99-.63-2.51-1.87-2.52-1.18-.01-1.57,1.42-2.1,2.4-3.64,6.67-1.23,12.73,1.95,18.66,2.15,4.02,4.76,7.76,8.51,11.81-4.2-.69-5.72-4.35-9.94-4.81,10.03,16.88,25.24,26.92,40.55,36.89-7.42-2.31-13.31-7.6-20.82-10.24,5.1,10.73,12.34,19.01,22.45,24.69.89.5,1.7,1.37,2.63.64,1.2-.95.2-2.09-.24-3.03-.99-2.11-2.13-4.15-3.26-6.32,5.5,1.01,36.53,35.23,40.02,44.46-7.03-6.99-10.84-15.97-20.13-21.06,3.46,7.08,8.64,11.48,13.01,16.57-18.33-10.94-34.91-24.16-49.79-39.3-14.8-15.06-30.78-29.12-42.92-46.71.86,5.45,3.73,10.03,6.41,14.6,5.17,8.81,10.96,17.22,17.69,24.94.41.47.79.97,1.1,1.51.39.67,1.51,1.27.5,2.2-.7.64-1.41.08-2.05-.25-3.64-1.93-7.16-4.11-10.25-6.82-11.55-10.12-21.61-21.61-30.8-33.88-.5-.66-.72-1.64-2.12-1.67.21,6.42,2.53,12.24,4.71,18.07,2.14,5.71,4.73,11.24,7.53,16.67.43.84,1.39,2.05.35,2.66-1.31.77-1.86-.81-2.41-1.67-7.51-11.59-15.07-23.15-21.22-35.55-2.52-5.09-5.07-10.17-6.77-16.25-1.67,2.87-2.13,5.35-2.08,7.92.26,15.8,1.61,31.5,4.15,47.1.28,1.73,1.93,4.59-.37,5.18-1.94.49-1.92-2.7-2.37-4.35-4.5-16.43-9.91-32.57-15.58-48.63-.35-1-1.65-2.36.02-3.28,1.39-.77,2.27.48,3.18,1.31.98.9,1.96,1.79,3.59,2.34-1.6-7.6-3.12-15.21-4.82-22.78-1.49-6.63-1.57-6.6-7.97-3.89-2.38,1.01-3.53,2.4-2.68,5.22,1.81,6.01,2.8,12.3,6.51,17.6.41.59.3,1.12.16,1.75-3.52,15.93-4.39,32.2-6.25,48.34-.12,1.01.25,2.63-1.33,2.57-1.18-.05-1.03-1.54-1.13-2.49-.78-7.78-1.5-15.56-2.82-23.27-1.36-7.95-2.53-15.92-3.82-23.88-.56-3.43-3.82-3.42-6.4-5.08-1.57,10.71,2.91,20.47,2.6,30.73-4.83-12.31-7.83-25.23-13.14-37.95-2.44,4.33-3.43,8.52-3.87,12.75-1.3,12.65-1.4,25.32.51,37.94.37,2.45-.06,4.97.69,7.42.29.96.17,2.27-1.02,2.47-1.27.21-1.5-1.15-1.66-2.07-.89-5.13-1.71-10.27-2.67-16.16-2.19,9.65-3.14,18.95-8.51,27.87-.69-7.07.31-13.1.79-19.07.68-8.47.4-16.93.57-25.38.06-3.12.11-6.25-.13-9.35-.32-4.15-.03-7.89,3.88-10.48,1.49-.99,1.61-2.71,1.52-4.39-.41-8.53-2.66-16.57-6.55-25.3-.69,14.32-2.29,27.51-5.17,40.51-2.85,12.85-5.53,25.75-10.04,38.29,0-3.29-.3-6.61.05-9.87,1.18-10.94.57-21.91.63-32.86.01-2.21.53-4.02,1.67-5.94,4.26-7.18,5.02-15.17,5.13-23.84-3.58,1.65-7.06,2.65-9.74,4.68-2.32,1.76-2.03,5.23-2.19,8-.55,9.29-1.59,18.58-.26,27.92.39,2.75-2.1,4.94-3.17,7.42-2.55,5.87-5.57,11.53-8.74,17.96-.61-4.45.88-8.78,3.7-12.09-.13-3.18,1.44-5.89,2.58-8.66,1.15-2.78,1.92-5.55,1.74-8.56.02-3.49,0-6.98,0-10.47.02-2.55.01-5.09.02-7.64-.12-3.88.8-7.66,1.21-11.5.35-3.3,2.09-5.36,5.03-6.86,2.55-1.3,5.33-2.01,7.83-3.47,2-1.17,4.19.39,4.88,3.11.63,2.47.24,5-.03,7.44-.67,6.08-1.65,12.12-4.89,17.5-1.08,1.8-1.28,3.63-1.06,5.73.52,4.81.42,9.64-.38,14.43,3.74-17.95,6.67-36.02,7.73-54.36.09-1.52.17-3.2,1.96-3.66,1.87-.49,2.64,1.09,3.33,2.39,4.72,8.93,7.43,18.49,8.52,28.5.35,3.17-.73,6.06-3.01,8.16-2.98,2.74-3.12,5.99-2.71,9.59.95,8.43.69,16.86.02,24.36.14-.75.36-2.43.34-4.15-.02-1.88-.08-4.09,1.06-5.42,3.03-3.57,2.3-7.67,2.47-11.72.34-8.01,1.14-15.93,5.3-23.08.68-1.17,1.06-2.68,2.76-2.68,1.66,0,2.35,1.37,2.82,2.63,1.61,4.25,3.56,8.39,4.57,12.87-.68-2.2-.78-4.41,1.02-6.03,1.9-1.71,3.97-.57,5.95.24,3.84,1.57,5.86,4.37,6.34,8.5.96,8.23,2.49,16.39,3.57,24.36.43-8.22,1.62-16.59,3.25-24.89.54-2.72.26-5.11-.79-7.62-1.55-3.68-3.18-7.33-4.27-11.18-1.79-6.35-.32-9.23,5.83-11.68,8.33-3.32,9.8-2.54,11.74,6.19,1.46,6.57,2.8,13.17,4.13,19.78.35,1.72.51,3.43.42,5.19-.21,4.16-.96,4.71-5.37,3.5,2.39,8.14,6.38,15.63,7.66,23.26-1.82-7.16-1.53-15.24-2.23-23.21-.54-6.08.86-11.9,4.34-17.08,2.36-3.52,4.6-7.14,7.42-10.33,1.16-1.32,2.51-2.69,4.5-1.83,1.79.77,1.83,2.54,1.85,4.18.06,5.74.05,11.47,0,17.21-.01,1.13-.17,2.24-.47,3.33-.4,1.46-.76,3.03-2.55,3.36-1.81.33-2.65-1.03-3.4-2.34,3.56,7.3,8.02,14.13,11.45,21.52-2.35-5.11-3.56-10.46-3.17-16.11.1-1.48-.06-3.25,1.66-3.85,1.7-.59,2.82.85,3.71,1.97,4.36,5.46,8.73,10.9,13.32,16.17,6.06,6.96,12.42,13.64,18.15,19.86-7.26-9.85-14.65-20.48-18.27-33.2-.41-1.45-.68-2.91-.73-4.41-.05-1.45.26-2.86,1.76-3.4,1.46-.53,2.31.65,3.04,1.63,1.79,2.4,3.46,4.88,5.17,7.34,4.29,6.17,9.19,11.78,14.49,17.1,8.15,8.17,16.64,16.01,23.51,24-1.72-1.94-4.21-4.57-5.96-7.79-.54-.99-1.52-2.05-1.38-3.02.6-4.25-2.7-6.01-5.05-8.32-4.11-4.03-8.1-8.15-11.26-12.98-1.68-2.56-4.55-5.22-.33-8.2.88-.62-.15-1.59-.57-2.28-1.96-3.23-3.4-6.65-4.19-10.35-.96-4.51-.04-8.7,2.27-12.57,2.55-4.27,5.3-4.21,7.77.04,1.46,2.5,2.27,5.26,3.29,7.94,2.34,6.18,4.36,12.47,6.48,18.72.87,2.56,1.73,5.24.77,8.03-.54,1.58.22,2.58,1.39,3.51,6.04,4.77,11.8,9.89,17.54,14.7-3.54-4.27-6.8-8.94-9.48-14.01-.5-.95-.7-2.3-2.23-2.11-4.09.5-5.64-2.44-6.59-5.39-2.75-8.53-5-17.16,1.35-25.38-5.91-.84-6.93-3.11-3.71-7.78,4.45-6.46,11.03-10.34,17.59-14.24,5.95-3.54,12.36-5.91,18.9-8.04,3.03-.99,6.07-1.4,9.21-1.21,1.45.09,3.21-.2,3.8,1.64.53,1.68-.7,2.82-1.77,3.86-2.42,2.37-5.29,4.15-8.14,5.94-3.03,1.91-6.17,3.67-8.32,5.41,10.29-7.33,22.45-12.73,35-17.38q-2.98-3.6-7.64-2.27c-3.35.94-6.52,2.61-10.14,2.43-1.64-.08-3.38-.08-4.16-1.88-.78-1.83.49-3.05,1.57-4.27,2.01-2.27,4.56-3.86,7.08-5.49,13.84-8.93,28.99-15.02,44.53-20.22,4.16-1.39,5.19-.82,6.82,2.79,11.85-6.66,24.48-11.86,35.32-20.28,8.53-6.62,14.65-16.77,15.83-26.64-.46,4.36-4.44,12.09-8.11,16.09-6.44,7.02-14.47,11.8-22.71,16.28-5.15,2.81-10.5,5.23-16.01,7.27-1.17.43-2.35.87-3.6.99-1.14.11-2.34.09-3-1.04-.72-1.25-.31-2.41.62-3.41,1.27-1.36,2.81-2.46,3.74-3.9-7.3,4.41-14.92,8.53-22.55,12.63-4.94,2.66-9.74,5.61-14.96,7.73-1.04.42-2.07.88-3.16,1.15-1.32.33-2.54.18-3.24-1.13-.64-1.19-.03-2.24.81-3.01,2.65-2.47,5.59-4.6,8.65-6.52,9.08-5.7,18.24-11.28,26.54-18.11,4.32-3.56,8.68-7.14,11.7-12,2-3.22,3.22-6.74,3.7-9.87-7.85,16.31-20.62,28.41-37.58,36.2-2.39,1.1-4.65,2.31-6.69,4.04-4.07,3.45-8.96,5.46-14.05,6.8-4.52,1.2-6.62-1-5.63-5.65-2.51.05-4.99-.03-7.46.07-4.6.18-8.98-.55-12.92-3.03-1.83-1.15-3.03-.89-3.69,1.17-2.19,6.87-7.2,10.75-13.35,14.17-8.49,4.72-16.15,10.82-21.02,15.07,4.11-3.62,11.52-8.2,18.99-12.68,2.26-1.36,4.71-2.33,7.41-2.38,1.9-.03,3.93-.04,4.71,2.18.77,2.21-.69,3.53-2.34,4.57-3.59,2.26-7.2,4.49-10.67,6.94-10.38,7.34-19.58,15.86-26.22,26.84-4.29,7.09-7.14,14.56-5.49,23.09.24,1.22.33,2.64-1.01,3.33-1.59.82-2.59-.38-3.44-1.46-3.09-3.92-6.21-7.83-9.66-11.43-3.56-3.7-3.73-7.89-2.83-12.49,1.33-6.77,5.42-11.98,9.67-17.06,6.82-8.16,14.7-15.25,22.74-22.16,3.6-3.09,5.3-7.39,7.79-11.36-11.95,9.55-22.68,20.11-32.18,31.87-4.73,5.86-8.49,12.32-10.92,19.49-1.49,4.39-1.52,8.72.21,13.15,2.34,6.03,4.28,12.21,6.24,18.37.34,1.07.85,2.26-.58,2.9-1.06.48-2.08-.05-2.6-.94-5.18-8.87-12.66-16.6-13.99-27.38-1.72-13.96,1.59-26.3,11.33-36.94,6-6.55,12.39-12.59,18.88-18.29-3.67,2.04-7.82,3.63-11.87,5.45-2.83,1.27-5.03,3.14-6.95,5.51-6.25,7.73-11.05,16.3-14.68,25.52-.95,2.42-2.41,3.95-4.96,4.57-2.81.69-5.37,1.98-7.74,3.66-1.62,1.15-3.37,2.66-5.38,1.07-2.02-1.6-.82-3.69-.21-5.52,1.48-4.46,3.45-8.73,5.94-13.14-2.97.01-5.36.68-7.78,1.2-1.74.37-3.68.76-4.56-1.32-.76-1.79.9-2.65,2.03-3.57,10.56-8.56,20.88-17.47,33.36-23.27.68-.31,1.3-.75,1.9-1.2,2.3-1.74,2.35-2.59-.17-4.09-4.5-2.7-9.23-4.97-14.16-6.8-2.21-.82-4.4-1.72-7.19-2.57.81,2.29,1.91,4.04,2.76,5.88,3.07,6.66.33,11.23-7,11.99-7.11.74-13.6-1.3-19.9-4.17-4.54-2.07-9.27-3.66-13.92-6.11-.3,5.54,2,10.79-.26,16.91,1.61-2.17,2.82-3.44,4.78-2.8,1.66.54,2.16,2.04,2.27,3.56.62,8.91-.32,17.7-2.68,26.28-1.01,3.67-2.56,3.91-5.18,1.09,1.65,5.51,1.02,10.88,1.49,16.17.12,1.34-.08,2.55-1.49,3.09-1.58.6-2.65-.27-3.46-1.48-1.73-2.59-3.27-5.29-5.25-7.62-1.04,0-.9.83-1.19,1.3-1.47,2.4-2.03,2.31-3.62.11-7.83-10.88-6.16-22.57-3.03-34.38.69-2.61,2.34-3.81,5.11-1.96,1.28-4.55,3.17-8.76,4.79-13.68-4.66.07-8.91.71-13.04,1.83-1.81.49-1.43,2.4-1.52,3.86-.47,7.82-.51,15.68-1.48,23.47-.22,1.75-.32,3.72-2.61,3.95-2.05.21-2.74-1.58-3.27-3.06-1.67-4.68-4.51-9.16-4.54-14.14-.03-4.55-.21-9.24.87-13.87-1.44,1.91-2.58,3.98-3.91,5.92-2.83,4.14-6.44,4.54-9.93,1.08-3.09-3.06-5.63-6.61-7.67-9,1.74,1.97,3.63,5.24,5.23,8.67,1.78,3.83.85,5.21-3.37,5.49-.97.06-2.01-.24-3.12.63,2.43,4.03,5.98,7.21,8.58,11.1.9,1.35,2.03,2.55,2.71,4.03,1.6,3.47.05,5.64-3.75,5.33-5.05-.41-5.87-1.16-6.43-6.19-.44-3.93-3-6.48-5.72-8.9-1.85-1.64-2.18.23-2.78,1.37-1.08.92-2.31,1.31-3.72,1.09-1.78-.79-2.33-2.53-2.98-4.11-2.09-5.08-4.83-9.84-7.14-14.81-1.03-2.21-1.77-2.89-3.86-.71-4.66,4.88-10.59,4.93-15.63.45-2.77-2.46-5.23-5.19-6.72-7.45,3.74,4.66,7.12,10.76,10.83,16.64,1.15,1.83,2.18,3.52,4.95,2.96,1.88-.38,3.2,1.19,4.3,2.56,4.28,5.31,6.34,11.51,7.1,18.2.16,1.38-.08,2.74-.8,3.97-1.39,2.38-3.67,2.64-5.49.58-1.42-1.61-2.12-3.64-3.03-5.55-5.97-12.56-13.95-23.52-25.59-31.49-1.22-.83-2.42-1.76-4.1-1.99-.06,1.26.93,1.95,1.37,2.88.5,1.04,1.07,2.15.19,3.14-1.02,1.15-2.31.66-3.44.07-1.89-.98-3.64-2.18-5.32-3.47-3.05-2.34-6.32-4.44-8.54-7.27,6.59,7.55,13.68,15.09,19.93,23.35.54.88,1.33,1.51,2.17,2.07,1.39,1.33,3.06,2.5,2.74,4.8-1.55,1.01-2.5-.16-3.45-1.03-1.34-1.23-2.66-2.48-3.95-3.76-.08-.16-.16-.31-.23-.47-1.72-4.01-5.29-6.55-8.1-9.61-9.84-10.7-18.43-22.48-28.67-32.82-.96-.97-1.95-1.93-2.08-4.51,11.76,7.98,20.86,18.22,32.05,25.78,1.36-3.94,2.76-4.58,6.66-3.21,4.64,1.63,7.76,5.32,11.33,8.39,1.36,1.16,2.39,2.7,3.95,3.72-6.48-12.22-14.65-23.35-20.18-35.99,3.16,1.12,4.53,3.89,6.35,6.13,5.42,6.66,10.54,13.56,16.86,19.44,5.89,5.48,11.84,3.9,13.96-3.81.26-.95.14-2.19,1.31-2.44,1.37-.29,1.88.99,2.45,1.91,3.34,5.4,6.54,10.91,8.94,16.79,1.3,3.2,2.37,5.77,6.44,2.97-1.92-2.14-2.46-3.97,1.59-4.1.85-.03,1.7-.38,2.55-.56,1.88-.4,4.51.87,5.48-.91.5-.91-1.34-3.15-2.22-4.74-3.08-5.55-6.22-11.07-9.32-16.61-.46-.82-.87-1.68-1.68-3.25,8.21,6.29,14.32,13.44,20.6,20.41,2.47,2.74,5.36,2.7,7.12-.6,2.11-3.96,4.25-7.89,6.96-11.48.59-.78,1.06-2.09,2.14-1.77,1.37.4.98,1.89.87,2.94-.47,4.57-.78,9.17-1.64,13.67-1.17,6.12-.58,11.84,3.45,17.26,0-4.57-.05-9.14.02-13.71.06-3.71.31-7.43.39-11.14.04-1.66.94-1.95,2.37-2.17,5.77-.89,11.49-2.15,17.28-2.8,2.82-.32,3.15-1.25,2.16-3.48-.4-.91-.75-1.84-1.19-2.73-.5-1.02-1.19-2.14-.04-3.02,1.18-.9,1.62.63,2.42,1.03,11.26,5.73,22.14,12.59,35.41,12.62,6.36.01,7.49-1.9,4.61-7.44-1.49-2.87-3.23-5.61-4.83-8.42-.47-.83-1.37-1.64-.68-2.7.74-1.14,1.92-1.1,3.02-.68,9.95,3.81,20.44,6.34,29.4,12.46,4.2,2.87,4.39,5.58.13,8.36-5.73,3.74-11.81,6.94-17.61,10.58-4.83,3.03-9.18,6.7-13.5,10.75,2.28.67,4.15-.08,6.06-.4,1.11-.19,2.33-.27,2.96.98.56,1.11-.25,1.83-.87,2.63-3.22,4.17-5.26,8.98-7.72,14.27,3.28-1.05,5.77-2.72,8.69-3.17,1.11-.17,1.27-1.4,1.64-2.31,3.8-9.4,8.62-18.18,15.21-25.96,2.18-2.58,4.33-4.8,7.6-6.3,13.56-6.24,27.8-11.16,40.25-19.64,5.98-4.07,12.26-7.62,18.46-11.3,1.04-.62,1.92-2.18,3.63-1.23-.06,1.87-1.7,2.3-2.83,3.12-10.89,7.92-22.64,14.54-33.78,22.07-12.46,8.42-23.47,18.56-32.4,30.67-8.13,11.02-8.8,29.32-1.65,39.79.11-.18.36-.42.31-.51-5.15-9.85-.84-18.61,3.55-27.07,6.89-13.27,18.14-22.95,28.68-33.14,6.16-5.96,12.77-11.47,19.18-17.18.97-.87,1.85-2.42,3.42-1.24,1.38,1.03.33,2.47-.15,3.4-3.27,6.29-6.63,12.54-10.16,18.7-1.32,2.31-3.95,3.37-5.97,5.02-.79.65-1.62,1.16-1.7,2.29-.88,1.04-1.82,2.02-3.01,2.72-7.45,7.28-15.43,14.08-21.15,22.95-2.52,3.91-3.99,9.2-3.57,13.63,6.14-13.88,13.1-26.59,24.49-36.24,1.27-.81,2.22-1.99,3.37-2.94,3.89-.76,6.21-3.96,9.17-6.09,4.14-2.99,8.35-5.84,12.79-8.32,2.97-1.66,5.03-3.82,6.36-6.95,1.66-3.89,3.44-7.72,4.57-11.81.36-1.32.94-2.54,2.33-2.49,1.48.05,1.39,1.52,1.4,2.61.03,4.46,3.19,5.89,6.73,6.76,6.81,1.68,13.61.59,20.39-.36,1.19-.17,2.66-.97,3.36.44.73,1.47-.75,2.17-1.77,2.82-1.37.88-2.59,1.9-3.69,3.5,1.35.63,2.39.11,3.46-.38,4.83-2.22,9.73-4.18,13.73-8,1.88-1.79,4.88-2.37,7.3-3.64,14.99-7.84,25.85-19.66,33.21-34.77,1.36-2.78,2.74-5.58,3.4-8.64.19-.87.23-1.84,1.47-1.7,1.06.12,1.42.96,1.47,1.88.47,8.28.32,16.4-4.3,23.82-4.25,6.83-10.41,11.61-16.78,16.2-2.81,2.03-5.65,4.03-8.12,6.66,5.26-2.91,10.52-5.83,15.78-8.74.11-.06.2-.16.31-.21,2.27-.96,4.63-3.75,6.99-1.23,2.11,2.25-.67,4.46-1.66,7.16,9.52-3.96,18.09-8.81,26.34-14.32,10.98-7.34,15.42-18.45,18.33-30.59.41-1.69-.28-4.97,2.24-4.75,2.23.2,1.93,3.31,2.2,5.35,2.33,17.74-5.6,30.72-19.13,41.08-7.27,5.56-15.62,9.26-23.58,13.64-2.06,1.14-4.19,2.15-6.18,3.47,4.05-.63,7.47-2.91,11.08-4.55,11.11-5.05,21.99-10.75,33.22-15.38,8.93-3.68,16.82-8.62,24.66-13.87,8.47-5.67,15.45-12.92,21.14-21.39.68-1.02,1.08-2.56,2.67-2.02,1.84.62,1.2,2.42.91,3.56-.88,3.49-2.08,6.9-3.15,10.34-.22.69-.75,1.44-.08,2.07.64.6,1.39.2,2.08-.09,6.15-2.57,9.86-7.3,10.87-13.71.63-4,.66-8.19-.33-12.26-.58-2.39-.75-4.09,2.68-2.44,2.24,1.07,3.84.76,3.24-2.61-1.38-7.81-5.98-13.96-10.5-19.97-11.15-14.83-23.1-29.03-36.52-41.91-7.28-6.99-14.94-13.53-22.97-19.66-1.58-1.2-2.98-2.64-4.41-4.03-.78-.76-1.1-1.7-.26-2.64.74-.83,1.55-.4,2.39-.07,2.49,1.01,4.39,2.89,6.32,4.59,14.24,12.46,28.79,24.61,41.98,38.2,11.44,11.79,22.2,24.18,30.23,38.71,4.44,8.03,4.79,16.27,2.78,24.89-.11.47-.15.95-.24,1.48,4.94-1.21,12-7.46,14.68-12.83.57-1.14.68-3.06,2.49-2.77,2.02.33,1.61,2.23,1.59,3.67-.08,7.94-4.64,13.83-9.5,19.33-6.77,7.65-15.22,13.27-24.4,17.6-17.35,8.16-34.19,17.44-52.31,23.91-1.19.43-3.19,2.1-3.84.25-.51-1.42,2.02-1.58,3.25-2.23,9.41-5.01,18.8-10.05,28.74-15.37-5.36-1.3-40.6,14.17-43.78,18.84,2.7.87,4.98-1.45,7.65-.33-26.98,10.5-54.95,17.92-82.68,26.34,3.08,1,6.18.58,9.25.61,3.16.03,6.32,0,9.6.59-5.15,1.29-10.38,2.34-15.44,3.92-14.03,4.38-27.46,10.01-39.89,18.1-5.64,3.67-11.42,7.09-15.72,12.21-5.03,5.99-8.91,12.69-6.17,21.1.35,1.07.45,1.95-.79,2.46-4.01-2.64-3.63-6.94-3.54-10.76.2-8.7,4.38-15.35,10.76-21.3,7.43-6.92,15.59-12.7,23.99-18.28-15.24,2.82-28.05,9.99-39.24,21.96,4.79-1.79,8.27-4.09,11.83-6.24.85-.51,1.65-1.12,2.58-1.5,1.04-.42,1.98-.28,2.64.69.73,1.06.2,1.89-.62,2.58-1.9,1.61-3.91,3.08-5.86,4.63-5.18,4.09-8.71,9.11-9.41,15.92-.44,4.24.93,8.11,1.93,12.04.43,1.7,1.5,3.26,3.08.56.42-.71,1.13-.95,1.9-.36Z"/>
      <path class="cls-23" d="m344.07,196.2c1.21-.26,2.41-.51,3.62-.77,2.85,1.68,4.16,4.5,5.38,7.37-.37.85-.99,1.46-1.82,1.85-.96.04-1.63-.41-2.1-1.22.27,2.19,3.94,4.34.08,6.59-3.67-1.85-5.11-5.73-7.44-7.92,6.34,11.26,8.06,19.36,6.54,31.49,1.18-6.66,2.82-13.28.8-20.09-.39-1.31-.33-2.73.74-3.85,2.08-.86,2.75.67,3.12,2.09,1.03,3.97,1.81,7.92.91,12.13-.72,3.37-.46,6.93-1.54,10.29-.89,2.74-2,5.38-3.89,7.59-.8.94-1.73,2.07-3.13,1.53-1.61-.62-1.57-2.19-1.21-3.53,1.46-5.38.62-10.91,1.22-16.35.12-1.1-.1-2.2-.04-3.31-.22,12.68-2.08,24.96-9.02,36.45,2.72-3.29,3.81-3.29,6.26-.37,3.28-4.6,5.72-9.62,7.32-15.04.53-1.8,1-3.68,3.28-4.1.41-.06.79.01,1.15.22,0,3.83-.02,7.67-.02,11.5-1.77-.41-1.52-1.87-1.3-3,.28-1.5.04-3.03.25-3.8.2,1.57-.29,3.78-.59,6.01-.18,1.33-.37,2.78-1.99,3.29-2.01-1.35-1.73.92-2.15,1.55-4.83,7.24-9.55,14.55-14.3,21.84-.88,1.34-1.9,2.55-3.72,3.56,2.37-7.52,7.94-13.24,8.89-21.15-.97,1.11-2,2.17-2.89,3.33-5.18,6.84-10.32,13.71-15.48,20.56-.56.74-.95,2.32-2.04,1.7-1.36-.78-.18-2.01.36-2.87,4.93-7.91,9.85-15.82,14.14-24.11,4.34-8.39,7.24-17.14,7.41-26.64.04-2.3,1.38-4.56.2-7.2-3.1,1.67-4.91,4.05-5.37,7.47-1.49,10.98-4.83,21.5-7.99,32.07-.31,1.04-.27,2.97-1.98,2.52-1.24-.33-.48-1.96-.55-3-.1-1.47,1.14-2.82.19-4.8-5.58,5.71-8.59,12.98-13.08,19.17l-1.13-.51c1.68-3.5,3.27-7.04,5.05-10.49,1.83-3.54,3.43-7.15,4.14-11.19-2.57,3.23-5.81,5.74-7.44,9.88-4.1,10.41-9.51,20.15-16.04,29.29-3.01,4.22-5.32,8.93-8.67,13.06,2.78-5.48,5.4-11.04,8.36-16.43,5.46-9.95,10.52-20.13,13.95-30.91,3.11-9.76,3.55-20.01,1.94-30.23-.1-.62-.15-1.24-.8-1.57-.57-1.98-.41-4.15-1.66-5.95,1.15,1.83,1.09,3.97,1.67,5.94-.21,4.21.68,8.48-.64,12.62-.35,1.09-.28,2.9-1.92,2.71-1.29-.15-1.04-1.74-1.22-2.83-.56-3.5-1.25-6.96-2.71-10.25-.07,5.26-.6,10.41-1.26,15.59-1.63,12.63-9.36,22.14-16.52,31.67-8.04,10.7-16.79,20.98-27.74,29.1,8.61-10.56,18.9-19.75,26.25-32-3.22,1.14-6.24,2.4-8.15-1.54-1.35,1.82-2.51,3.42-3.72,4.99-.65.85-1.21,2.2-2.61,1.29-1.21-.79-.22-1.77.11-2.64,2.51-6.49,4.99-12.97,5.98-19.94.62-4.37.71-8.63-.75-13.91-.76,7.15-2.26,13.06-4.5,18.9-1.52,3.97-3.81,6.97-6.78,9.58-23.76,20.91-48.78,40.16-75.12,57.73-11.29,7.53-21.81,16.14-32.54,24.44-1.83,1.42-3.64,2.97-6.75,3.55,2.69-3.83,6.19-5.93,9.2-8.5,17.93-15.32,37.89-27.89,56.78-41.92,4.5-3.34,8.62-7.14,10.98-12.48,1.75-3.97,1.86-3.91-2.59-3.96-.74,0-1.48-.07-2.37-.46,6.29-3.19,11.92-7.74,18.94-9.27,3.13-.68,5.62-1.76,7.36-4.45,3.59-5.54,6.6-11.32,7.37-18.03-2.11,5.01-3.75,10.28-8.54,13.78,1.08-2.95,2.25-5.87,3.22-8.85,3.17-9.75-1.7-23.66-10.04-29.62-15.59-11.16-32.87-18.44-51.32-23.38-15.49-4.15-30.91-8.58-46.59-12.01-3.02-.66-6.12-.96-10.16-1.58,5.02-2.02,9.25-.73,13.21-.1,9.57,1.53,18.94,4.08,28.25,6.79.44.13.93.09,1.47-.16-19.56-9-41.06-12.08-60.89-20.39,11.85,2.84,23.65,5.84,36,6.19-4.75-1.8-9.46-3.7-14.25-5.39-21.42-7.57-43.12-14.36-64.1-23.16-5.49-2.3-11.15-4.21-16.76-6.25-1.04-.38-2.17-.53-3.27-.67-.57-.07-1.34-.2-1.66.47-.41.87.29,1.44.86,1.85,2.94,2.1,5.79,4.32,9.08,5.87,4.83,2.28,9.62,4.64,14.41,7.54-1.34-.09-2.75.04-4.02-.32-15.06-4.22-29.71-9.38-42.27-19.1-9.82-7.6-16.73-17.36-21.08-28.92-2.15-5.7-4.04-11.51-5.14-17.52-.2-1.1-.84-2.88.49-3.37,1.66-.61,1.9,1.28,2.67,2.37,5.05,7.15,10.7,13.62,19.31,16.8,2.71,1,3.64-.21,4.39-2.31,2.04-5.75,4.01-11.51,6.09-17.24,3.86-10.64,7.86-21.22,11.65-31.88,2.57-7.24,1.7-8.32-5.99-7.76-2.09.15-4.14.81-6.21,1.21-.83.16-1.81.55-2.31-.51-.47-.99.25-1.54.96-2.14,23.03-19.64,49.04-34.4,76.5-46.83,5.8-2.62,11.61-5.14,17.87-6.46,1.02-.21,2.35-1.12,2.96.36.65,1.57-.87,2.15-1.91,2.71-7.68,4.15-15.25,8.44-22.31,13.62-17.11,12.57-31.85,27.11-39.84,47.33-.41,1.04-.79,2.36-2.16,2.1-1.24-.24-1.52-1.51-1.58-2.69-.05-1.12-.01-2.61-1.19-2.84-1.13-.22-1.8,1.19-2.39,2.1-5.87,9.08-8.5,19-7.59,29.81.09,1.1.33,2.24.77,3.25.81,1.86,1.06,4.35,3.77,4.58,2.57.22,4.18-1.34,5.34-3.41,1.46-2.62,3.2-2.51,4.33-.04,5.92,12.94,17.57,20.33,28.01,29.14-1.21-6.07-2.25-12.04-1.9-18.18.14-2.4.58-4.69,1.32-6.93.29-.88.67-2.12,1.98-1.8,1.23.3.51,1.38.6,2.18,1.55,14.93,7.78,27.18,19.94,36.47,8.12,6.2,17.61,9.15,26.87,12.68,16.38,6.24,32.02,13.68,45.83,24.73,4.55,3.64,9.34,7.01,13.78,10.82,3.55,3.05,8.35,2.99,12.44,4.77,8.77,3.8,17.64,7.39,26.87,11.23-.43-1.22-1.25-1.65-2-2.12-9.03-5.5-17.56-11.83-27.42-15.92-1.21-.5-3.03-1.09-2.24-2.8.67-1.46,2.47-.83,3.71-.5,17,4.58,33.63,10.07,48.42,20,.71.48,1.45.92,2.5,1.58-.66-2.84-3.76-3.26-4.73-5.97,13.72,5.5,23.44,16.33,36.03,23.81-.56-2.93-2.1-4.52-3.55-6.15-7.38-8.3-16.53-14.3-26.01-19.85-6.42-3.76-12.83-7.55-19.39-11.04-5.34-2.84-10.71-5.71-16.74-7.15,4,5.35,10.32,7.43,16.47,11.29-4.35-.33-7.65-1.33-10.86-2.44-9.88-3.42-19.71-6.98-29.54-10.55-4.22-1.53-8.95-1.86-12.82-3.71-3.59-1.72-5.07-6.56-8.47-9.3-5.79-4.68-11.45-9.48-18.04-12.83-1.3,1.05.07,2.95-1.46,3.4-1.58.47-2.46-.96-3.37-1.92-5.85-6.21-8.61-13.88-10.09-22.08-.2-1.13-.49-2.86,1.16-3.1,1.41-.2,1.52,1.36,1.7,2.44.9,5.22,4.75,8.09,9.01,10.9-.61-3.56-1.26-7.12-1.8-10.69-.52-3.46-.65-6.92.27-10.36.2-.74.27-1.57,1.27-1.48.72.06.91.68,1,1.36,1.47,10.14,8.18,16.86,15.51,22.95,7.93,6.59,17.09,11.12,26.86,14.4.84.28,2.05.32,1.99,1.32-.22,3.74,2.98,4.11,5.15,5.39,12.02,7.1,25.17,11.76,37.86,17.43.46.21.96.3,1.78-.57-15.59-11.41-33.1-19.89-48.09-32.11,9.2,3.26,17.43,8.65,27.29,11.91-1.15-2.77-3.22-3.33-4.77-4.39-9.85-6.69-18.59-14.39-24.22-25.14-2.19-4.18-2.64-8.73-3.23-13.26-.12-.89.1-1.9,1.05-2.19,1.08-.33,1.39.65,1.81,1.45,7.54,14.67,18.44,26.45,31.88,35.8,5.98,4.16,12.2,8.12,19.43,11.22-1.46-5.48-6.54-8.89-7.38-15.24,4.62,2.56,7.24,5.92,9.94,9.07,11.9,13.9,24.48,27.09,39.06,38.26,0,0,.03.02.03.02,1.77,1.19,3.15,2.79,4.6,4.31,1.12,1.17,1.22,2.19-.67,2.65-.77-.15-1.33-.59-1.76-1.21,3.45,4.6,5.95,9.56,5.54,15.56-.15,2.16.46,4.18,1.45,6.1,1.15,2.22,2.08,4.52,2.13,6.17-.51-3.21-1.4-7.25-2.51-11.25-.43-1.56-1.08-3.4.83-4.3,1.85-.88,2.94.77,3.97,1.99,2.57,3.06,3.84,6.73,4.32,10.58.97,7.66.94,15.34-.36,22.98-.49,2.01-.82,4.07-1.54,5.67.85-1.53,1-3.62,1.56-5.58.75-6.55,1.74-13.09.65-19.7-.22-1.3-.23-2.6,1.12-3.25,1.19-.57,1.73.54,2.36,1.29.44-1.57.31-3.25.82-4.78.75-2.24,2.34-2.48,3.85-.65.56.68.89,1.51,1.12,2.35,1.41,5.09,2.09,10.23,1.05,15.49-.1.49-.08-.11-.05.37.13,2.72-3.65,3.6-3.3,5.66.36,2.12,1.66,4.08.9,6.4,2.29-5.55,2.45-11.52,3.07-17.38.42-3.94.92-7.91-.02-11.89-.35-1.5.17-2.97,1.26-4.15,1.07-1.16,2.32-1.99,3.97-1.5,1.66.49,1.74,2,1.76,3.37.08,5.55-1.71,10.81-2.76,16.17-.79,4.01-1.65,8.02-2.48,10.93,1.44-6.84,4.13-14.5,5.13-22.56.59-4.72,4.64-7.3,7.72-10.24,1.63-1.55,1.82-2.57,1.12-4.37-1.59-4.08-3.79-7.86-5.65-11.8-.53-1.13-1.19-2.21-1.46-3.43-.19-.87-.24-1.77.64-2.35.71-.47,1.45-.2,2.13.12,2.07.99,3.61,2.64,5.3,4.31.8-.51,0-1.68.85-2.1Z"/>
      <path class="cls-16" d="m404.39,155.8c-2.57-1.93-3.6-4.91-5.19-7.51-1.07-1.76-2.01-3.68-4.51-5.29,2.47,4.21,4.58,7.8,6.68,11.39-1.1.72-2.15.11-3.2-.14-8.31-2-16.43-1.49-24.35,1.78-.73.32-1.25-2.07-2.22-.11-.33.68-1.34.99-2.26.86-1.32-.89-2.66-1.54-4.34-.93-.73.26-1.67.58-2.07-.61.73-3.38,3.46-5.38,5.55-7.77,2.45-2.81,5.14-5.44,8.01-7.86.76-.64,1.75-1.25,1.59-2.37-.21-1.41-1.58-1.46-2.62-1.67-3.68-.72-7.28-1.74-10.89-2.73-23.44-6.42-29.52-28.63-21.38-46.73,1.59-3.54,3.51-6.84,6.41-9.56,2.24-2.1,2.61-5.32,4.14-7.89,1.21-2.03,2.11-4.27,3.97-5.84,1.19-1.01,2.61-1.62,4.16-1.01,1.74.7,1.63,2.34,1.6,3.84-.12,5.69-.14,5.62,5.53,4.57,13.03-2.41,26.04-2,39,.61-.31,2.47.81,2.79,2.86,2,1.02-.4,2.13-.62,3.2-.87,2.45-.58,3.95-1.86,3.85-4.59-.03-.85.15-1.73.98-2.27,2,.61,1.57,2.36,1.58,3.73.02,2,.69,3.63,2.07,5.01.3,2.59-2.08,5.01-.48,7.72,1.69.15,1.74-1.86,2.98-2.3,1.56.21,2.33,1.42,2.97,2.59,6.4,11.67,8.24,23.54,1.43,35.75-1.82,2.64-3.51,5.39-6,7.48-.96.81-1.74,2.25-3.42,1.44-1.59-3.66-1.37-6.83,1.15-10.31,5-6.87,7.71-14.51,5.37-23.2-.42-1.57-.95-3.1-1.79-4.5-2.26-3.75-5.32-4.49-9.24-2.44-4.7,2.45-7.79,6.54-10.98,10.52-3.28,4.09-6.15,8.47-9.12,12.79-.71,1.03-1.29,2.8-3.02,2.15-1.5-.56-1.43-2.19-1.51-3.56-.09-1.49.08-3-.17-4.48-.1-.61-.27-1.3-1.04-1.36-.77-.06-1.15.56-1.18,1.18-.19,3.99.33,7.96,1.03,11.84.39,2.13,2.27,1.47,3.55.45,1.67-1.34,2.68-3.27,4.04-4.89.53-.63,1.04-1.61,2.08-1.19.93.38.91,1.4.99,2.26.12,1.39-.34,2.71-.52,4.06-.71,5.38,1.19,8.58,6.31,10.19,1.61.51,2.48,1.21,2.12,2.84-.29,1.31.71,2.4.39,3.66-3,2.06-6.66,1.75-9.95,2.74-1.25.37-3.03.05-3.51,1.63-.49,1.63,1.16,2.28,2.11,3.19,3.86,3.7,7.86,7.27,11.18,11.48.82,1.05,2.32,2.09,1.25,3.84-1.63,1.22-3.44-.11-5.13.38Z"/>
      <path class="cls-8" d="m408.22,71.31c-5.56-.5-11.11-1.15-16.68-1.47-8.85-.51-17.65-.06-26.25,2.36-2.42.68-3.27-.6-3.37-2.61-.06-1.21.51-2.44.51-3.66,0-1.22.99-3-.84-3.5-1.41-.39-3.41.1-3.94,1.51-4.08,10.97-14.01,18.75-16.24,30.81-3.19,17.19,5.79,32.26,22.78,36.99,4.18,1.16,8.44,2.06,12.69,2.96,1.29.27,2.5.49,2.89,1.91.46,1.64-.7,2.43-1.82,3.31-5.66,4.48-10.67,9.58-14.56,15.7.4.81.06,1.69-.53,1.92-3.55,1.36-4.57,4.41-5.45,7.62-.13.48-.54.8-1,1.02-2.94-.66-3.77-2.41-2.86-5.23.98-3.04.66-7.05,5.59-6.9.19,0,.44-.25.57-.44,3.78-5.55,8.76-10.07,13.71-15.22-4.75-1.41-8.94-2.47-12.99-3.91-15.74-5.58-23.47-17.48-23.73-32.4-.17-9.86,2.78-19.46,10.22-26.88,2.57-2.56,2.6-6.43,5.62-9.24-7.95,1.18-11.51,4.42-13.54,12.84-1.58,6.6-4.37,12.88-4.54,19.87-.24,9.98,1.11,19.3,8.17,27,.51.55,1.24,1,1.51,1.64.68,1.64,2.56,3.03,1.55,5.09-1.04,2.12-3.16,1.43-4.96,1.68-5.78.79-11.66.62-17.4,1.91-4.76,1.07-6.14-.12-7.28-4.85-3.63-15.14-2.53-30.08,1.51-44.95.84-3.1,2.38-5.13,5.71-5.51.73-.08,1.45-.35,2.17-.52,10.29-2.39,10.22-2.41,12.58-12.79.45-1.97-.34-1.94-1.76-2.18-4.95-.82-6.15-3.86-3.07-7.87,2.5-3.27,5.95-5.2,9.87-6.33,2.95-.85,5.46-.37,6.93,2.61,1.49,3.03,0,5.25-2.17,7.22-1.42,1.29-3.56,1.7-4.59,3.53,9.66-1.2,14.78-7.58,18.6-15.61,1-2.11,2.54-3.98,3.96-5.86.64-.84,1.48-1.91,2.81-1.1,1.2.73,1.47,1.81,1.11,3.23-.69,2.77-1.18,5.58-1.77,8.37-.52,2.41.42,3.17,2.8,2.73,10.63-1.98,21.28-2.15,31.91.03,2.24.46,3.26-.08,2.65-2.61-.66-2.77-1.02-5.61-1.64-8.4-.3-1.34-.35-2.48,1.04-3.19,1.47-.75,2.25.23,3.1,1.23,3.5,4.12,5.73,9.04,8.45,13.64,1.46,2.47,3.13,3.88,5.8,4.71,2.56.79,4.95,2.14,7.78,3.4-.42-2.11-1.93-2.5-3.12-3.23-3.33-2.01-4.89-5.51-3.63-8.08,1.28-2.62,4.92-3.78,8.5-2.43,3.05,1.15,5.77,2.91,8.02,5.35,1.51,1.63,2.67,3.41,1.94,5.66-.76,2.34-2.76,3.03-5.06,3.04-.48,0-.96.16-1.6.27.97,3.59,1.91,7.05,2.84,10.51.4,1.5,1.44,2.26,2.9,2.54,1.59.31,3.19.56,4.75.97,10.62,2.77,8.82.62,11.53,11.71,3.32,13.56,3.71,27.19.13,40.81-.98,3.71-2.44,4.81-6.11,4.07-6.61-1.33-13.32-1.55-20-2.05-3.16-.24-4.11-1.7-2.85-4.61.49-1.13.93-2.24,1.87-3.16,8.44-8.26,9.73-18.81,8.74-29.72-.74-8.15-3.84-15.84-6.48-23.56-.28-.82-.64-1.64-1.13-2.34-.48-.67-1.03-1.7-2-1.31-.48.2-.76,1.18-.9,1.86-.54,2.57-.46,4.81,1.1,7.36,7.76,12.72,10.52,25.98,2.95,39.91-.59,1.08-1.02,2.3-2.17,2.98-1.23-1.01-1.47-2.41-1.53-3.87,6.54-12.64,5.04-24.79-2.24-36.58-.38-.62-.97-1.1-1.46-1.65-.19-.17-.42-.46-.32-.61,1.8-2.61.39-3.76-2-4.49-2.64-.75-2.87-2.93-3.06-5.13-.11-1.27.66-2.71-.72-3.74-.65.48-1.37.5-2.11.29-.46-.18-.85-.47-1.26-.74-.89-.59-1.75-1.78-2.88-1.2-1.26.65-.36,1.98-.35,3.01,0,1.1.1,2.2-.36,3.26-.89,1.23-2.02,1.76-3.52,1.24Z"/>
      <path class="cls-26" d="m163.4,206.03c2.72,1.33,3.16,2.83,1.57,5.77-4.76,8.79-2.33,15.01,6.98,19.11,4.5,1.98,9.08,3.61,14.08,2.2,3.41-.96,4.14-2.58,2.88-5.87-1.1-2.88-3.22-5.01-5.29-7.15-.85-.88-2.24-1.52-1.42-3.03.75-1.38,2.11-.91,3.35-.79,5.52.53,10.66,2.34,15.75,4.42,2.15.88,2.56,1.98,2,4.26-1.09,4.46.9,8.84,4.26,10.68,1.59.87,3.17,1.04,4.49-.22,1.5-1.44.67-3.02-.32-4.36-.81-1.1-1.79-2.07-2.73-3.06-.57-.6-.94-1.28-.47-1.99.49-.74,1.3-.65,2.01-.27,7.02,3.76,14.34,7.11,19.45,13.58,1.01,1.27,2.06,2.72,1.14,4.42-1.09,2.01-2.7.53-3.97.22-3.06-.74-5.88-.66-8.55,1.21-3.56,2.5-5.02,7.32-3.05,10.38,2.05,3.19,7.39,4.15,11.08,2.01,2.63-1.53,4.31-3.74,4.88-6.73.25-1.3.59-2.6,2.12-2.64,1.36-.04,1.69,1.32,2.12,2.31,3.63,8.33,1.1,18.36-5.68,22.78-1.56,1.02-2.56,1.82-3.21-1.02-.81-3.51-10.65-7.06-13.91-5.35-1.79.94-1.6,2.3-.85,3.79.39.77,1.03,1.58.11,2.33-.91.74-1.6-.15-2.34-.51-1.5-.73-2.59-1.9-3.56-3.23-2.02-2.79-6.09-3.65-8.87-1.53-2.58,1.97-1.32,4.58-.18,6.76,2.7,5.15,7.75,5.42,12.63,5.35,4.45-.06,8.89-.75,13.23-1.93.92-.25,2.08-.72,2.7.38.53.93-.54,1.53-.95,2.25-1.76,3.18-5.21,3.63-8.1,4.93-8.18,3.67-16.6,6.7-25.27,9.02-.83.22-1.71.83-2.41,0-.67-.8-.03-1.63.29-2.43.79-1.99,3.01-4.04,1.09-6.13-1.94-2.1-4.83-1.49-7.45-1.13-7.74,1.08-14.37,5.28-21.95,7.6-.78-2.79,1.27-5.27,1.2-8.26-5.22,1.35-9.66,4.18-14.57,5.79-1.08.35-2.4,1.72-3.26.31-.64-1.06.99-1.77,1.69-2.54,3.18-3.5,6.58-6.83,7.66-11.71.89-4.02-.65-6.23-4.81-6.5-9-.58-16.83,2.75-24.12,7.59-3.75,2.49-7.14,5.44-9.68,9.23-2.83,4.23-1.89,6.4,2.99,7.17,1.61.25,4.18-.24,4.37,1.7.16,1.67-2.48,1.65-3.89,2.18-5.47,2.08-11.26,1.57-16.94,1.53-1.52-.01-3.96,1.54-4.69-.56-.53-1.52,2.23-1.94,3.04-3.31.31-.53.78-1.02.93-1.59.51-2.01,1.85-4.29.22-6.03-1.53-1.64-3.76-.6-5.62.07-8.9,3.2-17.79,6.44-26.7,9.64-2.71.98-5.54,1.5-8.4,1.63-3.78.18-5.01-1.57-3.65-5.15,3.11-8.23,8.4-15.24,12.88-22.69,1.9-3.17,4.02-6.21,6.38-9.85-3.42.75-6.21,1.44-9.02,1.98-5.69,1.08-8.67-1.81-7.77-7.48.23-1.45.99-2.85.2-4.66-5.2,2.34-10.33,4.84-15.79,6.45-2.74.81-5.54,1.37-8.32,2.04-.96.23-1.85-.02-2.1-.98-.22-.85.62-1.25,1.3-1.57,3.71-1.78,7.36-3.69,10.39-6.54.99-.93,2.01-1.88,2.76-3,2.8-4.21,2.43-6.22-1.46-9.49-.76-.64-2.4-.92-1.56-2.45.66-1.19,1.85-.9,3.01-.66,5.95,1.2,11.65,3.5,17.78,3.91,13.22.88,25.31-1.72,34.93-11.59,3.4-3.49,5.36-7.76,5.88-12.63.1-.89.11-1.83,1.06-2.21,1.08-.43,1.48.58,2.1,1.15,5.4,4.99,11.55,8.63,18.78,10.28,3.29.75,6.47.27,9.34-1.5,3.78-2.34,4.26-4.94,1.38-8.31-3.46-4.05-8.15-6.49-12.71-9.06-1.19-.67-2.48-1.19-3.66-1.88-.89-.52-2.42-.73-1.97-2.27.5-1.69,1.84-.72,2.83-.6,8.53.97,17.05,1.97,25.57,2.94.74.08,1.49.03,2.24.03,4.02,1.04,8.05,2.08,12.07,3.12Z"/>
      <path class="cls-48" d="m612.01,199.16c12.23-3.09,24.86-3.25,37.26-5.11.94-.14,2.25-.68,2.71.41.65,1.52-.97,1.7-1.88,2.2-5.54,3.08-11.33,5.77-15.82,10.44-3.77,3.92-3.01,7.72,2.07,9.8,4.87,2,9.58.93,14.1-1.15,4.66-2.14,8.97-4.87,12.77-8.36,1.12-1.03,2.33-2.53,2.9.51,2.87,15.4,14.1,21.35,27.85,24.17,8.72,1.78,17.32.84,25.74-2.05,1.98-.68,4.13-.87,6.2-1.32.81-.18,1.53-.06,1.94.69.45.82-.09,1.39-.71,1.88-.1.08-.21.14-.3.23-4.8,4.59-4.64,8.42.71,12.88,2.68,2.23,5.55,4.22,8.76,5.7,1.13.52,3.28.72,2.77,2.44-.62,2.12-2.65.79-3.88.52-6.81-1.53-13.34-3.93-19.67-6.86-.89-.41-1.66-1.11-2.9-1,.18,1.84.49,3.66.52,5.48.1,5.53-2.28,7.51-7.68,6.48-1.47-.28-2.92-.61-4.37-.99-1.3-.34-2.58-.77-4.65-1.4,4.39,6.95,8.45,13.25,12.38,19.64,2.54,4.13,5.31,8.16,6.83,12.83,1.41,4.34.23,5.87-4.29,5.5-7.57-.63-14.36-3.91-21.38-6.42-4.33-1.55-8.57-3.36-12.93-4.78-2-.65-4.93-2.11-6.08.39-1.1,2.39-.06,5.33,1.89,7.51.41.46.94.82,1.46,1.15.77.48,1.59.98,1.17,2.03-.46,1.16-1.43.44-2.24.49-4.69.32-9.34-.32-14.01-.39-3.11-.05-5.72-1.64-8.57-2.46-.4-.12-.92-.63-.96-1-.08-.74.58-.98,1.23-1.09,1.23-.21,2.44-.47,3.68-.64,4.8-.69,5.77-2.76,3.03-6.77-4.49-6.6-10.92-10.79-18.01-14.06-4.56-2.1-9.34-3.42-14.45-3.24-6.29.23-8.29,3.34-5.63,9.07,1.76,3.79,4.77,6.65,7.42,9.78.49.58,1.84.98,1.17,2.03-.75,1.17-1.79.26-2.65-.09-4.83-1.98-9.65-3.99-14.68-6.08-.89,2.32.55,4.13.94,6.06.15.74.41,1.59-.21,2.11-.79.66-1.25-.42-1.89-.62-6.75-2.12-12.91-5.98-20.1-6.79-1.11-.12-2.23-.31-3.33-.25-4.97.26-5.7,1.49-3.65,5.97.31.68.69,1.33.97,2.02.79,1.94.02,2.66-1.89,2.12-10.93-3.07-21.55-6.96-31.82-11.8-.65-.31-1.27-.86-1.66-1.46-.65-.99-1.96-2.04-1.07-3.28.73-1.01,2.1-.4,3.17-.14,6.2,1.55,12.43,2.79,18.81,1.21,3.45-.85,6.13-2.68,6.98-6.44.49-2.14,1.01-4.27-1.76-5.29-2.8-1.03-5.62-1.56-7.7,1.29-1.12,1.54-2.29,2.93-3.95,3.88-.78.44-1.52.97-2.35.18-.73-.7-.2-1.4.12-2.03,1.51-3.04-.06-4.66-2.78-4.21-4.71.79-10.23.52-12.37,6.47-.62,1.73-1.79.84-2.71.26-2.85-1.8-4.72-4.45-5.87-7.53-1.9-5.09-1.83-10.24.19-15.3.45-1.12,1.1-2.5,2.56-2.38,1.44.11,1.21,1.61,1.56,2.63,1.29,3.84,3.37,6.91,7.71,7.79,3.52.71,6.57-.15,8.48-3.2,1.95-3.1.65-6.09-1.45-8.58-2.66-3.15-6.1-3.91-10.14-2.91-1.18.29-2.92,2.06-3.89-.1-.76-1.68-.09-3.28,1.26-4.73,2.81-3.01,5.7-5.89,9.36-7.88,3.16-1.72,6.29-3.49,9.45-5.19.61-.33,1.39-.89,2.02-.12.64.79.38,1.68-.24,2.38-.91,1.02-1.95,1.93-2.84,2.98-1.01,1.19-1.82,2.54-.41,3.96,1.26,1.26,2.69,1.59,4.41.68,3.32-1.75,5.49-5.8,4.65-10.07-.61-3.09.46-4.65,3.23-5.58,4.95-1.66,9.79-3.73,15.13-3.88,1.12-.03,2.4-.31,2.91,1.03.44,1.14-.61,1.79-1.3,2.47-2.21,2.2-4.36,4.42-5.7,7.33-1.36,2.94-.41,4.77,2.48,5.85,2.67,1,5.46.88,8.11.26,2.64-.62,5.27-1.6,7.69-2.84,8.28-4.27,10.11-10.33,5.86-18.58-.62-1.21-1.13-2.47-1.69-3.71,1.54-1.85,3.98-1.94,5.91-3.03Z"/>
      <path class="cls-8" d="m373.01,336.25c-.3-8.05,1.32-15.94,2.22-23.9.93-8.23,8.48-13.21,9.45-21.41.7.36.99.42,1.01.54.52,2.42,1.29,5.07,4.31,4.52,3.14-.57,4.76-3.32,4.71-6.36-.1-6.09-.29-12.21-1.04-18.24-.92-7.46.95-14.73.72-22.17,3.55,5.87,4.86,12.39,6.32,18.86.22.97.4,1.94.62,2.91,1.3,5.88,4.43,6.94,9.12,2.98.26,4.03.6,7.99.76,11.95.14,3.59,0,6.97,2.54,10.22,1.57,2.01.63,5.28.11,7.99-.5,2.56-.22,5.62-1.58,7.56-1.82,2.62-4.55-.57-7.06-.39-3.16.23-5.78,1.32-8.32,2.95-6.18,3.95-10.66,9.69-15.67,14.88-2.42,2.51-4.8,5.05-7.2,7.58-.34-.15-.68-.3-1.02-.46Z"/>
      <path class="cls-54" d="m373.03,155.72c9.23-4.94,18.71-4.78,28.33-1.34.52,1.39,1.26,2.73,1.53,4.16,1.32,6.98-5.41,11.94-13.37,9.81-1.96-.52-4.33-.66-3.87-4.01.26-1.9-1.53-2.94-3.41-3.31-2.11-.41-3.59.46-4.68,2.23-2.14,3.48-4.27,6.98-6.48,10.42-2.23,3.48-2.27,3.46-4.83.02.07-.18.14-.37.21-.55,2.1-3.65,2.75-7.6,2.63-11.76-.08-2.77.58-5.18,3.92-5.67Z"/>
      <path class="cls-8" d="m232.28,277.92c12.25-9.37,11.73-20.5,4.87-32.24-.87-1.48-1.78-2.96-2.61-4.47-4.89-8.92-12.33-14.83-21.87-18.11-2.59-.89-4.62-2.25-6.17-4.44,15.25,3.05,28.39,9.47,37.11,23.04,4.4,6.85,4.45,14.24,2.76,21.84-.69,3.09-2.91,5.84-1.99,9.29.08.3-.05.94-.19.97-4.14.88-7.44,4.19-11.9,4.13Z"/>
      <path class="cls-11" d="m428.51,117.64c1.23,1.01,1.5,2.39,1.53,3.87-3.88,5.98-9.38,9.94-15.92,12.48-4.39,1.7-8.9,3.07-13.92,4.13,2.79,3.1,5.43,5.99,8,8.93,1.47,1.68,2.83,3.45,4.21,5.2.53.67.8,1.85,1.71,1.85,5.76-.01,4.58,4.71,5.78,8.07-3.04.65-3.95-1.32-4.82-3.35-2.82.16-5.08-.48-5.48-3.8-4.24-5.86-9.04-11.19-14.92-15.47-.86-.63-1.57-1.3-1.33-2.44.25-1.15.82-2.05,2.12-2.29,4.26-.79,8.52-1.6,12.78-2.4,5.37.87,8.68-2.51,12.03-5.82,3.32-2.45,5.79-5.68,8.22-8.95Z"/>
      <path class="cls-8" d="m447.75,339.14c-5.22-1.5-8.99-5.16-12.89-8.47-4.93-4.18-9.69-8.57-14.92-12.38-1.56-1.13-2.08-1.73-.13-3.13,5.21-3.75,5.96-3.87,10.57.81,6.81,6.9,13.11,14.21,17.38,23.18Z"/>
      <path class="cls-11" d="m186.51,212.59c-2.36.21-4.74.36-6.91,1.43-3.38,1.67-3.94,4.48-1.33,7.22,1.46,1.53,3.07,2.87,4.03,4.84,1.14,2.32.46,3.19-2.03,3.16-10.02-.15-14.49-7.69-9.64-16.32.78-1.38,1.58-2.75,2.37-4.13,4.56,1.07,9.26,1.63,13.51,3.8Z"/>
      <path class="cls-79" d="m599.26,204.45c.4.62.82,1.24,1.21,1.87,5.54,9.05,2.52,15.55-8.03,17.33-1.28.22-2.64.37-3.43-.74-.76-1.07.29-2.13.8-3.03.67-1.16,1.57-2.23,2.54-3.17,3.94-3.77,3.64-6.17-1.19-8.74,2.18-2.36,5.55-2,8.1-3.52Z"/>
      <path class="cls-15" d="m356.42,166.19c.16-.73.27-1.46.47-2.17.78-2.75.5-6.24,4.8-6.54.61-.04,1.14-1.2,1.71-1.85,2.13-.87,4.38-2.53,5.82.92.25,5.95.09,11.82-2.93,17.21,0,0-.02-.06-.02-.06-3.68-1.99-7.32-4.01-9.85-7.51Z"/>
      <path class="cls-56" d="m433.81,303.99c-.83.56-1.29.96-1.81,1.2-4.62,2.12-9.05,4.59-13.26,7.44-.7.47-1.36,1.23-2.3.51-.81-.63-.67-1.52-.54-2.39.47-3.41.97-6.82,1.39-10.24.21-1.69.68-3.22,2.73-2.15,3.76,1.98,7.84,3.01,11.82,4.34.63.21,1.16.74,1.99,1.29Z"/>
      <path class="cls-79" d="m537.88,151.65c-2.65,6.08-5.13,11.61-7.48,17.2-1.14,2.72-3.99,2.61-6.32,3.8,1.57-3.67,3.93-7.21,4.53-11.03.86-5.54,4.54-7.69,9.27-9.97Z"/>
      <path class="cls-81" d="m350.63,251.25c1.39-3.55,1.89-7.32,2.57-11.51,1.32,3.23-.11,6.26,1.06,9,.63,6.26-3.73,10.92-5.3,16.47-1.15-1.09-.44-2.26-.18-3.43.75-3.49,2.1-6.87,1.86-10.53Z"/>
      <path class="cls-29" d="m510.47,253.63c-4.6-2.79-9-12.27-9.04-19.23,3.52,6.41,6.54,12.4,9.04,19.23Z"/>
      <path class="cls-37" d="m537.89,234.32c-2.72,5.4-6.59,10.25-7.69,16.41-1.26-6.77,2.97-15.31,7.69-16.41Z"/>
      <path class="cls-65" d="m183.1,167.35c-3.56-1.87-6.11-3.38-8.8-4.56-1.94-.85-2.55-2.46-1.67-3.81,1.11-1.71,2.04.4,2.81.97,2.59,1.92,5.66,3.38,7.66,7.4Z"/>
      <path class="cls-53" d="m409.62,155.02c.85,2.68,3.51,2.74,5.48,3.8.1,1.71-.47,2.23-2.11,1.36-2.84-1.51-5.72-2.92-8.59-4.38,1.54-1.63,3.48-.53,5.22-.78Z"/>
      <path class="cls-28" d="m360.48,234.43c.47-4.19.91-8.38,1.43-12.56.1-.82.86-1.21,1.64-1.17.18.01.53.81.45,1.17-.86,4.24-1.78,8.47-2.68,12.7-.28-.05-.56-.1-.83-.15Z"/>
      <path class="cls-78" d="m204.77,184.61c-1.74-1.42-3.42-2.79-5.32-4.33,5.96-.22,6.45.19,5.32,4.33Z"/>
      <path class="cls-59" d="m426.66,226.92c-1.17-2.75-3.17-5.33-2.05-8.64,1.32,2.71,2.55,5.44,2.05,8.64Z"/>
      <path class="cls-64" d="m462.64,187.21c-1.34,2.03-2.06,3.17-2.82,4.28-.71,1.05-1.4.68-2.08-.06-.73-.79-.36-1.31.39-1.73,1.17-.66,2.35-1.3,4.51-2.49Z"/>
      <path class="cls-71" d="m546.23,241.98c3.5.19,6.39,3.11,6.3,6.2-.04,1.25-.67,1.76-1.85,1.76-2.64,0-6.96-4.15-6.79-6.5.12-1.73,1.41-1.35,2.35-1.46Z"/>
      <path class="cls-89" d="m554.42,266.66c-.61,1.49-.31,3.53-2.84,2.9-.63-.16-1.81-.1-1.36-1.2.71-1.76,2.22-2.11,4.21-1.71Z"/>
      <path class="cls-17" d="m568.29,267.84c.73-1.01,1.16-2.53,3.12-2.5-.24,1.96-1.8,2.06-3.12,2.5Z"/>
      <path class="cls-47" d="m225.7,247.67c.8.22,2.26-.46,2.1,1.54-.22,2.63-4.05,6.23-6.68,6.2-1.5-.02-1.89-.76-1.83-2.13.15-3.23,2.74-5.58,6.41-5.6Z"/>
      <path class="cls-27" d="m217.03,271.92c2.3-.09,4.01.27,4.55,2.19.31,1.11-1.23,1.1-1.88,1.17-2.46.26-1.72-1.93-2.67-3.36Z"/>
      <path class="cls-41" d="m353.69,237.56c-1.48.63-2.32,1.52-2.76,3.29-1.57,6.46-4.71,12.21-9.04,17.88-.36-1.65.29-3.67-1.44-4-2.49-.48-3.45,2.06-6.2,3.91,7.78-13.23,10.16-26.8,10.57-40.88,1.83,7.37,1.61,14.71.28,22.06-.19,1.06-1.12,2.32.14,3.03,1.47.82,1.85-.96,2.33-1.68,6.29-9.4,6.9-19.65,4.25-30.32-.24-.96-.92-1.45-1.97-1.21l.06.06c1.31-1.8-.56-2.94-.92-4.39-.35-1.42-1.5-2.59-1.39-4.47,1.68.93,2.12,2.89,3.74,3.49,2.67,1.62.88-.91,1.29-1.39-1.66-2.51-3.31-5.01-4.97-7.52.17-1.17-1.24-2.64.13-3.45,1.43-.85,2.55.53,3.53,1.43,3.55,3.26,6.85,6.69,5.98,12.12-.24,1.47.29,2.06,1.72,2.15,1.11.07,2.21.4,3.33.44,1.27.05,2.81,1.38,3.78-.2.99-1.61-.08-3.11-.99-4.46-3.68-5.44-7.95-10.42-12.61-15.55,2.45-1.06,4.58-.73,6.62-.69,2.84.05,3.21-.89,2.01-3.37-2.17-4.47-4.79-8.67-6.92-13.27,3.58,3.98,7.17,7.95,10.74,11.94,2.71,3.02,6.18,2.53,8.26-1.05,1.62-2.78,3.42-5.46,5.52-8.8.76,4.44-.16,8.19-.66,11.78-1.09,7.8,2.81,14.14,5.17,20.95.26.76.61,1.38,1.52,1.37,1.11-.02,1.53-.85,1.64-1.72.32-2.59.62-5.2.75-7.8.33-6.46.7-12.93.76-19.4.02-2.47.87-3.17,3.18-3.4,4.56-.45,9.08-1.23,14.02-1.93-2.16,6.02-4.17,11.59-6.18,17.18-1.14-.61-.68-2.94-2.69-2.5-1.58.34-1.54,1.88-1.83,2.99-1.74,6.52-2.34,13.21-2.79,19.91-.17,2.49,1.49,4.46,2.43,6.6,1.25,2.83,2.78,5.54,4.3,8.5,1.74-1.06,1.07-3.13,2.06-4.78,3.07,1.98,4.33,5.32,6.26,8.1.81,1.16,1.18,3.17,3.09,2.63,1.89-.54.89-2.32.83-3.56-.25-5.46-.59-10.92-.91-16.63,1.3.85,1.21,3.36,2.82,2.95,1.85-.46,2.15-2.58,2.48-4.25,1.54-7.71,2.5-15.49,2.22-23.38-.06-1.62.17-3.56-1.69-4.18-2-.67-2.66,1.35-3.64,2.55-.29.36-.58.73-1.52,1.93.84-7.47.7-13.96-.8-20.78,7.63,3.21,14.79,6.29,22,9.23,4.97,2.03,10.2,2.47,15.43,1.35,5.34-1.14,6.89-4.49,4.57-9.45-1.31-2.81-2.82-5.53-4.64-9.06,4.7,1.74,8.81,3.17,12.86,4.77,4.64,1.83,9.04,4.15,13.26,6.83,2.07,1.32,1.78,2.38,0,3.45-5.24,3.13-10.51,6.19-15.78,9.27-8.22,4.8-14.63,11.97-22.52,17.21-.67.44-1.01,1.11-.61,1.92.57,1.16,1.6,1.1,2.58.77,3.43-1.14,6.99-1.57,11.08-2.25-2.94,5.39-5.53,10.33-7.24,15.65-.44,1.37-1.9,3.12.05,4.38,1.63,1.05,2.74-.47,3.88-1.37,2.69-2.12,5.71-3.62,9.03-4.27,2.18-.43,3.01-1.59,3.73-3.54,3.5-9.54,8.52-18.25,14.97-26.1,2.04-2.49,4.36-4.59,7.57-5.82,4.97-1.89,9.73-4.32,14.92-6.02-3.11,2.83-6.31,5.58-9.32,8.52-7.47,7.29-15.75,14.05-19.82,24-5.56,13.56-5.48,26.86,3.3,39.39,2.56,3.66,4.68,7.62,7.05,11.42.42.68.81,1.85,1.9,1.39,1.22-.52.37-1.54.13-2.25-1.97-5.77-3.65-11.67-6.09-17.23-2.88-6.55-1.78-12.61.87-18.73,3.25-7.5,7.99-14,13.2-20.25,8.9-10.67,19.18-19.86,29.93-28.58.43-.35.88-.67,1.59-.78-3.34,5.26-5.17,11.23-10.33,15.53-9.93,8.28-19.44,17.12-26.75,27.96-1.31,1.94-2.43,4.07-3.27,6.26-2.27,5.89-2.69,11.4,2.57,16.37,3.42,3.22,6.14,7.18,9.15,10.83.55.67,1.01,1.64,2.05,1.14,1.04-.49.59-1.54.4-2.32-2.68-10.75,2.17-19.45,7.8-27.81,8.6-12.78,20.54-21.88,33.59-29.69.64-.38,1.24-.83,1.87-1.23,1.11-.7,2.1-1.51,1.67-2.99-.47-1.64-1.89-1.84-3.31-1.82-3.23.05-6.02,1.37-8.73,3-8.06,4.86-15.78,10.22-23.46,15.68,4.02-5.41,9.51-9.16,14.78-13.12,5.78-4.34,11.82-8.31,18.3-11.57,1.06-.54,1.48-1.38,2-2.44,1.75-3.55,3.73-6.99,5.05-11,7.52,6.93,16.36,5.57,25.03,5.18.39.74-.36,1.02-.62,1.5-.66,1.19-1.5,2.38-.4,3.76,1.02,1.29,2.45,1.24,3.78.89,5.85-1.53,11.31-3.9,15.92-7.91.84-.73,1.54-1.48,2.66-1.92,18.15-7.25,31.32-19.9,40.22-37.15.4-.77.8-1.55,1.22-2.31.04-.07.23-.06.65-.15-.26,7.92-3.57,14.27-9.14,19.61-10.05,9.65-21.98,16.69-33.54,24.26-2.81,1.83-5.42,3.96-8.11,5.97-.78.58-1.89,1.11-1.24,2.34.68,1.3,1.8,1.04,2.91.5,4.24-2.07,8.58-3.97,12.72-6.22,9.3-5.05,18.5-10.28,27.76-15.39.58-.32,1.18-.97,2.16-.56-1.13,2.44-3.14,4.09-5.01,5.82-.86.8-1.88,1.48-1.19,2.76.7,1.3,2,.89,3,.51,4.06-1.55,8.16-3.05,12.11-4.88,7.02-3.25,13.7-7.14,20.1-11.49,8.21-5.58,14.13-12.86,17.05-22.44.31-1.03.7-2.04,1.35-2.94.12,8.82-3.46,16.22-8.98,22.81-5.62,6.7-12.84,11.35-20.46,15.42-7.89,4.22-15.84,8.32-23.98,12.58.55-4.69.07-5.22-4.18-3.86-17.26,5.51-33.85,12.49-48.84,22.85-1.42.98-2.63,2.28-3.94,3.43-.81.71-1.36,1.62-.88,2.64.46.97,1.49,1.28,2.55,1.2,1.61-.12,3.27-.07,4.81-.47,4.45-1.15,8.85-2.49,13.73-3.89-1.91,3.55.44,4.18,3.68,4.91-15.09,5.42-28.85,11.88-41.76,20.18,1.2-2.01,3.22-3.05,5-4.36,1.91-1.4,3.85-2.75,5.79-4.1,3.06-2.13,6.41-3.87,9.07-6.54.77-.77,1.89-1.48,1.24-2.82-.55-1.15-1.72-.77-2.67-.82-7.62-.38-14.44,2.65-21.06,5.65-8.27,3.75-16.23,8.24-22.42,15.2-.58.65-1.24,1.25-1.69,1.98-1.06,1.74-3.22,3.5-1.76,5.65,1.49,2.19,3.85.57,5.87.26.5.71-.12,1.16-.41,1.55-6.28,8.8-4.66,17.87-.78,26.91.92,2.15,2.32,4.41,5.43,2.85.92-.46,1.23-.08,1.61.77,3.09,7,7.98,12.85,12.57,19.14-2.04.42-2.76-1.28-3.78-2.1-6.31-5.06-12.49-10.28-18.74-15.42-.92-.76-1.86-1.26-.7-2.62,1.56-1.82,1.26-4.12.58-6.06-3.23-9.27-6.61-18.49-10.08-27.67-.62-1.64-1.16-4.06-3.28-4.09-2.38-.03-3.34,2.41-4.22,4.23-2.68,5.58-1.94,11.17.63,16.58,1.28,2.69,2.81,5.25,4.21,7.83-1.03,1.14-2.89-1.05-3.53.86-.54,1.62.31,2.92,1.27,4.38,4.72,7.14,10.59,13.18,16.99,18.79.56.49,3.14,1.01.12,2.08-1.08.38-.14,1.66.35,2.54,2.76,4.87,5.79,9.53,9.2,14.16-1.03-.98-2.1-1.93-3.1-2.95-11.12-11.24-22.71-22.05-33.06-34.02-3.73-4.31-6.75-9.24-10.14-13.86-.68-.93-.89-2.82-2.45-2.34-1.89.59-1.25,2.45-1.08,3.87.98,8.01,5.1,14.73,9,21.53,3.53,6.15,7.69,11.89,12.36,17.89-2.02-.15-2.83-1.37-3.77-2.29-10.81-10.7-20.96-21.98-30.19-34.08-.75-.99-1.52-1.97-2.38-2.88-.49-.52-1.2-1.26-1.74-1.2-1.03.11-.97,1.24-1.09,2.08-.69,5.2.51,10.14,2.02,15.04.54,1.75,1.1,3.49,1.41,5.36-5.3-8.71-10.34-17.54-14.28-27.07.91,1.14,1.77,2.34,2.75,3.42,1.58,1.74,3.21,1.97,3.63-.74,1.19-7.79.98-15.66.61-23.51-.09-2.01-1.71-2.58-3.11-.97-7.45,8.51-14.48,17.1-12.82,29.72,1.03,7.87,1.12,15.87,1.46,23.88-3.03-9.23-6.4-18.33-9.89-27.32.13-.44.26-.45.53-.26,1.62,1.13,3.44,2.82,5.33,1.63,1.8-1.13.88-3.52.54-5.22-1.81-9.02-3.86-17.99-5.75-26.99-.55-2.6-1.76-3.75-4.47-2.73-1.39.52-2.87.83-4.24,1.39-7.05,2.88-7.84,4.56-5.48,11.92.76,2.36,1.54,4.76,2.69,6.95,2.28,4.37,2.9,8.67,1.71,13.6-1.94,7.98-2.6,16.21-3.27,24.4-.04.54.24,1.24-.86,1.78-1.13-7.17-2.24-14.2-3.34-21.24-.31-1.97-.77-3.94-.81-5.91-.1-4.69-2.37-7.55-6.69-9.26-3.85-1.52-5.24-.75-5.34,3.49-.02,1.09,0,2.18-.53,3.39-1.87-4.81-3.72-9.63-5.62-14.43-.34-.86-.32-2.22-1.66-2.17-1.21.04-1.32,1.32-1.8,2.16-4.92,8.65-5.31,18.17-5.47,27.76-.04,2.35.43,4.65-2.12,6.61-1.28.98-1.09,3.92-1.47,5.98-.42,2.3-.74,4.61-1.87,6.87,0-8.04,0-16.09,0-24.13,0-.86-.09-1.73-.16-2.59-.29-3.92-.99-7.71,3.04-10.7,2.57-1.91,2.98-5.25,2.49-8.57-1.37-9.43-3.8-18.52-8.29-26.98-.49-.93-.56-2.48-2.05-2.26-1.7.25-1.35,1.82-1.43,3.01-1.4,19.13-3.76,38.1-8.6,56.75-1.24-.59-.75-1.66-.73-2.58.09-5.23.63-10.47-.3-15.66-.28-1.55.37-2.68,1.06-3.82,4.33-7.19,5.48-15.13,5.49-23.31,0-4.56-1.51-4.69-5.78-3.65-10.95,2.68-11.06,11.13-11.55,19.62-.69,2.78.21,5.65-.5,8.42Z"/>
      <path class="cls-69" d="m314.49,250.03c.48-8.57,1.2-17.15-.66-25.65-.73-3.34-2.21-6.34-4.57-8.85-.6-.64-1.32-1.33-2.25-.78-.97.58-.56,1.5-.29,2.34,1.46,4.37,2.43,8.85,2.98,13.42.14,1.18.73,2.41-.75,3.54-.98-4.36-2.15-8.49-4.32-12.25-.3-.51-.51-1.21-.44-1.78,1.02-8.03-2.42-14.47-7.92-20.9,2.88.81,3.67,3.17,5.58,3.91,4.42,1.39,6.88,5.09,9.64,8.38,1.28,1.53,2.43,3.1,4.83,4.27-.63-3.19-1.87-5.62-3.12-8.13-2.08-4.18-5.28-7.48-8.2-10.99-1.37-1.65-3.01-3.04-5.31-1.3-7.19-8.47-14.37-16.94-21.56-25.41,5.13,3.13,9.55,7.06,14.52,10.24.73.47,1.45.97,2.22,1.37.77.41,1.66.88,2.32-.09.51-.76-.11-1.31-.55-1.95-.99-1.42-2.11-2.79-2.64-5.02,4.45.46,7.85,2.98,10.68,5.52,9.19,8.28,17.03,17.71,21.92,29.28.68,1.6,1.49,3.14,2.31,4.67.6,1.11,1.29,2.2,2.87,1.83,1.51-.35,1.82-1.65,2.04-2.84.41-2.24-.02-4.46-.46-6.66-1.05-5.23-3.29-9.91-6.6-14.05-1.23-1.54-2.72-3.27-4.95-1.26-1.77,1.6-1.83-.59-2.18-1.14-4.65-7.19-9.18-14.46-13.38-22.02,2.22,2.37,4.36,4.83,6.68,7.1,7.67,7.5,12.91,7.03,19.31-1.81,4.66,7.43,7.69,15.59,11.82,23.18.45,1.52.89,3.04,1.55,5.29-3.65-2.74-6.08-5.89-10.4-8.08,2.7,8.29,7.78,14.7,9.57,23.12-2.36-1.56-3.13.07-4.42,1.18-4.85,4.15-6.36,9.55-7.35,15.63-1.06,6.55-3.32,12.91-5.05,19.35-1.68-.43-1.07-1.27-.89-2.11,1.76-8.26,3.49-16.52,5.2-24.79.22-1.09.42-2.24.3-3.33-.15-1.37,1.04-3.83-1.65-3.64-1.96.14-3.9,1.42-3.52,3.97,1.34,8.89-.56,17.57-1.45,26.32-.3,2.94-1.63,4.99-4.12,6.84.43-2.08.92-3.86,1.14-5.68.1-.84.48-1.89-.86-2.52-2.06-.96-.4-2.52-.35-3.83,4.51.59,3.02-3.18,3.4-5.12,1-5.09-.01-10.1-1.76-14.94-.31-.85-.64-2.12-1.99-1.72-1.1.33-.69,1.44-.8,2.26-.26,2.09-.53,4.18-.8,6.32-.33-.15-.57-.21-.73-.34-.99-.8-.1-3.44-2.02-2.89-1.69.48-.37,2.38-.29,3.64.38,6.36.38,12.68-1.48,18.86-.25.29-.52.31-.79.03Z"/>
      <path class="cls-41" d="m594.03,189.78c15.34-6.81,30.79-13.38,45.98-20.52,14.28-6.71,29.34-11.71,42.91-19.97,10.96-6.67,21.6-13.66,30.35-24.6-.55,1.94-.79,2.88-1.09,3.81-.63,1.91-1.52,4.03.23,5.58,1.78,1.58,4,.8,5.99,0,9.23-3.71,14.68-13.89,13.18-24.78-.27-1.93-.98-3.52,2.17-3.59,2.29-.05,2.71-2.23,2.79-4.21.14-3.76-1.43-7.04-3.09-10.24-1.6-3.07-3.45-6.01-5.22-9.06,11.46,7.37,16.33,29.27,9.13,40.99-1.56-.73-1.56-3.83-3.6-3.19-1.99.63-1.46,3.14-1.73,4.89-.4,2.57-.71,5.17-.86,7.77-.15,2.64,1.26,2.76,2.96,1.36,1.24-1.02,2.56-2.16,3.27-3.54,3.11-6.03,9.33-8.18,14.49-12.41-3.31,11.67-30.2,26.88-46.76,33.84.94-3.25-.78-3.69-3.3-3.17-5.89,1.22-11.25,3.88-16.7,6.28-7.73,3.41-15.73,6.22-23.12,10.37-2.25,1.27-4.77,2.3-5.06,5.42-.09.93-.95,1.07-1.64,1.28-20.36,6.1-40.48,12.98-61.28,17.68Z"/>
      <path class="cls-54" d="m408.05,174.63c.46,6.87-.28,12.81-.85,18.75-.1,1-.52,2.16.65,2.61,1.53.59,1.79-.83,2.24-1.82,1.14-2.54,2.19-5.14,4.55-8.31.29,8.35-.7,15.49-1.76,22.95-1.62-1.33-1.88-3-2.71-4.31-.46-.73-.77-1.78-1.82-1.58-1.5.3-1.28,1.77-1.22,2.74.42,5.82.97,11.63,1.48,17.45.05.56.08,1.12.18,2.4-2-2.42-3.51-4.33-5.11-6.17-1.13-1.3-2.86-2.44-4.21-1.17-2.23,2.09-2.12-.07-2.76-1.1-3.02-4.85-2.86-10.08-1.92-15.42.4-2.3.65-4.62,1.5-6.93v9.44c.38.09.76.17,1.14.26,3.39-9.71,4.61-20.27,10.61-29.79Z"/>
      <path class="cls-40" d="m525.16,255.29c-.83.06-1.44.41-1.55,1.3-.14,1.15-.28,2.45-1.77,2.4-1.33-.04-1.68-1.39-2.07-2.39-4.33-11.1-3.93-21.03,6.99-30.03,1.53-1.26,3.28-2.27,4.82-3.52.92-.75,3.19-1.14,1.95-2.84-1.19-1.63-2.46.29-3.45.92-4.41,2.79-8.89,5.4-13.93,7.42,1.92-8.64,27.86-24.57,42.32-24.62-1.12,2.39-3.44,3.23-5.35,4.46-8.52,5.44-16.55,11.46-23.49,18.86-6.25,6.67-8.14,14.57-6.64,23.4.29,1.72,1.04,3.31,2.13,4.7,0,0,.04-.05.04-.05Z"/>
      <path class="cls-45" d="m532.09,185.32c-10.99,6.49-20.78,13.9-28.87,23.29-8.05,9.35-14.78,19.41-15.13,33.09-2.6-2.74-5.08-5.04-7.15-7.66-1.06-1.35.08-3.07.59-4.58,4.55-13.59,13.75-23.36,25.44-31.15,6.63-4.42,13.34-8.69,20.49-12.23,1.29-.64,2.55-1.45,4.63-.75Z"/>
      <path class="cls-40" d="m613.31,171.88c0,1.97-4.9,4.32.76,5.93-17.07,7.99-34.16,14.79-52.02,19.51,7.78-8.62,42.05-25.31,51.26-25.44Z"/>
      <path class="cls-35" d="m562.18,326.48c-7.16-8.89-17.34-14.21-25.26-22.33,1.65-.24,2.64,1.18,3.94,1.82,1.58.78,3.26,1.74,4.92.7,1.7-1.05,1.02-2.83.77-3.46,4.17,3.87,8.88,8.22,13.56,12.6.33.3.72,1.12.66,1.17-4.14,3.39.6,5.19,1.37,7.68.14.43.47.81.71,1.21-.22.21-.45.41-.67.62Z"/>
      <path class="cls-1" d="m503.49,193.35c-3.8,4.36-8.03,8.34-11.29,13.2-4.92,7.33-9.65,14.73-12.41,23.2-.15.45-.47.85-.74,1.31-2.36-1.29-1.93-3.35-1.6-5.29,1.04-6.16,3.93-11.47,8.04-16.08,5.53-6.2,11.05-12.45,17.87-17.34.35.29.39.62.13,1Z"/>
      <path class="cls-77" d="m299.7,195.26c.39-2.11.88-3.71,3.38-1.54,6.7,5.84,11.55,12.88,14.3,21.34.23.7.54,1.55-.27,1.99-.71.39-1.47-.05-2.05-.55-1.58-1.37-2.93-2.94-4.29-4.54-2.72-3.19-5.91-5.98-8.9-8.93,1.1-1.9-.76-2.51-1.59-3.53-.91-1.12-1.89-2.18-2.85-3.27,2.1.09,2.87,2,4.23,3.11,1.01.82,1.7,2.08,3.22,2.11.57-.22,1.03.03,1.2.51,1.37,3.88,4.59,6.37,7.1,9.39-3.21-5.2-5.44-11.16-11.18-14.42-1.19.02-2.01-.45-2.29-1.67Z"/>
      <path class="cls-80" d="m453.11,221.13c.14,7.2-.2,13.22-.71,19.69-2.3-2.85-4.35-5.38-6.38-7.93-.46-.58-.8-1.15-.26-1.96,2.09-3.13,4.12-6.31,7.36-9.81Z"/>
      <path class="cls-24" d="m330.56,212.71c-2.92-5.54-5.89-11.06-8.73-16.65-.88-1.73,1.48-.45,1.67-1.53.21-1.23.88-.87,1.42-.13,3.9,5.35,6.55,11.14,6.6,17.82l-.96.49Z"/>
      <path class="cls-7" d="m301.99,196.93c.64-1,1.49-.91,2.16-.19,4.28,4.62,7.99,9.65,10.41,15.52.16.39-.04.93-.12,2.19-3.65-4.57-7.84-7.84-9.57-13.01-.96-1.51-1.92-3.01-2.89-4.52Z"/>
      <path class="cls-88" d="m734.5,123.46c3.9,4.36,3.88,4.47-1.76,8.9,1.01-3.1.09-6.09,1.76-8.9Z"/>
      <path class="cls-5" d="m539,222.66c-2.72,2.55-5.43,5.11-8.15,7.66,1.79-3.46,4.57-5.97,7.47-8.35.23.23.45.46.68.69Z"/>
      <path class="cls-39" d="m359.45,201.63c1.7.79,2.15,1.9,2.65,3.06-3.17,1.18-2.45-1.06-2.65-3.06Z"/>
      <path class="cls-81" d="m353.69,237.56c.02-2.82-.76-5.68.5-8.42.03,2.7.06,5.4.09,8.1-.2.11-.39.22-.59.32Z"/>
      <path class="cls-40" d="m503.49,193.35c-.04-.33-.09-.66-.13-1,.69-1.14,1.49-2.14,2.98-2.2,0,0,.12.12.12.12-.19,1.8-1.36,2.65-2.98,3.07Z"/>
      <path class="cls-41" d="m125.82,174.61c-22.8-6.42-44.44-16.08-66.82-23.67-2.35-.8-4.81-1.27-7.25-1.75-1.33-.26-2.98-.49-3.65,1.02-.57,1.28.43,2.36,1.39,3.21,1.57,1.4,3.18,2.77,4.77,4.15-17.48-1.03-44.55-30.07-45.8-49.45,3.24,3.4,6.48,6.47,10.13,9.05.51.36.99.76,1.52,1.09,7.98,4.94,10.45,4.08,13.61-4.72,5.81-16.15,11.73-32.27,17.39-48.47,2.83-8.11-.44-11.67-9.16-10.45-.33.05-.68-.08-1.68-.22,21.83-16.45,44.86-29.79,69.52-40.45-4.69,3.68-9.43,7.3-14.07,11.04-11.79,9.5-21.44,20.78-28.28,34.34-.83,1.65-1.32,2.69-3.39,1.1-1.68-1.29-3.41-.01-4.5,1.42-8.35,10.93-11.64,23.17-9.3,36.81.02.12.06.24.09.36.99,3.17,2.24,6.29,5.8,7.21,3.56.92,5.8-1.51,7.91-3.87,8.33,14.56,21.75,23.7,35.21,33.13-1.97-6.99-3.9-13.75-3.83-21.79,1.93,5.45,3.39,10.17,6,14.42,6.41,10.43,15.22,18.5,26.59,22.53,12.9,4.58,25.35,10.05,37.78,15.65,1.47.66,2.81,1.58,4.21,2.38.02,4.38,3.71,5.32,6.56,7.19,5.75,3.76,12.26,6.49,16.77,11.99.7.86,1.91,1.81,1.33,2.87-.77,1.41-2.21.58-3.35.18-1.74-.61-3.72-.56-5.21-1.91-1.09-.99-1.77.04-2.52.64-4.51-.41-8.1-3.1-11.84-5.16-9.16-5.04-18.48-9.85-26.92-16.1-1.2-.89-2.59-1.67-3.41-2.89-3.25-4.83-8.19-5.45-13.37-5.75-20.73-1.21-39.43-8.06-56-20.53-5.36-4.04-10.44-8.47-15.06-13.39,14.93,16.12,32.69,28.15,52.9,36.68,5.07,2.14,10.6,2.79,15.62,5.05,1.7,2.28,2.9,4.58.32,7.04Z"/>
      <path class="cls-41" d="m125.82,174.61c.92-2.33.6-4.53-.72-6.62,1.26-1.44,2.82-.6,4.09-.28,4.38,1.12,8.63,2.65,12.41,5.23-.16,2.39.7,2.77,2.51,1.25,3.58.62,6.87,1.87,9.67,4.25.04,1.17.21,2.12,1.61.88,5.1.7,9.49,2.97,13.49,6.1.68,4.45,2.08,8.21,7.53,8.56,1.74.11,2.73,1.65,3.8,2.82,1.86,2.05,3.97,3.24,6.85,2.97,1.9-.17,3.63.5,5.31,1.4,3.26,1.75,3.28,1.7,3.98-1.9.07-.37.27-.69.5-.99,3.41-1.26,5.55,1.78,8.39,2.46,3.29,1.1,6.26,3.17,9.9,3.21,3.08.37,5.62.73,4.49,5.24-.57,2.27,2.48,2.11,4.17,2.61,1.52.45,2.08.04,2.42-1.65.9-4.55.87-4.11-3.36-5.74-3.77-1.45-7.62-2.87-11.23-4.71-2.18-1.12-3.67-1.15-4.92,1.05-7.86-2.46-15.2-6.08-22.37-10.09-.45-.25-.67-.73-.8-1.22.02-.99-.1-2.12,1.03-2.58,1.31-.53,1.56.76,2.2,1.45,2,2.14,5.27.45,7.37,2.59-2.7-3.59-4.75-7.69-9.66-8.5-1.94-.32-2.45-2.33-3.8-3.39-2.75-2.15-6.12-3.15-9.08-4.95-2.79-1.69-2.55-3.17-1.58-5.4,11.38,6.27,21.79,13.89,31.45,22.54,1.06.95,2.09,1.71,3.41,2.07,15.21,4.14,29.14,11.45,43.63,17.39,4.33,1.78,8.77,3.3,13.37,4.6-8.95-7.85-19.45-13.48-28.91-20.56-.01-.77.06-1.51.77-2.01,5.12,1.9,10.28,3.67,15.01,6.47.79,2.81,2.78,3.05,5.18,2.42,2.53,1.18,5.27,1.91,7.58,3.56.49.64.64,1.33.31,2.08-2.78,2.1-4.4-.83-6.08-1.26,10.07,5.33,17.96,13.73,24.83,23.24.43.6.9,1.75,1.43,1.58,2.64-.82,3.77.92,4.57,2.7,1.43,3.19,3.76,6.21,2.61,10.09-1.19.2-2.71-.12-2.19,2.09.29,1.23-.43,2.45-1.46,3.23-2.22,1.69-2.3,3.33-.12,5.09.88.71,1.39,1.7,2.13,2.77-.69-4.06-3.76-8.5,1.82-11.37,1.94.66,1,2.41,1.39,3.66-.16-4.58-.7-9.14-1.67-13.61-.97-4.43-3.31-8.25-6.32-11.65-.9-1.01-1.97-1.92-2.21-3.37,0-.4.13-.75.4-1.05,1.72.53,2.79,1.99,4.22,2.94.49.32.95.95,1.55.24.51-.61.14-1.19-.32-1.61-2.02-1.82-4.07-3.6-6.1-5.4-.17-.58-.06-.87.61-.6,4.75,3.49,9.12,7.33,12.09,13.04-3.35-.86-3.33.45-2.28,2.85,2.08,4.78,3.94,9.67,5.87,14.51.4,1,.38,2.5,1.8,2.47,1.7-.04,1.62-1.75,1.78-2.86.86-5.82-.33-11.37-2.41-16.8-.29-.75-1.89-2.01.73-2.34,1.12-.14.43-1.84.08-2.89-2.11-6.51-7.09-10.68-12.08-14.81-15.1-12.48-32.61-20.92-50.04-29.46-1.87-.91-4.03-1.26-6.08-1.76-.93-.23-2.15-.59-2.78.37-.73,1.11.49,1.75,1.1,2.46.8.91,1.66,1.76,3.04,3.22-7.06-1.73-12.85-4.63-18.93-6.7-5.17-1.76-10.15-4.17-15.64-4.91-1.46-.2-2.32-1.01-3.2-2.2-6.42-8.68-14.99-14.8-24.29-20.01-.96-.54-2.41-1.24-3.17-.41-2.88,3.16-3.44-.11-4.37-1.55-1.58-2.47-3.02-5.07-3.93-8.74,3.12,3.59,6.22,6.06,9.68,8.04.96.55,1.81,2.29,3.09.93,1.08-1.15-.39-1.95-1.02-2.78-2.81-3.74-4.53-9.74-4.15-14.88,9.44,15.59,23.97,23.8,40.28,29.89,4.74,1.77,8.31,6.11,13.01,8.45,10.78,5.39,21.68,10.52,32.95,14.79,5.84,2.21,11.31,5.17,17.02,7.62,1.03.44,2.51,1.72,3.27.25.73-1.39-1.09-2-2.05-2.61-12.41-7.85-24.84-15.65-37.27-23.47-1.24-.78-2.45-1.59-3.43-2.88,3.21,1.22,6.38,2.58,9.65,3.6,1.22.38,3.11,1.8,3.94-.23.68-1.66-1.22-2.53-2.36-3.37-6.02-4.42-12.23-8.59-18.12-13.18-6.83-5.33-12.59-11.65-15.99-19.8-.35-.85-1.12-1.69-.28-2.95,3.35,4.88,6.76,9.59,10.68,13.91,8.13,8.95,17.49,16.21,28.37,21.56,3.22,1.59,6.14,3.8,9.34,5.43,3.79,1.94,4.69,1.27,4.77-3.9,8.65,12.48,20.2,21.09,31.09,30.39l-.54.72c-2.96-1.93-5.88-3.92-8.91-5.73-.69-.41-1.7-1.66-2.58-.5-.86,1.13.48,1.74,1.14,2.36,5.03,4.68,9.71,9.66,13.79,15.19.55.75,1.43,1.37,1.27,2.87-3.66-4.18-7.7-7.42-12.52-9.61-.97,1.52.16,1.94.68,2.45,6.02,5.8,11.22,12.35,16.75,18.59,2.04,2.29,2.87,4.78,2.98,7.78.44,11.78-1.11,23.08-7.5,33.32-.48-.09-.53-.51-.66-.87-.15-1.01,1.7-2.08.34-2.85-1.29-.73-2.6-.03-3.33,1.45-1.66,3.33-3.29,6.7-5.87,9.44-1.24,1.31-2.33,2.97-4.66,2.93.02-3.81,1.54-7.27,2.2-10.89.15-.83.75-1.82-.49-2.16-.9-.25-1.17.73-1.49,1.37-.93,1.86-1.84,3.74-3.07,5.55,1.26-7.1,2.76-14.13.97-22.29,1.05,1.27,1.42,1.73,1.81,2.18.47.55.92,1.35,1.79.9.8-.42.64-1.31.46-1.99-.48-1.79-1.08-3.55-1.63-5.33.41-1.53-.52-2.29-1.67-2.94-3.73-4.5-6.71-9.77-12.49-12.18-1.75-2.92-4.04-4.55-7.67-3.54-2.41.67-3.85-1.84-6.05-2.08,2.63,2.94,5.84,4.69,9.87,4.56,1.29-.04,2.51-.35,3.12,1.19-1.37,1.65-.1,2.59.9,3.75,4.66,5.44,7.12,11.52,5.14,18.79-.64-.81-.83-1.75-.78-2.75-.1,1.02.09,1.95.8,2.74-.36,5.91-2,11.42-5.22,16.43-.77.46-1.46.07-2.11-.25-1.71-.87-2.62-.34-3.53,1.34-.82,1.52-1.64,4.12-4.29,1.83,1.2-3.61,1.82-7.31,1.81-11.12,2.44-.81-.38-1.02-.18-1.57-.13-.21-.26-.42-.39-.63-.54-.91-.33-2.63-1.69-2.58-1.29.05-1.21,1.65-1.58,2.66-.12.32-.28.62-.65,1.46-.48-2.76-.85-4.99-1.25-7.22-1.47-8.22-6.27-13.97-13.06-18.58-8.85-6-18.11-11.18-27.93-15.39-.51-.66.01-1.47-.32-2.18-.59.5-.44,1.43-1.13,1.86-10.02-3.31-20.03-6.66-30.28-9.17-2.42-.59-2.84-2.98-4.81-3.77-3.45-1.38-6.88-2.84-10.29-4.31-1.22-.52-2.77-.53-3.53-2.36,2.08-.28,4.56-.68,1.6-3.29-.22-1.4-1.03-1.47-2.11-.95-4.05-1.31-8.13-2.53-11.98-4.38-1.25-2.81-3.05-4.1-6.01-2.18-6.33-1.33-12.13-4.08-17.99-6.67Z"/>
      <path class="cls-85" d="m349.87,209.64c.18,5.66,1.97,11.22.78,16.98-.66,3.2-.85,6.49-2.99,9.41,1.44-13.19-1.03-25.42-8.69-37,2.77.77,3.45,2.79,4.79,4.04,1.35,1.25,2.41,2.83,3.57,4.28.74.93,1.02,2.35,2.6,2.35,0,0-.06-.06-.06-.06Z"/>
      <path class="cls-41" d="m257.62,265.01c2.16,1.04,3.32-.76,3.52-2.03.7-4.34,2.89-2.88,5.16-1.67.43.23.82.52,1.24.79-3.65,5.77-9.37,9.45-14.19,14.04-1.15,1.09-2.44,2.03-3.93,2.85,3.58-4.2,5.42-9.36,8.21-13.98Z"/>
      <path class="cls-21" d="m247.45,281.1c-5.97,5-11.44,9.57-16.9,14.14,2.14-3.14,3.45-6.58,4.88-10.06,1.08-2.64,4.97-2.77,7.7-3.78,1.07-.4,2.37-.19,4.32-.31Z"/>
      <path class="cls-41" d="m266.7,223.15c-.58-.22-1.3-.79-1.7-.61-4.78,2.05-7.89-1.43-11.42-3.39-.98-.55-1.92-1.68-1.19-2.75.94-1.39,2.55-.65,3.19.27,1.48,2.13,3.44,2.21,5.59,1.9,4.18-.6,5.24.13,6.26,4.45-.23.09-.48.14-.73.13Z"/>
      <path class="cls-66" d="m289.32,196.54c7.02,4.56,11.73,10.66,12.9,19.16-3.57-6.88-7.87-13.26-12.9-19.16Z"/>
      <path class="cls-41" d="m280.92,219.38c-.03.3-.05.61-.08.91-1.07.63-1.94.07-2.66-.59-4.47-4.13-9.81-6.95-14.97-10.04-.82-.49-1.83-.85-1.82-2.08.03-.81.06-1.61.1-2.42,6.94,4.11,13.39,8.88,19.43,14.22Z"/>
      <path class="cls-73" d="m316.76,252.67c.74-5.72,1.9-10.53,1.59-15.46-.03-.55-.06-1.34.86-1.31.86.04.84.79.86,1.36.2,5.09.05,10.11-3.32,15.4Z"/>
      <path class="cls-41" d="m143.82,181.27c.84-1.53,1.97-2.73,3.86-2.09,1.99.67,2.29,2.42,2.15,4.28-2.09-.5-4.18-.98-6.01-2.18Z"/>
      <path class="cls-62" d="m322.58,229c1.11,3.44,1.31,6.89.86,11.23-2.01-4.12-2.71-7.52-.86-11.23Z"/>
      <path class="cls-41" d="m253.92,201.6c-1.1,1.71-2.78,1.78-4.22.9-.98-.6-2.28-1.75-.96-3.31,1.94.36,3.57,1.37,5.18,2.42Z"/>
      <path class="cls-82" d="m297.62,241.91c-.87-2.34-1.75-4.68-2.68-7.17,3.55.78,3.68,1.1,2.68,7.17Z"/>
      <path class="cls-41" d="m233.72,192.71c-.02.76.07,1.56-.77,2.01-2.22-1.29-4.44-2.57-6.66-3.86l.35-.75c2.36.87,4.72,1.73,7.08,2.6Z"/>
      <path class="cls-41" d="m294.56,259.83c.22.29.44.58.66.87-1.11,2.54-2.32,5.03-4.8,6.78,1.38-2.55,2.76-5.1,4.14-7.65Z"/>
      <path class="cls-75" d="m294.62,211.83c-1.98-2.27-3.95-4.54-6.1-7.01,3.01,1.07,4.69,2.9,6.1,7.01Z"/>
      <path class="cls-2" d="m331.01,219.89c.24,2.84.27,4.96-1.23,7.17.29-2.42-1.49-4.74,1.23-7.17Z"/>
      <path class="cls-23" d="m352.65,202.94c.82,1.11,2.43,1.69,2.37,3.6-1.97.43-2.76-.99-3.66-2.21.01-.85.43-1.33,1.29-1.39Z"/>
      <path class="cls-41" d="m211.25,211.7v-3.7c3.21.63,3.04,2.12,1.45,4.03-.48-.11-.96-.22-1.45-.33Z"/>
      <path class="cls-87" d="m153.17,190.37c2.72-.51,4.94.72,7.72.86q-2.44,1.31-7.72-.86Z"/>
      <path class="cls-14" d="m275.86,235.07c1.95.82,1.99,2.81,3.65,4.41-4.72.27-2-3.4-3.65-4.41Z"/>
      <path class="cls-6" d="m300.39,217.55c-1.26-2.15-2.53-4.31-3.79-6.46,2.28,1.57,3.56,3.73,3.79,6.46Z"/>
      <path class="cls-41" d="m259.25,252.32c1.09.17,2.57-.49,2.86,1.34.1.62-.04,1.24-.73,1.47-1.12.37-1.35-.75-1.95-1.24-.06-.52-.12-1.04-.18-1.57Z"/>
      <path class="cls-9" d="m314.49,250.03c.26-.01.53-.02.79-.03-.03,2.27-.82,4.31-2.08,7.09.11-2.97.3-5.08,1.28-7.06Z"/>
      <path class="cls-40" d="m311.64,226.13c-1.11-2.13-1.64-4.42-2.21-7.19,2.13,2.35,2.47,4.7,2.2,7.2,0,0,.01,0,.01,0Z"/>
      <path class="cls-51" d="m280.88,214.95c-.2.2-.41.4-.61.6-1.22-.99-2.44-1.98-3.66-2.97,1.89.08,3.29.89,4.27,2.38Z"/>
      <path class="cls-41" d="m161.81,187.84c.29-1.51,1.35-1.68,2.38-1.04.96.59.53,1.42-.27,2-.7-.32-1.41-.64-2.11-.95Z"/>
      <path class="cls-41" d="m279.92,235.2c1.22-.16,2.15.38,2.68,1.4.47.91-.4,1.2-1.01,1.54-.56-.98-1.11-1.96-1.67-2.94Z"/>
      <path class="cls-10" d="m420.3,126.6c-2.63,5.73-7.1,7.9-12.03,5.82-.15-4.41-3.74-5.3-6.72-7.28-3.35-2.23-3.51-6.38-2.75-10.2.32-1.61.47-3.16.38-5.38-1.67,2.23-3.03,4.08-4.43,5.9-1.18,1.53-2.71,2.9-4.68,2.34-2-.57-1.93-2.62-2.04-4.39-.21-3.34-.51-6.67-.75-10-.11-1.51.22-2.84,2.03-2.96,2.03-.14,2.42,1.25,2.48,2.93.09,2.56-.32,5.17.69,8.43,3.23-4.59,5.99-8.75,9-12.73,3.88-5.13,7.52-10.48,13.35-13.79,4.63-2.63,8.46-1.82,10.89,2.94,4.74,9.28,2.93,18.27-2.42,26.45-2.54,3.89-3.98,7.46-3,11.95Z"/>
      <path class="cls-74" d="m383.86,101.43c.54.09.73.08.75.14,1.75,3.99,1.8,8.21,1.19,12.36-.38,2.55-1.93,3.07-3.77.72-2.27-2.89-4.66-5.7-7.53-9.2.78,4.46,2.16,7.96,2.03,11.68-.36,10.45-7.69,11.72-14.66,8.58-11.22-5.06-18.09-25.07-13.17-36.38,2.43-5.58,6.76-6.86,12.14-3.82,5.95,3.36,8.7,9.43,12.69,14.45,2.4,3.02,4.67,6.13,7.09,9.14.45.56.72,1.94,1.9,1.18.79-.51,1.38-1.2,1.2-2.47-.28-2.06-.48-4.18.15-6.39Z"/>
      <path class="cls-31" d="m387.76,139.35c-3.13-.3-4.42-1.96-5.07-4.52-.8-3.16.12-7.1-3.82-8.98-.52-.25-.77-1.1-.27-1.63.79-.83,1.27.1,1.8.51,4.96,3.82,9.5,3.83,14.37,0,.46-.36.84-1.1,1.49-.59.79.63.35,1.6-.19,1.91-3.35,1.93-3.09,5.3-3.53,8.4-.42,2.99-2.25,4.48-4.79,4.91Z"/>
      <path class="cls-10" d="m418.76,80.6c.39,1.75-.43,2.67-2.51,2.85-2.75.23-1.39-1.47-1.44-2.63-.08-1.81-1.52-1.36-2.51-1.2-1.83.29-3.61.83-5.43,1.2-.82.17-1.83.45-2.18-.71-.32-1.03-.11-2.13.93-2.57,3.44-1.44,7.12-2.35,10.78-2.04,2.37.2,2.4,2.78,2.36,5.1Z"/>
      <path class="cls-43" d="m408.22,71.31c1.03-.5,2.06-1.01,3.09-1.51,1.08-1.13,2.45-2,3.02-3.61.34-.95.99-1.78,2.22-.97.72.07,1.44.15,2.15.22q.18,6.21-5.63,7.82c-1.18.33-2.37.83-3.57.86-1.12.02-2.48,1.54-3.31.03-1.02-1.88,1.34-1.87,2.02-2.84Z"/>
      <path class="cls-4" d="m422.48,74.32c1.5-.09,3.34-1.14,4.36.53,1.33,2.19-1.29,3.05-2.03,4.57.07,1.94-.45,3.56-2.77,3.23-2.01-.28-1.49-2.4-1.54-3.52-.08-1.69.25-3.66,1.99-4.81Z"/>
      <path class="cls-12" d="m366.29,173.76c.98-5.74,1.96-11.47,2.93-17.21.93-.62,1.84-1.26,2.78-1.86,1.86-1.18.7.67,1.03,1.03-2.33,1.32-3.08,3.4-2.93,5.96.19,3.27-.32,6.42-1.52,9.48-.46,1.17-.75,2.41-2.29,2.6Z"/>
      <path class="cls-41" d="m333.39,82.45c-4.34,17.04-5.39,33.13,7.38,47.32-6.35,1.65-12.88.95-19.09,2.51-1.48.37-1.56-1.1-1.85-2.22-3.69-14.53-2.18-28.85,1.52-43.12.37-1.44,1.15-2.06,2.5-2.35,3.03-.64,6.04-1.35,9.55-2.14Z"/>
      <path class="cls-41" d="m432.76,129.79c12.31-14.27,11.64-30.28,7.16-47.1,3.5.18,6.75,1.4,10.11,2.04,1.66.31,1.7,1.72,1.99,2.83,3.61,13.77,4.88,27.62,1.73,41.7-.59,2.64-1.45,3.37-4.14,2.68-5.39-1.36-11.09-.6-16.84-2.14Z"/>
      <path class="cls-44" d="m406.71,64.3c.4,2.57-.25,3.41-3.02,2.87-11.17-2.19-22.4-1.91-33.63-.28-1.32.19-3.25,1.66-3.57-.7-.29-2.13-.6-4.88,2.6-5.72,4.34-1.14,8.8-1.59,13.25-1.91,7.11-.52,14.13.6,21.15,1.56,2.59.35,3.75,1.67,3.22,4.18Z"/>
      <path class="cls-55" d="m337.61,61.54c-.65-.22-1.47.06-1.68-.66-.11-.39.09-1.04.38-1.35,2.29-2.37,5-4.08,8.24-4.8.68-.15,1.6-.18,1.95.61.34.78-.26,1.39-.78,1.95-2.22,2.41-5.44,2.88-8.11,4.25Z"/>
      <path class="cls-36" d="m428.68,54.73c1.89-.07,7.73,3.47,8.52,5.2.59,1.3-.34,1.8-1.15,1.51-2.97-1.07-6.12-1.82-8.51-4.08-.57-.54-.83-1.27-.55-2.02.25-.68.94-.65,1.69-.61Z"/>
      <path class="cls-46" d="m424.51,71.95c-1.94.19-3.51.03-3.81-1.55-.33-1.74-.23-3.76,1.12-5.1.51-.5,2.62-2.18,2.59.82,0,.79.21,1.71.97,1.74,1.9.06,2.2.89,1.85,2.56-.42,2.03-1.99,1.39-2.72,1.54Z"/>
      <path class="cls-58" d="m416.55,65.23c-.71.2-1.51.42-1.48,1.32.09,2.68-1.62,3.19-3.76,3.26-.04-.87-.14-1.74-.11-2.61.06-1.61-1.71-3.86.18-4.66,2.03-.86,4.02.66,5.17,2.7Z"/>
      <path class="cls-49" d="m364.21,52.82c-.45,2.48-.28,3.99-1.7,4.88-.22.14-.97-.1-.97-.15.07-1.63.99-2.81,2.67-4.74Z"/>
      <path class="cls-19" d="m409.24,53.92c2.04,1.23,2.58,2.22,2.51,3.5,0,.12-.67.37-.94.29-1.71-.53-.81-1.94-1.57-3.79Z"/>
      <path class="cls-30" d="m150.36,286.19c1.56-2.44,2.91-4.24,3.93-6.21,4.08-7.9.57-13.63-8.21-12.99-13.36.98-24.24,7-32.59,17.38-3.94,4.9-3.4,7.99,1.39,11.28-4.12,1.07-8.18.89-12.43.96.55-1.74,1.14-3.21,1.47-4.74,1.35-6.29-1.62-9.23-7.78-7.27-7.1,2.26-14.04,5.02-21.04,7.56-4.2,1.53-8.36,3.21-12.82,3.87-.95.14-2,.85-2.81-.03-.97-1.06-.05-2.17.39-3.09,4.08-8.42,9.43-16.09,14.37-24,1.97-3.16,4.15-6.18,6.23-9.27.55-.82,1.19-1.65.46-2.7-.78-1.12-1.77-.6-2.69-.27-3.84,1.39-7.49,3.31-11.65,3.73-3.84.38-4.8-.47-4.39-4.27.24-2.22.76-4.41,1.13-6.62.2-1.18-.1-2.32-1.03-3.01-1.04-.78-1.86.24-2.63.77-3.92,2.72-8.31,4.33-13.65,6.18,4.17-4.5,7.74-8.36,5.72-14.89,6.48,2.29,12.62,2.68,18.8,2.57,13.07-.24,24.8-3.64,33.47-14.26,2.34-2.86,3.65-6.17,4.86-10.03,3.82,2.85,7.56,5.46,11.74,7.3,5.01,2.2,10.12,3.52,15.58,1.79,8.12-2.57,9.76-9.3,3.86-15.39-2.35-2.42-5.43-3.87-8.34-6.54,9.78.76,18.94,1.48,27.86,4.04,2.27.65,3.21,1.05,1.97,3.88-4.73,10.75-.25,18.93,12.48,23.08,4.01,1.31,8.18,2.2,12.46.97,5.41-1.56,7.09-5.04,4.94-10.26-.91-2.2-2.57-3.92-4.22-6.15,4.77.31,8.61,2.23,12.6,3.67,1.63.59,1.08,1.69.97,2.73-.32,2.95.2,5.77,1.79,8.25,1.99,3.09,4.7,5.24,8.67,4.62,3.7-.58,4.32-3.57,4.65-6.77,4.51,1.86,7.74,5.03,11.69,8.72-4.19-.28-7.43-.11-10.36,1.76-2.93,1.87-4.62,4.5-5.24,7.82-.92,4.9,1.21,8.72,5.68,10.44,6.11,2.35,11.31.22,15.68-6.4,2.08,4.36.51,11.75-2.94,14.89-1.38,1.25-1.71.22-2.56-.51-4.36-3.74-9.58-5.73-15.09-4.32-2.63.67-4.68.92-7.15.09-2.89-.96-5.83-.76-8.74.32-2.41.9-3.56,2.46-3.64,5.03-.18,6.1,4.33,11.18,10.75,12.35,4.71.86,9.29-.21,13.97-.48-7.81,4.2-16.16,6.86-25.22,9.63,1.12-2.69,1.94-5.04.33-7.05-1.81-2.25-4.51-2.31-7.19-2.29-6.26.05-11.95,2.12-17.5,4.75-1.3.62-2.64,1.16-3.96,1.74-.6-1.09.31-1.8.31-2.63,0-1.3,1.58-2.6.32-3.85-1.41-1.4-3.09-.45-4.55.08-3.24,1.18-6.41,2.54-10.15,4.04Z"/>
      <path class="cls-30" d="m564.19,259.86c-.19.37-.39,1.28-.83.73-2.7-3.42-6.2-2.63-9.58-1.85-3.51.81-7.05,1.8-9.56,4.68-.81.93-1.11.81-1.98.02-3.62-3.29-5.27-10.28-3.38-15.03,5.66,6.89,11.43,9.03,16.81,6.23,4.12-2.14,5.88-6.08,4.72-10.61-1.71-6.72-5.84-9.34-14.49-9.15,1.57-2.96,5.01-5.78,10.81-8.78.18,3.43,1.1,6.34,5.06,6.84,3.53.44,6.63-1.54,8.56-5.35.98-1.94,1.86-4.16,1.37-6.08-.88-3.49,1.01-4.32,3.57-5.15,3.17-1.02,6.23-2.41,9.78-2.66-1.35,2.14-2.79,4.03-3.8,6.12-2.35,4.87-.65,8.56,4.49,10.16,7.37,2.3,20.5-2.33,24.79-8.76,3.44-5.16,2.56-10.41.14-15.61-.67-1.43-.98-2.25.96-3.01,5.12-2.02,23.14-4.64,28.75-3.86-3.05,2.11-6.05,4.03-8.49,6.64-4.78,5.09-3.72,11.01,2.64,13.93,5.48,2.52,10.95,1.8,16.27-.57,4.44-1.98,8.69-4.33,12.8-7.78,1.5,4.38,3.25,8.36,6.38,11.67,8.85,9.36,20.04,12.46,32.42,12.58,6.07.06,12.12-.19,18.41-2.5-2.04,6.4,1.39,10.32,5.08,14.23-4.62-1.09-8.82-2.82-12.69-5.28-.91-.58-1.64-1.75-2.92-1.05-1.34.75-1.13,2.13-.97,3.35.28,2.21.82,4.4,1.01,6.62.33,3.63-.59,4.45-4.28,3.96-3.61-.48-6.94-1.94-10.33-3.15-1.34-.48-2.82-1.94-3.97-.31-1.02,1.46.54,2.7,1.34,3.91,6.22,9.45,12.52,18.85,17.99,28.76,1.1,1.99,3.41,4.62,2.03,6.25-1.3,1.53-4.51.05-6.66-.68-8.59-2.93-17.09-6.12-25.63-9.21-.94-.34-1.9-.61-2.84-.93-3.05-1.03-6.35-1.77-8.79.72-2.35,2.4-.9,5.55.12,8.13,1.23,3.11.34,3.25-2.44,2.77-2.87-.49-5.85-.4-9.1-.58,4.53-4.33,4.96-7.08,1.22-11.7-8.18-10.1-18.62-16.31-31.83-17.25-3.71-.26-7.53.04-9.7,3.4-2.23,3.45-.58,6.98,1.25,10.19.98,1.71,2.2,3.29,3.68,5.48-3.49-1.38-6.49-2.69-9.58-3.72-1.66-.55-3.55-2.04-5.21-.41-1.46,1.44.31,2.95.52,4.45.08.59.13,1.19.22,2.13-5.73-2.5-11.03-5.22-16.96-6.13-2.1-.32-4.18-.58-6.32-.38-5.78.55-7.27,2.84-5.26,9.13-8.97-2.47-17.36-5.32-25.25-9.57,4.49.17,8.82,1.45,13.37.62,6.02-1.1,10.33-4.78,11.1-9.98.76-5.16-.92-7.42-6.12-8.15-2.25-.32-4.47-.15-6.57.82-1.08.17-1.22-.53-.98-1.26.36-1.12.96-2.15,1.61-3.14,1.51-2.15,3.2-4.05,6.06-4.31.46-.18.9-.43,1.37-.59q5.23-1.72,4.02-7.8c-1.7,2.94-2.63,6.06-5.09,8.16-2.75.44-4.73,2-6.2,4.29-1.51,1.5-1.46,3.86-2.95,5.37Z"/>
      <path class="cls-38" d="m567.32,254.87c.07,1.51-2.34,2.45-.98,4.25-.51.88-1.4.62-2.16.73.46-2.03,1.24-3.9,2.58-5.52.42-.07.61.11.56.53Z"/>
      <path class="cls-63" d="m428.55,304.1c-.58.52-.82.85-1.14,1.01-2.96,1.5-5.94,2.98-9.37,4.7.29-3.09.47-5.75.81-8.38.2-1.55,1.2-1.18,2.21-.71,2.35,1.09,4.72,2.14,7.48,3.39Z"/>
      <path class="cls-60" d="m563.28,176.13c1.82.45,4.45.09,5,2.75.46,2.26-.87,3.94-2.9,5.12-9.15,5.33-18.35,10.56-27.35,16.14-9.18,5.69-16.8,13.25-24.1,21.13-.89.96-1.6,2.66-3.2,1.98-1.57-.67-.92-2.32-.83-3.67.23-3.23,1.52-6.13,3.4-8.56,11.86-15.24,26.7-26.65,44.69-33.85,1.14-.46,2.4-.65,3.61-.92.48-.11.99-.08,1.67-.12Z"/>
      <path class="cls-83" d="m442,187.59c.02,1.03-.67,1.34-1.3,1.76-7.27,4.81-13.01,11.09-17.7,18.39-.63.98-1.19,2.67-2.65,2.12-1.71-.65-.46-2.1-.22-3.21,1.35-6.18,2.58-12.38,4.61-18.39.8-2.37,1.76-3.62,4.75-3.28,3.18.37,6.43.45,9.64.85,1.22.15,2.5.35,2.86,1.75Z"/>
      <path class="cls-52" d="m308.03,188.88c.55.09.88.04,1.01.18,7.06,7.23,12.69,15.47,17.01,24.59.38.81,1.18,1.91-.03,2.61-.85.49-1.73-.22-2.31-.82-6.35-6.49-12.49-13.13-15.34-22.05-.45-1.41-.91-2.83-.35-4.51Z"/>
      <path class="cls-57" d="m168.68,185.65c-4.4-2.31-8.85-4.47-13.59-6.03-.63.08-1.11-.12-1.4-.71-3.16-1.72-6.41-3.22-9.87-4.23-.98.25-1.65-.16-2.11-1-5.31-2.55-10.58-5.24-16.62-5.69-28.91-5.73-60.62-30.24-69.9-44.33,2.92,2.52,5.96,4.91,8.74,7.59,14.92,14.37,33.05,22.41,53.03,26.57,5.67,1.18,11.63,1.11,17.46,1.38,1.08.05,1.88.05,2.61.85,7.6,8.36,17.35,13.71,27.03,19.13,6.4,3.58,12.97,6.86,19.47,10.28,7.75,3.72,15.51,7.44,23.26,11.16.04.17.08.33.12.5-.42.79-1.01.81-1.69.35-2.8-.85-5.23-2.68-8.18-3.14-4.06,0-7.24-2.51-10.75-3.98-5.28-2.21-10.44-4.7-15.65-7.09-.8-.37-1.6-.72-1.97-1.61Z"/>
      <path class="cls-41" d="m168.68,185.65c9.57,3.96,19.06,8.12,28.37,12.67,0,.5.11,1.04-.05,1.49-.45,1.24,1.47,2.82-.23,3.66-1.58.78-3.17-.17-4.48-1.2-1.56-1.22-3.27-1.81-5.22-1.58-2.89.34-5.19-.3-7.09-2.81-1.52-2.01-3.41-3.44-6.5-3.4-3.1.03-5.85-5.7-4.79-8.84Z"/>
      <path class="cls-25" d="m261.4,207.58c6.86,3.66,13.34,7.9,19.45,12.71,9.14,8.23,11.01,18.94,10.36,30.71-1.94-1.49-.69-4.01-1.98-5.56-.7-.64-.66-1.35-.19-2.09-.55-3.99-2.07-7.6-4.19-10.99-.33-.53-.94-1.47-1.18-1.18-3.58,4.31-3.38-1.13-3.98-1.9-6.83-8.75-14.21-16.83-24.01-22.37-1.07-.6-2.24-1.04-3.02-2.31,3.42-.19,5.64,2.72,8.73,2.98Z"/>
      <path class="cls-33" d="m265.59,257.37c1.34-8.84-2.55-16-7.97-21.87-3.97-4.31-5.74-10.1-10.87-13.65-4.94-3.42-10.14-6.25-15.36-9.12-.72-.4-1.65-.59-1.94-1.87,2.35.25,4.39,1.11,6.29,2.12,9,4.74,18.26,9.04,25.75,16.21,3.87,3.71,5.31,8.41,5.8,13.39.48,4.94.59,9.97-1.71,14.79Z"/>
      <path class="cls-41" d="m206.79,200.62c-.04-3.5,1.56-3.53,4.27-2.3,4.58,2.08,9.12,4.22,13.97,5.72,1.58.49,5.66.93,2.3,4.71-.85.95-.38,3.08-.54,4.99-2.53-1.65-5.77-.47-7.92-2.78-.5-.54-2-.83-.92-1.88,3.61-3.49.23-3.52-1.98-4.19-.35-.11-.68-.29-1.02-.44-3.23-.16-5.88-1.63-8.29-3.65l.13-.18Z"/>
      <path class="cls-41" d="m289.03,243.34c.06.7.13,1.4.19,2.09-.3.66-.46,1.46-.93,1.95-2.11,2.17-2.06,4.34.02,6.39,1.48,1.46.63,2.72-.05,4.01-.54,1.02-1.67,1.22-1.79,0-.23-2.19-1.84-3-3.12-4.3-1.65-1.67-1.18-3.68.68-4.68,1.58-.85,2.39-1.76,2.12-3.42-.45-2.79,1.35-2.19,2.9-2.05Z"/>
      <path class="cls-41" d="m256.44,240.38c1.35,1.45,3.5,2.45,2.44,4.85-.28.63-.91.85-1.52.46-2.19-1.4-.74-3.53-.92-5.31Z"/>
      <path class="cls-68" d="m206.66,200.8c2.76,1.22,5.53,2.43,8.29,3.65-1.23,1.69-2.37.26-3.45-.17-2.13-.84-4.19-1.86-6.28-2.81.48-.22.96-.45,1.44-.67Z"/>
      <path class="cls-41" d="m141.72,173.68c.7.33,1.4.67,2.11,1-.18,1.47-1.05,2.15-2.49,1.97-.39-.05-.94-.44-1.04-.78-.33-1.18.52-1.73,1.42-2.19Z"/>
      <path class="cls-41" d="m272.76,245.67c-2.01-.86-1.48-2.92-2.04-4.44-.24-.63.35-1.22,1.02-1.25.81-.04.9.67.92,1.29.05,1.47.06,2.95.09,4.42,0,0,.02-.01.02-.01Z"/>
      <path class="cls-41" d="m206.26,205.72c-1.51.11-2.99.85-4.04-.83-.31-.49-.25-1.02.39-1.12,1.56-.23,3-.08,3.64,1.95Z"/>
      <path class="cls-41" d="m153.7,178.92c.47.24.93.47,1.4.71-.17,1,.12,2.75-1.61,2-1.17-.5-.85-1.86.21-2.72Z"/>
      <path class="cls-41" d="m239.58,222.07c1.47.21,2.77.57,3.27,1.99.03.09-.44.49-.7.52-1.79.18-1.84-1.53-2.57-2.51Z"/>
      <path class="cls-41" d="m134.15,173.71c2.13.25,3.09.76,3.26,2.51-1.82.07-2.26-1.01-3.26-2.51Z"/>
      <path class="cls-76" d="m425.38,97.47c-.82,7.7-3.41,14.56-8.04,20.63-.68.89-1.42,1.75-1.97,2.71-.55.95-.77,1.97.88,2.06,3.6.19,2.5,2.34,1.61,4.14-1.05,2.13-2.81,3.39-5.33,3.45-2.48.06-4.52-.09-2.71-3.42,1.09-2-.27-1.92-1.67-1.96-5.79-.17-8.51-2.64-7.77-8.33,1.27-9.84,4.31-19.09,11.49-26.48,2.4-2.47,5.08-4.23,8.59-3.15,3.41,1.04,3.86,4.19,4.34,7.18.18,1.1.4,2.2.57,3.17Z"/>
      <path class="cls-76" d="m374.64,116.81c-.14,2.99-.15,6.14-3.37,7.71-3.01,1.47-5.66.5-8.34-1.33-8.83-6.02-14.79-20.95-12.3-31.3,1.3-5.39,6.94-6.88,11.37-3,5.74,5.03,8.81,11.67,10.96,18.75.89,2.95,1.8,5.98,1.67,9.16Z"/>
      <path class="cls-42" d="m387.89,129.41c1.39.36,3.68-1.03,3.2,1.75-.41,2.34.37,5.88-3.45,5.94-3.85.07-3.38-3.33-3.54-5.79-.24-3.78,2.88-.73,3.79-1.9Z"/>
      <path class="cls-22" d="m85.56,273.31c1.93-2.99,3.46-5.73,4.23-8.77.42-1.67.99-1.86,2.58-1.43,7.55,2.02,14.09-.76,20.39-4.55,2.27-1.37,1.73-2.31-.3-3.21-.56-.25-1.08-.61-1.63-.88-.77-.37-1.92-.64-1.41-1.75.5-1.09,1.46-.34,2.27-.11,5.61,1.6,11.23,3.17,16.85,4.74.56.15,1.22.51,1.7-.06,1.95-2.3,1.93-2.29,4.48-1.3,3.84,1.5,7.85,2.37,11.91,3,.93.15,2.34.06,2.28,1.36-.06,1.31-1.49,1.01-2.41,1.15-6.68.95-13.43.76-20.13,1.35-4.16.36-8.47-.07-12.39,2.04-2.75,1.47-4.62,3.13-2.42,6.38.47.69.68,1.35-.08,1.91-.75.55-1.36.03-2-.4-8.43-5.57-15.09-5.49-23.89.53Z"/>
      <path class="cls-22" d="m149.62,237.53c.97-3.19,1.54-6.72.24-10.3-.15-.42-.06-1.05.58-1.18.88-.17,1.21.42,1.68,1.08,6.14,8.6,13.9,15.49,22.49,21.58,1.76,1.24,5.69,1.58,4.73,3.98-.61,1.54-3.64-1.43-5.75-1.9-1.09-.24-2.13-.69-3.22-.94-4.43-1.04-6.6.46-7.19,4.98-.11.86-.06,1.74-.09,2.61-.03.7-.41,1.22-1.07,1.33-.82.13-1.15-.57-1.09-1.16.86-7.8-4.6-11.86-9.51-16.27-1.63-1.47-1.82-2.01-1.8-3.8Z"/>
      <path class="cls-13" d="m84.46,247.45c10.8-1.43,18.17-6.69,22.97-15.56.47-.88.9-1.38,2-.65,6.63,4.42,14.29,6.24,21.76,8.58,1.27.4,4.11.08,3.44,2.33-.6,2-2.87.41-4.23.17-6.51-1.14-12.97-2.3-19.64-1.31-5.62.83-10.6,3.42-15.79,5.43-3.15,1.22-6.3,2.13-10.5,1.01Z"/>
      <path class="cls-32" d="m185.34,277.9c-4.93-.35-9.57,1.07-14.22,2.36-.92.25-1.92.96-2.73-.08-.97-1.24.12-2.12.82-2.87,2.86-3.09,5.83-6.1,8.73-9.16,1.33-1.4,2.45-1.19,3.78.1,2.4,2.33,4.96,4.5,7.42,6.76.65.6,2.06.83,1.33,2.21-.54,1.01-1.44,1.2-2.55.93-.83-.21-1.72-.17-2.58-.24Z"/>
      <path class="cls-61" d="m203.82,258.04c-3.33-1.38-6.64-1.9-10.06-1.86-.65,0-1.25-.04-1.66-.6-.44-.58.83-9.48,1.43-9.79.91-.48,1.46.14,1.68.86,1.45,4.81,3.56,9.11,8.61,11.38Z"/>
      <path class="cls-22" d="m641.97,252c7.12-1.92,14.22-3.83,21.49-5.78-.14,2.7-2.33,2.43-3.51,3.3-1.52,1.12-2.32,1.97-.2,3.16,6.46,3.65,13.08,6.76,20.78,4.53,1.44-.42,1.65.03,2.05,1.11.89,2.41,1.9,4.77,3.17,7.9-6.2-3.85-12.14-4.03-18.23-1.86-1.78.63-3.44,1.41-4.73,2.86-.42.46-1.01.7-1.65.22-.65-.49-.4-1.01-.21-1.63,1.37-4.38.4-6.32-3.99-7.51-4.34-1.18-8.84-1.22-13.29-1.5-5.09-.33-10.18-.48-15.27-.81-1.65-.11-3.29-.55-4.99-.85.45-1.65,1.47-1.76,2.43-1.91,4.8-.75,9.52-1.77,14.01-3.7.7-.3,1.56-1.02,2.43-.34,1.31,1.03-.77,1.81-.28,2.83Z"/>
      <path class="cls-22" d="m622.68,221.49c-1.56,3.59-.65,6.93.33,10.31.43,1.5-.63,2.57-1.65,3.53-1.73,1.61-3.44,3.24-5.22,4.8-3.1,2.71-4.67,6.04-4.4,10.2.06.95.16,2.37-.95,2.5-1.44.18-1.1-1.29-1.2-2.21-.81-6.96-3.12-8.42-9.68-5.98-1.62.6-3.14,1.47-4.72,2.19-.77.35-1.78,1-2.34.06-.66-1.11.66-1.5,1.31-1.84,9.39-5.01,16.82-12.3,23.75-20.19,1.06-1.21,1.89-2.61,2.79-3.95.39-.59.9-.99,1.52-.62.31.18.34.82.47,1.2Z"/>
      <path class="cls-13" d="m687.51,241.51c-3.41,1.15-6.62.2-9.88-1.06-5.42-2.11-10.65-4.71-16.56-5.45-6.95-.87-13.63.59-20.36,1.77-1.02.18-2.49,1.05-2.9-.47-.38-1.44,1.26-1.58,2.25-1.9,6.5-2.08,13.38-3.33,19.27-6.85,3.83-2.29,5.55-1.92,8.06,1.9,4.63,7.05,11.47,11.17,20.13,12.06Z"/>
      <path class="cls-13" d="m604.45,273.12c0,1.94-1.23,1.73-2.33,1.46-2.52-.62-5.03-1.32-7.53-2.01-3.31-.91-6.66-.27-9.99-.25-.97,0-2.11.17-2.5-1.09-.33-1.08.68-1.52,1.27-2.07,2.46-2.28,5.03-4.45,7.44-6.77,1.28-1.23,2.47-1.72,3.82-.3,2.99,3.16,5.94,6.35,8.87,9.56.41.45.67,1.03.95,1.46Z"/>
      <path class="cls-84" d="m572.89,249.84c2.07-3.19,4.07-6.42,5.37-10.23,1.98,3.02,1.76,6.43,2.25,9.66.12.78-.63,1.16-1.23.98-2.14-.65-4.09.78-6.17.45-.45-.2-.52-.49-.21-.87Z"/>
      <path class="cls-34" d="m572.89,249.84c.07.29.14.58.21.87-2.45.66-4.19,2.3-5.78,4.16-.19-.18-.37-.36-.56-.53,1.31-2.5,3.35-3.99,6.13-4.49Z"/>
      <path class="cls-50" d="m512.45,219.38c.56-5.4,3.48-8.97,6.55-12.32,10.45-11.38,22.72-20.35,36.69-26.99,2.85-1.36,5.83-2.12,9.02-1.95.76.04,1.62.06,1.91.87.3.85-.56,1.42-1.06,1.77-2.03,1.42-4.12,2.77-6.29,3.97-12.8,7.14-25.76,14.04-36.5,24.27-3.4,3.24-6.64,6.66-10.32,10.38Z"/>
      <path class="cls-67" d="m436.76,188.43c-4.93,4.48-9.25,8.68-13.49,14.22.62-5.33,1.75-9.6,3.38-13.74.37-.93.79-1.82,2.12-1.61,2.48.39,4.97.71,7.99,1.13Z"/>
      <path class="cls-70" d="m323.42,212.94c-6.09-5.58-10.5-11.79-13.47-19.5,3.59,2.59,12.19,15.04,13.47,19.5Z"/>
      <path class="cls-72" d="m100.7,155.66c3.28.97,6.55,2.01,9.86,2.89,5.66,1.5,11.45,2.58,17.25,2.93,5.1.31,9.23,1.71,12.79,5.49,3.06,3.26,7.11,5.38,10.84,7.88-2.01-.21-48.69-17.5-50.74-19.2Z"/>
      <path class="cls-18" d="m285.36,229.08c-.58-.44-1.25-1.23-1.93-.58-1.5,1.43-2,.26-2.72-.78-3.03-4.4-6.73-8.2-10.38-12.13,5.59,3.83,11.58,7.19,15.02,13.5h.01Z"/>
      <path class="cls-3" d="m285.35,229.09c2.14,1.1,2.28,3.28,2.82,5.23-1.34-1.53-2.36-3.23-2.81-5.24,0,0-.01,0-.01,0Z"/>
      <path class="cls-86" d="m252.62,224.19c7.51,4.83,12.9,10.52,12.77,19.83-2.99-7.26-9.5-12.13-12.77-19.83Z"/>
    </g>
  </g>
</svg>